%TF.GenerationSoftware,KiCad,Pcbnew,7.0.7*%
%TF.CreationDate,2024-06-01T18:58:20-04:00*%
%TF.ProjectId,Payload,5061796c-6f61-4642-9e6b-696361645f70,rev?*%
%TF.SameCoordinates,Original*%
%TF.FileFunction,Drillmap*%
%TF.FilePolarity,Positive*%
%FSLAX45Y45*%
G04 Gerber Fmt 4.5, Leading zero omitted, Abs format (unit mm)*
G04 Created by KiCad (PCBNEW 7.0.7) date 2024-06-01 18:58:20*
%MOMM*%
%LPD*%
G01*
G04 APERTURE LIST*
%ADD10C,0.100000*%
%ADD11C,0.200000*%
G04 APERTURE END LIST*
D10*
X6350000Y-3810000D02*
X17018000Y-3810000D01*
X5842000Y-11684000D02*
X5842000Y-4318000D01*
X17018000Y-12192000D02*
X6350000Y-12192000D01*
X17526000Y-4318000D02*
X17526000Y-11684000D01*
X6350000Y-3810000D02*
G75*
G03*
X5842000Y-4318000I0J-508000D01*
G01*
X5842000Y-11684000D02*
G75*
G03*
X6350000Y-12192000I508000J0D01*
G01*
X17018000Y-12192000D02*
G75*
G03*
X17526000Y-11684000I0J508000D01*
G01*
X17526000Y-4318000D02*
G75*
G03*
X17018000Y-3810000I-508000J0D01*
G01*
D11*
X6097777Y-12508484D02*
X6097777Y-12308484D01*
X6097777Y-12308484D02*
X6145396Y-12308484D01*
X6145396Y-12308484D02*
X6173967Y-12318008D01*
X6173967Y-12318008D02*
X6193015Y-12337055D01*
X6193015Y-12337055D02*
X6202539Y-12356103D01*
X6202539Y-12356103D02*
X6212062Y-12394198D01*
X6212062Y-12394198D02*
X6212062Y-12422769D01*
X6212062Y-12422769D02*
X6202539Y-12460865D01*
X6202539Y-12460865D02*
X6193015Y-12479912D01*
X6193015Y-12479912D02*
X6173967Y-12498960D01*
X6173967Y-12498960D02*
X6145396Y-12508484D01*
X6145396Y-12508484D02*
X6097777Y-12508484D01*
X6297777Y-12508484D02*
X6297777Y-12375150D01*
X6297777Y-12413246D02*
X6307301Y-12394198D01*
X6307301Y-12394198D02*
X6316824Y-12384674D01*
X6316824Y-12384674D02*
X6335872Y-12375150D01*
X6335872Y-12375150D02*
X6354920Y-12375150D01*
X6421586Y-12508484D02*
X6421586Y-12375150D01*
X6421586Y-12308484D02*
X6412062Y-12318008D01*
X6412062Y-12318008D02*
X6421586Y-12327531D01*
X6421586Y-12327531D02*
X6431110Y-12318008D01*
X6431110Y-12318008D02*
X6421586Y-12308484D01*
X6421586Y-12308484D02*
X6421586Y-12327531D01*
X6545396Y-12508484D02*
X6526348Y-12498960D01*
X6526348Y-12498960D02*
X6516824Y-12479912D01*
X6516824Y-12479912D02*
X6516824Y-12308484D01*
X6650158Y-12508484D02*
X6631110Y-12498960D01*
X6631110Y-12498960D02*
X6621586Y-12479912D01*
X6621586Y-12479912D02*
X6621586Y-12308484D01*
X6878729Y-12508484D02*
X6878729Y-12308484D01*
X6878729Y-12308484D02*
X6945396Y-12451341D01*
X6945396Y-12451341D02*
X7012062Y-12308484D01*
X7012062Y-12308484D02*
X7012062Y-12508484D01*
X7193015Y-12508484D02*
X7193015Y-12403722D01*
X7193015Y-12403722D02*
X7183491Y-12384674D01*
X7183491Y-12384674D02*
X7164443Y-12375150D01*
X7164443Y-12375150D02*
X7126348Y-12375150D01*
X7126348Y-12375150D02*
X7107301Y-12384674D01*
X7193015Y-12498960D02*
X7173967Y-12508484D01*
X7173967Y-12508484D02*
X7126348Y-12508484D01*
X7126348Y-12508484D02*
X7107301Y-12498960D01*
X7107301Y-12498960D02*
X7097777Y-12479912D01*
X7097777Y-12479912D02*
X7097777Y-12460865D01*
X7097777Y-12460865D02*
X7107301Y-12441817D01*
X7107301Y-12441817D02*
X7126348Y-12432293D01*
X7126348Y-12432293D02*
X7173967Y-12432293D01*
X7173967Y-12432293D02*
X7193015Y-12422769D01*
X7288253Y-12375150D02*
X7288253Y-12575150D01*
X7288253Y-12384674D02*
X7307301Y-12375150D01*
X7307301Y-12375150D02*
X7345396Y-12375150D01*
X7345396Y-12375150D02*
X7364443Y-12384674D01*
X7364443Y-12384674D02*
X7373967Y-12394198D01*
X7373967Y-12394198D02*
X7383491Y-12413246D01*
X7383491Y-12413246D02*
X7383491Y-12470388D01*
X7383491Y-12470388D02*
X7373967Y-12489436D01*
X7373967Y-12489436D02*
X7364443Y-12498960D01*
X7364443Y-12498960D02*
X7345396Y-12508484D01*
X7345396Y-12508484D02*
X7307301Y-12508484D01*
X7307301Y-12508484D02*
X7288253Y-12498960D01*
X7469205Y-12489436D02*
X7478729Y-12498960D01*
X7478729Y-12498960D02*
X7469205Y-12508484D01*
X7469205Y-12508484D02*
X7459682Y-12498960D01*
X7459682Y-12498960D02*
X7469205Y-12489436D01*
X7469205Y-12489436D02*
X7469205Y-12508484D01*
X7469205Y-12384674D02*
X7478729Y-12394198D01*
X7478729Y-12394198D02*
X7469205Y-12403722D01*
X7469205Y-12403722D02*
X7459682Y-12394198D01*
X7459682Y-12394198D02*
X7469205Y-12384674D01*
X7469205Y-12384674D02*
X7469205Y-12403722D01*
M02*
