%TF.GenerationSoftware,KiCad,Pcbnew,7.0.7*%
%TF.CreationDate,2024-06-01T18:58:20-04:00*%
%TF.ProjectId,Payload,5061796c-6f61-4642-9e6b-696361645f70,rev?*%
%TF.SameCoordinates,Original*%
%TF.FileFunction,Drillmap*%
%TF.FilePolarity,Positive*%
%FSLAX45Y45*%
G04 Gerber Fmt 4.5, Leading zero omitted, Abs format (unit mm)*
G04 Created by KiCad (PCBNEW 7.0.7) date 2024-06-01 18:58:20*
%MOMM*%
%LPD*%
G01*
G04 APERTURE LIST*
%ADD10C,0.100000*%
%ADD11C,0.200000*%
%ADD12C,0.030000*%
%ADD13C,0.040000*%
G04 APERTURE END LIST*
D10*
X6350000Y-3810000D02*
X17018000Y-3810000D01*
X5842000Y-11684000D02*
X5842000Y-4318000D01*
X17018000Y-12192000D02*
X6350000Y-12192000D01*
X17526000Y-4318000D02*
X17526000Y-11684000D01*
X6350000Y-3810000D02*
G75*
G03*
X5842000Y-4318000I0J-508000D01*
G01*
X5842000Y-11684000D02*
G75*
G03*
X6350000Y-12192000I508000J0D01*
G01*
X17018000Y-12192000D02*
G75*
G03*
X17526000Y-11684000I0J508000D01*
G01*
X17526000Y-4318000D02*
G75*
G03*
X17018000Y-3810000I-508000J0D01*
G01*
D11*
D12*
X7201140Y-4694160D02*
X7231140Y-4724160D01*
X7231140Y-4694160D02*
X7201140Y-4724160D01*
X7585000Y-9845000D02*
X7615000Y-9875000D01*
X7615000Y-9845000D02*
X7585000Y-9875000D01*
X8288260Y-11501360D02*
X8318260Y-11531360D01*
X8318260Y-11501360D02*
X8288260Y-11531360D01*
X8452090Y-11253710D02*
X8482090Y-11283710D01*
X8482090Y-11253710D02*
X8452090Y-11283710D01*
X11613120Y-8314295D02*
X11643120Y-8344295D01*
X11643120Y-8314295D02*
X11613120Y-8344295D01*
X12507200Y-9893540D02*
X12537200Y-9923540D01*
X12537200Y-9893540D02*
X12507200Y-9923540D01*
X12707860Y-8943580D02*
X12737860Y-8973580D01*
X12737860Y-8943580D02*
X12707860Y-8973580D01*
X12740880Y-7422120D02*
X12770880Y-7452120D01*
X12770880Y-7422120D02*
X12740880Y-7452120D01*
X12765000Y-8165000D02*
X12795000Y-8195000D01*
X12795000Y-8165000D02*
X12765000Y-8195000D01*
X13145000Y-6785000D02*
X13175000Y-6815000D01*
X13175000Y-6785000D02*
X13145000Y-6815000D01*
X13365000Y-9305000D02*
X13395000Y-9335000D01*
X13395000Y-9305000D02*
X13365000Y-9335000D01*
X14063550Y-6786450D02*
X14093550Y-6816450D01*
X14093550Y-6786450D02*
X14063550Y-6816450D01*
X14085000Y-9305000D02*
X14115000Y-9335000D01*
X14115000Y-9305000D02*
X14085000Y-9335000D01*
X14346160Y-7119860D02*
X14376160Y-7149860D01*
X14376160Y-7119860D02*
X14346160Y-7149860D01*
X14525000Y-6765000D02*
X14555000Y-6795000D01*
X14555000Y-6765000D02*
X14525000Y-6795000D01*
X14985000Y-9285000D02*
X15015000Y-9315000D01*
X15015000Y-9285000D02*
X14985000Y-9315000D01*
X15265000Y-7885000D02*
X15295000Y-7915000D01*
X15295000Y-7885000D02*
X15265000Y-7915000D01*
X15265000Y-8405000D02*
X15295000Y-8435000D01*
X15295000Y-8405000D02*
X15265000Y-8435000D01*
X15285000Y-7165000D02*
X15315000Y-7195000D01*
X15315000Y-7165000D02*
X15285000Y-7195000D01*
X15593300Y-5514580D02*
X15623300Y-5544580D01*
X15623300Y-5514580D02*
X15593300Y-5544580D01*
D13*
X8198800Y-5410200D02*
G75*
G03*
X8198800Y-5410200I-20000J0D01*
G01*
X9214800Y-7975600D02*
G75*
G03*
X9214800Y-7975600I-20000J0D01*
G01*
X9214800Y-8750300D02*
G75*
G03*
X9214800Y-8750300I-20000J0D01*
G01*
X9928540Y-7965440D02*
G75*
G03*
X9928540Y-7965440I-20000J0D01*
G01*
X10213020Y-5842000D02*
G75*
G03*
X10213020Y-5842000I-20000J0D01*
G01*
X10500040Y-9118600D02*
G75*
G03*
X10500040Y-9118600I-20000J0D01*
G01*
X11716700Y-6847840D02*
G75*
G03*
X11716700Y-6847840I-20000J0D01*
G01*
X11833540Y-6380480D02*
G75*
G03*
X11833540Y-6380480I-20000J0D01*
G01*
X11864020Y-5417820D02*
G75*
G03*
X11864020Y-5417820I-20000J0D01*
G01*
X14167800Y-7236460D02*
G75*
G03*
X14167800Y-7236460I-20000J0D01*
G01*
X14175420Y-6004560D02*
G75*
G03*
X14175420Y-6004560I-20000J0D01*
G01*
X14233840Y-7132320D02*
G75*
G03*
X14233840Y-7132320I-20000J0D01*
G01*
X14236380Y-5598160D02*
G75*
G03*
X14236380Y-5598160I-20000J0D01*
G01*
X14965360Y-7279640D02*
G75*
G03*
X14965360Y-7279640I-20000J0D01*
G01*
D11*
X6097777Y-12508484D02*
X6097777Y-12308484D01*
X6097777Y-12308484D02*
X6145396Y-12308484D01*
X6145396Y-12308484D02*
X6173967Y-12318008D01*
X6173967Y-12318008D02*
X6193015Y-12337055D01*
X6193015Y-12337055D02*
X6202539Y-12356103D01*
X6202539Y-12356103D02*
X6212062Y-12394198D01*
X6212062Y-12394198D02*
X6212062Y-12422769D01*
X6212062Y-12422769D02*
X6202539Y-12460865D01*
X6202539Y-12460865D02*
X6193015Y-12479912D01*
X6193015Y-12479912D02*
X6173967Y-12498960D01*
X6173967Y-12498960D02*
X6145396Y-12508484D01*
X6145396Y-12508484D02*
X6097777Y-12508484D01*
X6297777Y-12508484D02*
X6297777Y-12375150D01*
X6297777Y-12413246D02*
X6307301Y-12394198D01*
X6307301Y-12394198D02*
X6316824Y-12384674D01*
X6316824Y-12384674D02*
X6335872Y-12375150D01*
X6335872Y-12375150D02*
X6354920Y-12375150D01*
X6421586Y-12508484D02*
X6421586Y-12375150D01*
X6421586Y-12308484D02*
X6412062Y-12318008D01*
X6412062Y-12318008D02*
X6421586Y-12327531D01*
X6421586Y-12327531D02*
X6431110Y-12318008D01*
X6431110Y-12318008D02*
X6421586Y-12308484D01*
X6421586Y-12308484D02*
X6421586Y-12327531D01*
X6545396Y-12508484D02*
X6526348Y-12498960D01*
X6526348Y-12498960D02*
X6516824Y-12479912D01*
X6516824Y-12479912D02*
X6516824Y-12308484D01*
X6650158Y-12508484D02*
X6631110Y-12498960D01*
X6631110Y-12498960D02*
X6621586Y-12479912D01*
X6621586Y-12479912D02*
X6621586Y-12308484D01*
X6878729Y-12508484D02*
X6878729Y-12308484D01*
X6878729Y-12308484D02*
X6945396Y-12451341D01*
X6945396Y-12451341D02*
X7012062Y-12308484D01*
X7012062Y-12308484D02*
X7012062Y-12508484D01*
X7193015Y-12508484D02*
X7193015Y-12403722D01*
X7193015Y-12403722D02*
X7183491Y-12384674D01*
X7183491Y-12384674D02*
X7164443Y-12375150D01*
X7164443Y-12375150D02*
X7126348Y-12375150D01*
X7126348Y-12375150D02*
X7107301Y-12384674D01*
X7193015Y-12498960D02*
X7173967Y-12508484D01*
X7173967Y-12508484D02*
X7126348Y-12508484D01*
X7126348Y-12508484D02*
X7107301Y-12498960D01*
X7107301Y-12498960D02*
X7097777Y-12479912D01*
X7097777Y-12479912D02*
X7097777Y-12460865D01*
X7097777Y-12460865D02*
X7107301Y-12441817D01*
X7107301Y-12441817D02*
X7126348Y-12432293D01*
X7126348Y-12432293D02*
X7173967Y-12432293D01*
X7173967Y-12432293D02*
X7193015Y-12422769D01*
X7288253Y-12375150D02*
X7288253Y-12575150D01*
X7288253Y-12384674D02*
X7307301Y-12375150D01*
X7307301Y-12375150D02*
X7345396Y-12375150D01*
X7345396Y-12375150D02*
X7364443Y-12384674D01*
X7364443Y-12384674D02*
X7373967Y-12394198D01*
X7373967Y-12394198D02*
X7383491Y-12413246D01*
X7383491Y-12413246D02*
X7383491Y-12470388D01*
X7383491Y-12470388D02*
X7373967Y-12489436D01*
X7373967Y-12489436D02*
X7364443Y-12498960D01*
X7364443Y-12498960D02*
X7345396Y-12508484D01*
X7345396Y-12508484D02*
X7307301Y-12508484D01*
X7307301Y-12508484D02*
X7288253Y-12498960D01*
X7469205Y-12489436D02*
X7478729Y-12498960D01*
X7478729Y-12498960D02*
X7469205Y-12508484D01*
X7469205Y-12508484D02*
X7459682Y-12498960D01*
X7459682Y-12498960D02*
X7469205Y-12489436D01*
X7469205Y-12489436D02*
X7469205Y-12508484D01*
X7469205Y-12384674D02*
X7478729Y-12394198D01*
X7478729Y-12394198D02*
X7469205Y-12403722D01*
X7469205Y-12403722D02*
X7459682Y-12394198D01*
X7459682Y-12394198D02*
X7469205Y-12384674D01*
X7469205Y-12384674D02*
X7469205Y-12403722D01*
D12*
X5807000Y-12822000D02*
X5837000Y-12852000D01*
X5837000Y-12822000D02*
X5807000Y-12852000D01*
D11*
X6135872Y-12728484D02*
X6154920Y-12728484D01*
X6154920Y-12728484D02*
X6173967Y-12738008D01*
X6173967Y-12738008D02*
X6183491Y-12747531D01*
X6183491Y-12747531D02*
X6193015Y-12766579D01*
X6193015Y-12766579D02*
X6202539Y-12804674D01*
X6202539Y-12804674D02*
X6202539Y-12852293D01*
X6202539Y-12852293D02*
X6193015Y-12890388D01*
X6193015Y-12890388D02*
X6183491Y-12909436D01*
X6183491Y-12909436D02*
X6173967Y-12918960D01*
X6173967Y-12918960D02*
X6154920Y-12928484D01*
X6154920Y-12928484D02*
X6135872Y-12928484D01*
X6135872Y-12928484D02*
X6116824Y-12918960D01*
X6116824Y-12918960D02*
X6107301Y-12909436D01*
X6107301Y-12909436D02*
X6097777Y-12890388D01*
X6097777Y-12890388D02*
X6088253Y-12852293D01*
X6088253Y-12852293D02*
X6088253Y-12804674D01*
X6088253Y-12804674D02*
X6097777Y-12766579D01*
X6097777Y-12766579D02*
X6107301Y-12747531D01*
X6107301Y-12747531D02*
X6116824Y-12738008D01*
X6116824Y-12738008D02*
X6135872Y-12728484D01*
X6288253Y-12909436D02*
X6297777Y-12918960D01*
X6297777Y-12918960D02*
X6288253Y-12928484D01*
X6288253Y-12928484D02*
X6278729Y-12918960D01*
X6278729Y-12918960D02*
X6288253Y-12909436D01*
X6288253Y-12909436D02*
X6288253Y-12928484D01*
X6364443Y-12728484D02*
X6488253Y-12728484D01*
X6488253Y-12728484D02*
X6421586Y-12804674D01*
X6421586Y-12804674D02*
X6450158Y-12804674D01*
X6450158Y-12804674D02*
X6469205Y-12814198D01*
X6469205Y-12814198D02*
X6478729Y-12823722D01*
X6478729Y-12823722D02*
X6488253Y-12842769D01*
X6488253Y-12842769D02*
X6488253Y-12890388D01*
X6488253Y-12890388D02*
X6478729Y-12909436D01*
X6478729Y-12909436D02*
X6469205Y-12918960D01*
X6469205Y-12918960D02*
X6450158Y-12928484D01*
X6450158Y-12928484D02*
X6393015Y-12928484D01*
X6393015Y-12928484D02*
X6373967Y-12918960D01*
X6373967Y-12918960D02*
X6364443Y-12909436D01*
X6612062Y-12728484D02*
X6631110Y-12728484D01*
X6631110Y-12728484D02*
X6650158Y-12738008D01*
X6650158Y-12738008D02*
X6659682Y-12747531D01*
X6659682Y-12747531D02*
X6669205Y-12766579D01*
X6669205Y-12766579D02*
X6678729Y-12804674D01*
X6678729Y-12804674D02*
X6678729Y-12852293D01*
X6678729Y-12852293D02*
X6669205Y-12890388D01*
X6669205Y-12890388D02*
X6659682Y-12909436D01*
X6659682Y-12909436D02*
X6650158Y-12918960D01*
X6650158Y-12918960D02*
X6631110Y-12928484D01*
X6631110Y-12928484D02*
X6612062Y-12928484D01*
X6612062Y-12928484D02*
X6593015Y-12918960D01*
X6593015Y-12918960D02*
X6583491Y-12909436D01*
X6583491Y-12909436D02*
X6573967Y-12890388D01*
X6573967Y-12890388D02*
X6564443Y-12852293D01*
X6564443Y-12852293D02*
X6564443Y-12804674D01*
X6564443Y-12804674D02*
X6573967Y-12766579D01*
X6573967Y-12766579D02*
X6583491Y-12747531D01*
X6583491Y-12747531D02*
X6593015Y-12738008D01*
X6593015Y-12738008D02*
X6612062Y-12728484D01*
X6802539Y-12728484D02*
X6821586Y-12728484D01*
X6821586Y-12728484D02*
X6840634Y-12738008D01*
X6840634Y-12738008D02*
X6850158Y-12747531D01*
X6850158Y-12747531D02*
X6859682Y-12766579D01*
X6859682Y-12766579D02*
X6869205Y-12804674D01*
X6869205Y-12804674D02*
X6869205Y-12852293D01*
X6869205Y-12852293D02*
X6859682Y-12890388D01*
X6859682Y-12890388D02*
X6850158Y-12909436D01*
X6850158Y-12909436D02*
X6840634Y-12918960D01*
X6840634Y-12918960D02*
X6821586Y-12928484D01*
X6821586Y-12928484D02*
X6802539Y-12928484D01*
X6802539Y-12928484D02*
X6783491Y-12918960D01*
X6783491Y-12918960D02*
X6773967Y-12909436D01*
X6773967Y-12909436D02*
X6764443Y-12890388D01*
X6764443Y-12890388D02*
X6754920Y-12852293D01*
X6754920Y-12852293D02*
X6754920Y-12804674D01*
X6754920Y-12804674D02*
X6764443Y-12766579D01*
X6764443Y-12766579D02*
X6773967Y-12747531D01*
X6773967Y-12747531D02*
X6783491Y-12738008D01*
X6783491Y-12738008D02*
X6802539Y-12728484D01*
X6954920Y-12928484D02*
X6954920Y-12795150D01*
X6954920Y-12814198D02*
X6964443Y-12804674D01*
X6964443Y-12804674D02*
X6983491Y-12795150D01*
X6983491Y-12795150D02*
X7012063Y-12795150D01*
X7012063Y-12795150D02*
X7031110Y-12804674D01*
X7031110Y-12804674D02*
X7040634Y-12823722D01*
X7040634Y-12823722D02*
X7040634Y-12928484D01*
X7040634Y-12823722D02*
X7050158Y-12804674D01*
X7050158Y-12804674D02*
X7069205Y-12795150D01*
X7069205Y-12795150D02*
X7097777Y-12795150D01*
X7097777Y-12795150D02*
X7116824Y-12804674D01*
X7116824Y-12804674D02*
X7126348Y-12823722D01*
X7126348Y-12823722D02*
X7126348Y-12928484D01*
X7221586Y-12928484D02*
X7221586Y-12795150D01*
X7221586Y-12814198D02*
X7231110Y-12804674D01*
X7231110Y-12804674D02*
X7250158Y-12795150D01*
X7250158Y-12795150D02*
X7278729Y-12795150D01*
X7278729Y-12795150D02*
X7297777Y-12804674D01*
X7297777Y-12804674D02*
X7307301Y-12823722D01*
X7307301Y-12823722D02*
X7307301Y-12928484D01*
X7307301Y-12823722D02*
X7316824Y-12804674D01*
X7316824Y-12804674D02*
X7335872Y-12795150D01*
X7335872Y-12795150D02*
X7364443Y-12795150D01*
X7364443Y-12795150D02*
X7383491Y-12804674D01*
X7383491Y-12804674D02*
X7393015Y-12823722D01*
X7393015Y-12823722D02*
X7393015Y-12928484D01*
X7783491Y-12718960D02*
X7612063Y-12976103D01*
X8040634Y-12728484D02*
X8059682Y-12728484D01*
X8059682Y-12728484D02*
X8078729Y-12738008D01*
X8078729Y-12738008D02*
X8088253Y-12747531D01*
X8088253Y-12747531D02*
X8097777Y-12766579D01*
X8097777Y-12766579D02*
X8107301Y-12804674D01*
X8107301Y-12804674D02*
X8107301Y-12852293D01*
X8107301Y-12852293D02*
X8097777Y-12890388D01*
X8097777Y-12890388D02*
X8088253Y-12909436D01*
X8088253Y-12909436D02*
X8078729Y-12918960D01*
X8078729Y-12918960D02*
X8059682Y-12928484D01*
X8059682Y-12928484D02*
X8040634Y-12928484D01*
X8040634Y-12928484D02*
X8021586Y-12918960D01*
X8021586Y-12918960D02*
X8012063Y-12909436D01*
X8012063Y-12909436D02*
X8002539Y-12890388D01*
X8002539Y-12890388D02*
X7993015Y-12852293D01*
X7993015Y-12852293D02*
X7993015Y-12804674D01*
X7993015Y-12804674D02*
X8002539Y-12766579D01*
X8002539Y-12766579D02*
X8012063Y-12747531D01*
X8012063Y-12747531D02*
X8021586Y-12738008D01*
X8021586Y-12738008D02*
X8040634Y-12728484D01*
X8193015Y-12909436D02*
X8202539Y-12918960D01*
X8202539Y-12918960D02*
X8193015Y-12928484D01*
X8193015Y-12928484D02*
X8183491Y-12918960D01*
X8183491Y-12918960D02*
X8193015Y-12909436D01*
X8193015Y-12909436D02*
X8193015Y-12928484D01*
X8326348Y-12728484D02*
X8345396Y-12728484D01*
X8345396Y-12728484D02*
X8364444Y-12738008D01*
X8364444Y-12738008D02*
X8373967Y-12747531D01*
X8373967Y-12747531D02*
X8383491Y-12766579D01*
X8383491Y-12766579D02*
X8393015Y-12804674D01*
X8393015Y-12804674D02*
X8393015Y-12852293D01*
X8393015Y-12852293D02*
X8383491Y-12890388D01*
X8383491Y-12890388D02*
X8373967Y-12909436D01*
X8373967Y-12909436D02*
X8364444Y-12918960D01*
X8364444Y-12918960D02*
X8345396Y-12928484D01*
X8345396Y-12928484D02*
X8326348Y-12928484D01*
X8326348Y-12928484D02*
X8307301Y-12918960D01*
X8307301Y-12918960D02*
X8297777Y-12909436D01*
X8297777Y-12909436D02*
X8288253Y-12890388D01*
X8288253Y-12890388D02*
X8278729Y-12852293D01*
X8278729Y-12852293D02*
X8278729Y-12804674D01*
X8278729Y-12804674D02*
X8288253Y-12766579D01*
X8288253Y-12766579D02*
X8297777Y-12747531D01*
X8297777Y-12747531D02*
X8307301Y-12738008D01*
X8307301Y-12738008D02*
X8326348Y-12728484D01*
X8583491Y-12928484D02*
X8469206Y-12928484D01*
X8526348Y-12928484D02*
X8526348Y-12728484D01*
X8526348Y-12728484D02*
X8507301Y-12757055D01*
X8507301Y-12757055D02*
X8488253Y-12776103D01*
X8488253Y-12776103D02*
X8469206Y-12785627D01*
X8773968Y-12928484D02*
X8659682Y-12928484D01*
X8716825Y-12928484D02*
X8716825Y-12728484D01*
X8716825Y-12728484D02*
X8697777Y-12757055D01*
X8697777Y-12757055D02*
X8678729Y-12776103D01*
X8678729Y-12776103D02*
X8659682Y-12785627D01*
X8888253Y-12814198D02*
X8869206Y-12804674D01*
X8869206Y-12804674D02*
X8859682Y-12795150D01*
X8859682Y-12795150D02*
X8850158Y-12776103D01*
X8850158Y-12776103D02*
X8850158Y-12766579D01*
X8850158Y-12766579D02*
X8859682Y-12747531D01*
X8859682Y-12747531D02*
X8869206Y-12738008D01*
X8869206Y-12738008D02*
X8888253Y-12728484D01*
X8888253Y-12728484D02*
X8926349Y-12728484D01*
X8926349Y-12728484D02*
X8945396Y-12738008D01*
X8945396Y-12738008D02*
X8954920Y-12747531D01*
X8954920Y-12747531D02*
X8964444Y-12766579D01*
X8964444Y-12766579D02*
X8964444Y-12776103D01*
X8964444Y-12776103D02*
X8954920Y-12795150D01*
X8954920Y-12795150D02*
X8945396Y-12804674D01*
X8945396Y-12804674D02*
X8926349Y-12814198D01*
X8926349Y-12814198D02*
X8888253Y-12814198D01*
X8888253Y-12814198D02*
X8869206Y-12823722D01*
X8869206Y-12823722D02*
X8859682Y-12833246D01*
X8859682Y-12833246D02*
X8850158Y-12852293D01*
X8850158Y-12852293D02*
X8850158Y-12890388D01*
X8850158Y-12890388D02*
X8859682Y-12909436D01*
X8859682Y-12909436D02*
X8869206Y-12918960D01*
X8869206Y-12918960D02*
X8888253Y-12928484D01*
X8888253Y-12928484D02*
X8926349Y-12928484D01*
X8926349Y-12928484D02*
X8945396Y-12918960D01*
X8945396Y-12918960D02*
X8954920Y-12909436D01*
X8954920Y-12909436D02*
X8964444Y-12890388D01*
X8964444Y-12890388D02*
X8964444Y-12852293D01*
X8964444Y-12852293D02*
X8954920Y-12833246D01*
X8954920Y-12833246D02*
X8945396Y-12823722D01*
X8945396Y-12823722D02*
X8926349Y-12814198D01*
X9040634Y-12728484D02*
X9040634Y-12766579D01*
X9116825Y-12728484D02*
X9116825Y-12766579D01*
X9412063Y-13004674D02*
X9402539Y-12995150D01*
X9402539Y-12995150D02*
X9383491Y-12966579D01*
X9383491Y-12966579D02*
X9373968Y-12947531D01*
X9373968Y-12947531D02*
X9364444Y-12918960D01*
X9364444Y-12918960D02*
X9354920Y-12871341D01*
X9354920Y-12871341D02*
X9354920Y-12833246D01*
X9354920Y-12833246D02*
X9364444Y-12785627D01*
X9364444Y-12785627D02*
X9373968Y-12757055D01*
X9373968Y-12757055D02*
X9383491Y-12738008D01*
X9383491Y-12738008D02*
X9402539Y-12709436D01*
X9402539Y-12709436D02*
X9412063Y-12699912D01*
X9478730Y-12747531D02*
X9488253Y-12738008D01*
X9488253Y-12738008D02*
X9507301Y-12728484D01*
X9507301Y-12728484D02*
X9554920Y-12728484D01*
X9554920Y-12728484D02*
X9573968Y-12738008D01*
X9573968Y-12738008D02*
X9583491Y-12747531D01*
X9583491Y-12747531D02*
X9593015Y-12766579D01*
X9593015Y-12766579D02*
X9593015Y-12785627D01*
X9593015Y-12785627D02*
X9583491Y-12814198D01*
X9583491Y-12814198D02*
X9469206Y-12928484D01*
X9469206Y-12928484D02*
X9593015Y-12928484D01*
X9716825Y-12728484D02*
X9735872Y-12728484D01*
X9735872Y-12728484D02*
X9754920Y-12738008D01*
X9754920Y-12738008D02*
X9764444Y-12747531D01*
X9764444Y-12747531D02*
X9773968Y-12766579D01*
X9773968Y-12766579D02*
X9783491Y-12804674D01*
X9783491Y-12804674D02*
X9783491Y-12852293D01*
X9783491Y-12852293D02*
X9773968Y-12890388D01*
X9773968Y-12890388D02*
X9764444Y-12909436D01*
X9764444Y-12909436D02*
X9754920Y-12918960D01*
X9754920Y-12918960D02*
X9735872Y-12928484D01*
X9735872Y-12928484D02*
X9716825Y-12928484D01*
X9716825Y-12928484D02*
X9697777Y-12918960D01*
X9697777Y-12918960D02*
X9688253Y-12909436D01*
X9688253Y-12909436D02*
X9678730Y-12890388D01*
X9678730Y-12890388D02*
X9669206Y-12852293D01*
X9669206Y-12852293D02*
X9669206Y-12804674D01*
X9669206Y-12804674D02*
X9678730Y-12766579D01*
X9678730Y-12766579D02*
X9688253Y-12747531D01*
X9688253Y-12747531D02*
X9697777Y-12738008D01*
X9697777Y-12738008D02*
X9716825Y-12728484D01*
X10021587Y-12928484D02*
X10021587Y-12728484D01*
X10107301Y-12928484D02*
X10107301Y-12823722D01*
X10107301Y-12823722D02*
X10097777Y-12804674D01*
X10097777Y-12804674D02*
X10078730Y-12795150D01*
X10078730Y-12795150D02*
X10050158Y-12795150D01*
X10050158Y-12795150D02*
X10031111Y-12804674D01*
X10031111Y-12804674D02*
X10021587Y-12814198D01*
X10231111Y-12928484D02*
X10212063Y-12918960D01*
X10212063Y-12918960D02*
X10202539Y-12909436D01*
X10202539Y-12909436D02*
X10193015Y-12890388D01*
X10193015Y-12890388D02*
X10193015Y-12833246D01*
X10193015Y-12833246D02*
X10202539Y-12814198D01*
X10202539Y-12814198D02*
X10212063Y-12804674D01*
X10212063Y-12804674D02*
X10231111Y-12795150D01*
X10231111Y-12795150D02*
X10259682Y-12795150D01*
X10259682Y-12795150D02*
X10278730Y-12804674D01*
X10278730Y-12804674D02*
X10288253Y-12814198D01*
X10288253Y-12814198D02*
X10297777Y-12833246D01*
X10297777Y-12833246D02*
X10297777Y-12890388D01*
X10297777Y-12890388D02*
X10288253Y-12909436D01*
X10288253Y-12909436D02*
X10278730Y-12918960D01*
X10278730Y-12918960D02*
X10259682Y-12928484D01*
X10259682Y-12928484D02*
X10231111Y-12928484D01*
X10412063Y-12928484D02*
X10393015Y-12918960D01*
X10393015Y-12918960D02*
X10383492Y-12899912D01*
X10383492Y-12899912D02*
X10383492Y-12728484D01*
X10564444Y-12918960D02*
X10545396Y-12928484D01*
X10545396Y-12928484D02*
X10507301Y-12928484D01*
X10507301Y-12928484D02*
X10488253Y-12918960D01*
X10488253Y-12918960D02*
X10478730Y-12899912D01*
X10478730Y-12899912D02*
X10478730Y-12823722D01*
X10478730Y-12823722D02*
X10488253Y-12804674D01*
X10488253Y-12804674D02*
X10507301Y-12795150D01*
X10507301Y-12795150D02*
X10545396Y-12795150D01*
X10545396Y-12795150D02*
X10564444Y-12804674D01*
X10564444Y-12804674D02*
X10573968Y-12823722D01*
X10573968Y-12823722D02*
X10573968Y-12842769D01*
X10573968Y-12842769D02*
X10478730Y-12861817D01*
X10650158Y-12918960D02*
X10669206Y-12928484D01*
X10669206Y-12928484D02*
X10707301Y-12928484D01*
X10707301Y-12928484D02*
X10726349Y-12918960D01*
X10726349Y-12918960D02*
X10735873Y-12899912D01*
X10735873Y-12899912D02*
X10735873Y-12890388D01*
X10735873Y-12890388D02*
X10726349Y-12871341D01*
X10726349Y-12871341D02*
X10707301Y-12861817D01*
X10707301Y-12861817D02*
X10678730Y-12861817D01*
X10678730Y-12861817D02*
X10659682Y-12852293D01*
X10659682Y-12852293D02*
X10650158Y-12833246D01*
X10650158Y-12833246D02*
X10650158Y-12823722D01*
X10650158Y-12823722D02*
X10659682Y-12804674D01*
X10659682Y-12804674D02*
X10678730Y-12795150D01*
X10678730Y-12795150D02*
X10707301Y-12795150D01*
X10707301Y-12795150D02*
X10726349Y-12804674D01*
X10802539Y-13004674D02*
X10812063Y-12995150D01*
X10812063Y-12995150D02*
X10831111Y-12966579D01*
X10831111Y-12966579D02*
X10840634Y-12947531D01*
X10840634Y-12947531D02*
X10850158Y-12918960D01*
X10850158Y-12918960D02*
X10859682Y-12871341D01*
X10859682Y-12871341D02*
X10859682Y-12833246D01*
X10859682Y-12833246D02*
X10850158Y-12785627D01*
X10850158Y-12785627D02*
X10840634Y-12757055D01*
X10840634Y-12757055D02*
X10831111Y-12738008D01*
X10831111Y-12738008D02*
X10812063Y-12709436D01*
X10812063Y-12709436D02*
X10802539Y-12699912D01*
D13*
X5837000Y-13101000D02*
G75*
G03*
X5837000Y-13101000I-20000J0D01*
G01*
D11*
X6135872Y-12992484D02*
X6154920Y-12992484D01*
X6154920Y-12992484D02*
X6173967Y-13002008D01*
X6173967Y-13002008D02*
X6183491Y-13011531D01*
X6183491Y-13011531D02*
X6193015Y-13030579D01*
X6193015Y-13030579D02*
X6202539Y-13068674D01*
X6202539Y-13068674D02*
X6202539Y-13116293D01*
X6202539Y-13116293D02*
X6193015Y-13154388D01*
X6193015Y-13154388D02*
X6183491Y-13173436D01*
X6183491Y-13173436D02*
X6173967Y-13182960D01*
X6173967Y-13182960D02*
X6154920Y-13192484D01*
X6154920Y-13192484D02*
X6135872Y-13192484D01*
X6135872Y-13192484D02*
X6116824Y-13182960D01*
X6116824Y-13182960D02*
X6107301Y-13173436D01*
X6107301Y-13173436D02*
X6097777Y-13154388D01*
X6097777Y-13154388D02*
X6088253Y-13116293D01*
X6088253Y-13116293D02*
X6088253Y-13068674D01*
X6088253Y-13068674D02*
X6097777Y-13030579D01*
X6097777Y-13030579D02*
X6107301Y-13011531D01*
X6107301Y-13011531D02*
X6116824Y-13002008D01*
X6116824Y-13002008D02*
X6135872Y-12992484D01*
X6288253Y-13173436D02*
X6297777Y-13182960D01*
X6297777Y-13182960D02*
X6288253Y-13192484D01*
X6288253Y-13192484D02*
X6278729Y-13182960D01*
X6278729Y-13182960D02*
X6288253Y-13173436D01*
X6288253Y-13173436D02*
X6288253Y-13192484D01*
X6469205Y-13059150D02*
X6469205Y-13192484D01*
X6421586Y-12982960D02*
X6373967Y-13125817D01*
X6373967Y-13125817D02*
X6497777Y-13125817D01*
X6612062Y-12992484D02*
X6631110Y-12992484D01*
X6631110Y-12992484D02*
X6650158Y-13002008D01*
X6650158Y-13002008D02*
X6659682Y-13011531D01*
X6659682Y-13011531D02*
X6669205Y-13030579D01*
X6669205Y-13030579D02*
X6678729Y-13068674D01*
X6678729Y-13068674D02*
X6678729Y-13116293D01*
X6678729Y-13116293D02*
X6669205Y-13154388D01*
X6669205Y-13154388D02*
X6659682Y-13173436D01*
X6659682Y-13173436D02*
X6650158Y-13182960D01*
X6650158Y-13182960D02*
X6631110Y-13192484D01*
X6631110Y-13192484D02*
X6612062Y-13192484D01*
X6612062Y-13192484D02*
X6593015Y-13182960D01*
X6593015Y-13182960D02*
X6583491Y-13173436D01*
X6583491Y-13173436D02*
X6573967Y-13154388D01*
X6573967Y-13154388D02*
X6564443Y-13116293D01*
X6564443Y-13116293D02*
X6564443Y-13068674D01*
X6564443Y-13068674D02*
X6573967Y-13030579D01*
X6573967Y-13030579D02*
X6583491Y-13011531D01*
X6583491Y-13011531D02*
X6593015Y-13002008D01*
X6593015Y-13002008D02*
X6612062Y-12992484D01*
X6802539Y-12992484D02*
X6821586Y-12992484D01*
X6821586Y-12992484D02*
X6840634Y-13002008D01*
X6840634Y-13002008D02*
X6850158Y-13011531D01*
X6850158Y-13011531D02*
X6859682Y-13030579D01*
X6859682Y-13030579D02*
X6869205Y-13068674D01*
X6869205Y-13068674D02*
X6869205Y-13116293D01*
X6869205Y-13116293D02*
X6859682Y-13154388D01*
X6859682Y-13154388D02*
X6850158Y-13173436D01*
X6850158Y-13173436D02*
X6840634Y-13182960D01*
X6840634Y-13182960D02*
X6821586Y-13192484D01*
X6821586Y-13192484D02*
X6802539Y-13192484D01*
X6802539Y-13192484D02*
X6783491Y-13182960D01*
X6783491Y-13182960D02*
X6773967Y-13173436D01*
X6773967Y-13173436D02*
X6764443Y-13154388D01*
X6764443Y-13154388D02*
X6754920Y-13116293D01*
X6754920Y-13116293D02*
X6754920Y-13068674D01*
X6754920Y-13068674D02*
X6764443Y-13030579D01*
X6764443Y-13030579D02*
X6773967Y-13011531D01*
X6773967Y-13011531D02*
X6783491Y-13002008D01*
X6783491Y-13002008D02*
X6802539Y-12992484D01*
X6954920Y-13192484D02*
X6954920Y-13059150D01*
X6954920Y-13078198D02*
X6964443Y-13068674D01*
X6964443Y-13068674D02*
X6983491Y-13059150D01*
X6983491Y-13059150D02*
X7012063Y-13059150D01*
X7012063Y-13059150D02*
X7031110Y-13068674D01*
X7031110Y-13068674D02*
X7040634Y-13087722D01*
X7040634Y-13087722D02*
X7040634Y-13192484D01*
X7040634Y-13087722D02*
X7050158Y-13068674D01*
X7050158Y-13068674D02*
X7069205Y-13059150D01*
X7069205Y-13059150D02*
X7097777Y-13059150D01*
X7097777Y-13059150D02*
X7116824Y-13068674D01*
X7116824Y-13068674D02*
X7126348Y-13087722D01*
X7126348Y-13087722D02*
X7126348Y-13192484D01*
X7221586Y-13192484D02*
X7221586Y-13059150D01*
X7221586Y-13078198D02*
X7231110Y-13068674D01*
X7231110Y-13068674D02*
X7250158Y-13059150D01*
X7250158Y-13059150D02*
X7278729Y-13059150D01*
X7278729Y-13059150D02*
X7297777Y-13068674D01*
X7297777Y-13068674D02*
X7307301Y-13087722D01*
X7307301Y-13087722D02*
X7307301Y-13192484D01*
X7307301Y-13087722D02*
X7316824Y-13068674D01*
X7316824Y-13068674D02*
X7335872Y-13059150D01*
X7335872Y-13059150D02*
X7364443Y-13059150D01*
X7364443Y-13059150D02*
X7383491Y-13068674D01*
X7383491Y-13068674D02*
X7393015Y-13087722D01*
X7393015Y-13087722D02*
X7393015Y-13192484D01*
X7783491Y-12982960D02*
X7612063Y-13240103D01*
X8040634Y-12992484D02*
X8059682Y-12992484D01*
X8059682Y-12992484D02*
X8078729Y-13002008D01*
X8078729Y-13002008D02*
X8088253Y-13011531D01*
X8088253Y-13011531D02*
X8097777Y-13030579D01*
X8097777Y-13030579D02*
X8107301Y-13068674D01*
X8107301Y-13068674D02*
X8107301Y-13116293D01*
X8107301Y-13116293D02*
X8097777Y-13154388D01*
X8097777Y-13154388D02*
X8088253Y-13173436D01*
X8088253Y-13173436D02*
X8078729Y-13182960D01*
X8078729Y-13182960D02*
X8059682Y-13192484D01*
X8059682Y-13192484D02*
X8040634Y-13192484D01*
X8040634Y-13192484D02*
X8021586Y-13182960D01*
X8021586Y-13182960D02*
X8012063Y-13173436D01*
X8012063Y-13173436D02*
X8002539Y-13154388D01*
X8002539Y-13154388D02*
X7993015Y-13116293D01*
X7993015Y-13116293D02*
X7993015Y-13068674D01*
X7993015Y-13068674D02*
X8002539Y-13030579D01*
X8002539Y-13030579D02*
X8012063Y-13011531D01*
X8012063Y-13011531D02*
X8021586Y-13002008D01*
X8021586Y-13002008D02*
X8040634Y-12992484D01*
X8193015Y-13173436D02*
X8202539Y-13182960D01*
X8202539Y-13182960D02*
X8193015Y-13192484D01*
X8193015Y-13192484D02*
X8183491Y-13182960D01*
X8183491Y-13182960D02*
X8193015Y-13173436D01*
X8193015Y-13173436D02*
X8193015Y-13192484D01*
X8326348Y-12992484D02*
X8345396Y-12992484D01*
X8345396Y-12992484D02*
X8364444Y-13002008D01*
X8364444Y-13002008D02*
X8373967Y-13011531D01*
X8373967Y-13011531D02*
X8383491Y-13030579D01*
X8383491Y-13030579D02*
X8393015Y-13068674D01*
X8393015Y-13068674D02*
X8393015Y-13116293D01*
X8393015Y-13116293D02*
X8383491Y-13154388D01*
X8383491Y-13154388D02*
X8373967Y-13173436D01*
X8373967Y-13173436D02*
X8364444Y-13182960D01*
X8364444Y-13182960D02*
X8345396Y-13192484D01*
X8345396Y-13192484D02*
X8326348Y-13192484D01*
X8326348Y-13192484D02*
X8307301Y-13182960D01*
X8307301Y-13182960D02*
X8297777Y-13173436D01*
X8297777Y-13173436D02*
X8288253Y-13154388D01*
X8288253Y-13154388D02*
X8278729Y-13116293D01*
X8278729Y-13116293D02*
X8278729Y-13068674D01*
X8278729Y-13068674D02*
X8288253Y-13030579D01*
X8288253Y-13030579D02*
X8297777Y-13011531D01*
X8297777Y-13011531D02*
X8307301Y-13002008D01*
X8307301Y-13002008D02*
X8326348Y-12992484D01*
X8583491Y-13192484D02*
X8469206Y-13192484D01*
X8526348Y-13192484D02*
X8526348Y-12992484D01*
X8526348Y-12992484D02*
X8507301Y-13021055D01*
X8507301Y-13021055D02*
X8488253Y-13040103D01*
X8488253Y-13040103D02*
X8469206Y-13049627D01*
X8764444Y-12992484D02*
X8669206Y-12992484D01*
X8669206Y-12992484D02*
X8659682Y-13087722D01*
X8659682Y-13087722D02*
X8669206Y-13078198D01*
X8669206Y-13078198D02*
X8688253Y-13068674D01*
X8688253Y-13068674D02*
X8735872Y-13068674D01*
X8735872Y-13068674D02*
X8754920Y-13078198D01*
X8754920Y-13078198D02*
X8764444Y-13087722D01*
X8764444Y-13087722D02*
X8773968Y-13106769D01*
X8773968Y-13106769D02*
X8773968Y-13154388D01*
X8773968Y-13154388D02*
X8764444Y-13173436D01*
X8764444Y-13173436D02*
X8754920Y-13182960D01*
X8754920Y-13182960D02*
X8735872Y-13192484D01*
X8735872Y-13192484D02*
X8688253Y-13192484D01*
X8688253Y-13192484D02*
X8669206Y-13182960D01*
X8669206Y-13182960D02*
X8659682Y-13173436D01*
X8840634Y-12992484D02*
X8973968Y-12992484D01*
X8973968Y-12992484D02*
X8888253Y-13192484D01*
X9040634Y-12992484D02*
X9040634Y-13030579D01*
X9116825Y-12992484D02*
X9116825Y-13030579D01*
X9412063Y-13268674D02*
X9402539Y-13259150D01*
X9402539Y-13259150D02*
X9383491Y-13230579D01*
X9383491Y-13230579D02*
X9373968Y-13211531D01*
X9373968Y-13211531D02*
X9364444Y-13182960D01*
X9364444Y-13182960D02*
X9354920Y-13135341D01*
X9354920Y-13135341D02*
X9354920Y-13097246D01*
X9354920Y-13097246D02*
X9364444Y-13049627D01*
X9364444Y-13049627D02*
X9373968Y-13021055D01*
X9373968Y-13021055D02*
X9383491Y-13002008D01*
X9383491Y-13002008D02*
X9402539Y-12973436D01*
X9402539Y-12973436D02*
X9412063Y-12963912D01*
X9593015Y-13192484D02*
X9478730Y-13192484D01*
X9535872Y-13192484D02*
X9535872Y-12992484D01*
X9535872Y-12992484D02*
X9516825Y-13021055D01*
X9516825Y-13021055D02*
X9497777Y-13040103D01*
X9497777Y-13040103D02*
X9478730Y-13049627D01*
X9764444Y-13059150D02*
X9764444Y-13192484D01*
X9716825Y-12982960D02*
X9669206Y-13125817D01*
X9669206Y-13125817D02*
X9793015Y-13125817D01*
X10021587Y-13192484D02*
X10021587Y-12992484D01*
X10107301Y-13192484D02*
X10107301Y-13087722D01*
X10107301Y-13087722D02*
X10097777Y-13068674D01*
X10097777Y-13068674D02*
X10078730Y-13059150D01*
X10078730Y-13059150D02*
X10050158Y-13059150D01*
X10050158Y-13059150D02*
X10031111Y-13068674D01*
X10031111Y-13068674D02*
X10021587Y-13078198D01*
X10231111Y-13192484D02*
X10212063Y-13182960D01*
X10212063Y-13182960D02*
X10202539Y-13173436D01*
X10202539Y-13173436D02*
X10193015Y-13154388D01*
X10193015Y-13154388D02*
X10193015Y-13097246D01*
X10193015Y-13097246D02*
X10202539Y-13078198D01*
X10202539Y-13078198D02*
X10212063Y-13068674D01*
X10212063Y-13068674D02*
X10231111Y-13059150D01*
X10231111Y-13059150D02*
X10259682Y-13059150D01*
X10259682Y-13059150D02*
X10278730Y-13068674D01*
X10278730Y-13068674D02*
X10288253Y-13078198D01*
X10288253Y-13078198D02*
X10297777Y-13097246D01*
X10297777Y-13097246D02*
X10297777Y-13154388D01*
X10297777Y-13154388D02*
X10288253Y-13173436D01*
X10288253Y-13173436D02*
X10278730Y-13182960D01*
X10278730Y-13182960D02*
X10259682Y-13192484D01*
X10259682Y-13192484D02*
X10231111Y-13192484D01*
X10412063Y-13192484D02*
X10393015Y-13182960D01*
X10393015Y-13182960D02*
X10383492Y-13163912D01*
X10383492Y-13163912D02*
X10383492Y-12992484D01*
X10564444Y-13182960D02*
X10545396Y-13192484D01*
X10545396Y-13192484D02*
X10507301Y-13192484D01*
X10507301Y-13192484D02*
X10488253Y-13182960D01*
X10488253Y-13182960D02*
X10478730Y-13163912D01*
X10478730Y-13163912D02*
X10478730Y-13087722D01*
X10478730Y-13087722D02*
X10488253Y-13068674D01*
X10488253Y-13068674D02*
X10507301Y-13059150D01*
X10507301Y-13059150D02*
X10545396Y-13059150D01*
X10545396Y-13059150D02*
X10564444Y-13068674D01*
X10564444Y-13068674D02*
X10573968Y-13087722D01*
X10573968Y-13087722D02*
X10573968Y-13106769D01*
X10573968Y-13106769D02*
X10478730Y-13125817D01*
X10650158Y-13182960D02*
X10669206Y-13192484D01*
X10669206Y-13192484D02*
X10707301Y-13192484D01*
X10707301Y-13192484D02*
X10726349Y-13182960D01*
X10726349Y-13182960D02*
X10735873Y-13163912D01*
X10735873Y-13163912D02*
X10735873Y-13154388D01*
X10735873Y-13154388D02*
X10726349Y-13135341D01*
X10726349Y-13135341D02*
X10707301Y-13125817D01*
X10707301Y-13125817D02*
X10678730Y-13125817D01*
X10678730Y-13125817D02*
X10659682Y-13116293D01*
X10659682Y-13116293D02*
X10650158Y-13097246D01*
X10650158Y-13097246D02*
X10650158Y-13087722D01*
X10650158Y-13087722D02*
X10659682Y-13068674D01*
X10659682Y-13068674D02*
X10678730Y-13059150D01*
X10678730Y-13059150D02*
X10707301Y-13059150D01*
X10707301Y-13059150D02*
X10726349Y-13068674D01*
X10802539Y-13268674D02*
X10812063Y-13259150D01*
X10812063Y-13259150D02*
X10831111Y-13230579D01*
X10831111Y-13230579D02*
X10840634Y-13211531D01*
X10840634Y-13211531D02*
X10850158Y-13182960D01*
X10850158Y-13182960D02*
X10859682Y-13135341D01*
X10859682Y-13135341D02*
X10859682Y-13097246D01*
X10859682Y-13097246D02*
X10850158Y-13049627D01*
X10850158Y-13049627D02*
X10840634Y-13021055D01*
X10840634Y-13021055D02*
X10831111Y-13002008D01*
X10831111Y-13002008D02*
X10812063Y-12973436D01*
X10812063Y-12973436D02*
X10802539Y-12963912D01*
M02*
