%TF.GenerationSoftware,KiCad,Pcbnew,7.0.7*%
%TF.CreationDate,2024-06-01T18:58:37-04:00*%
%TF.ProjectId,Payload,5061796c-6f61-4642-9e6b-696361645f70,rev?*%
%TF.SameCoordinates,Original*%
%TF.FileFunction,Copper,L4,Bot*%
%TF.FilePolarity,Positive*%
%FSLAX46Y46*%
G04 Gerber Fmt 4.6, Leading zero omitted, Abs format (unit mm)*
G04 Created by KiCad (PCBNEW 7.0.7) date 2024-06-01 18:58:37*
%MOMM*%
%LPD*%
G01*
G04 APERTURE LIST*
%TA.AperFunction,ComponentPad*%
%ADD10C,5.000000*%
%TD*%
%TA.AperFunction,ComponentPad*%
%ADD11R,1.508000X1.508000*%
%TD*%
%TA.AperFunction,ComponentPad*%
%ADD12C,1.508000*%
%TD*%
%TA.AperFunction,ComponentPad*%
%ADD13C,1.295400*%
%TD*%
%TA.AperFunction,ComponentPad*%
%ADD14C,3.396000*%
%TD*%
%TA.AperFunction,ComponentPad*%
%ADD15C,1.524000*%
%TD*%
%TA.AperFunction,ComponentPad*%
%ADD16C,2.500000*%
%TD*%
%TA.AperFunction,ComponentPad*%
%ADD17R,1.800000X1.800000*%
%TD*%
%TA.AperFunction,ComponentPad*%
%ADD18C,1.800000*%
%TD*%
%TA.AperFunction,ViaPad*%
%ADD19C,0.700000*%
%TD*%
%TA.AperFunction,ViaPad*%
%ADD20C,0.800000*%
%TD*%
%TA.AperFunction,Conductor*%
%ADD21C,0.300000*%
%TD*%
%TA.AperFunction,Conductor*%
%ADD22C,0.400000*%
%TD*%
%TA.AperFunction,Conductor*%
%ADD23C,0.500000*%
%TD*%
G04 APERTURE END LIST*
D10*
%TO.P,H6,1,1*%
%TO.N,GND*%
X99314000Y-65278000D03*
%TD*%
D11*
%TO.P,SW1,1,1*%
%TO.N,Net-(U1A-PD2)*%
X157024000Y-109002000D03*
D12*
%TO.P,SW1,2*%
%TO.N,N/C*%
X163524000Y-109002000D03*
%TO.P,SW1,3*%
X157024000Y-113502000D03*
%TO.P,SW1,4,4*%
%TO.N,+3.3V*%
X163524000Y-113502000D03*
%TD*%
D13*
%TO.P,RV1,3,3*%
%TO.N,Net-(U2-RGA)*%
X76454000Y-44005500D03*
%TO.P,RV1,2,2*%
%TO.N,Net-(U2-VOUTA)*%
X78994000Y-44005500D03*
%TO.P,RV1,1,1*%
X81534000Y-44005500D03*
%TD*%
D10*
%TO.P,H4,1,1*%
%TO.N,GND*%
X170180000Y-116949000D03*
%TD*%
%TO.P,H8,1,1*%
%TO.N,GND*%
X63271400Y-91701400D03*
%TD*%
D11*
%TO.P,J1,1,VCC*%
%TO.N,Vusb*%
X115880000Y-108484000D03*
D12*
%TO.P,J1,2,D-*%
%TO.N,USB_D-*%
X118380000Y-108484000D03*
%TO.P,J1,3,D+*%
%TO.N,USB_D+*%
X120380000Y-108484000D03*
%TO.P,J1,4,GND*%
%TO.N,GND*%
X122880000Y-108484000D03*
D14*
%TO.P,J1,S1,SHIELD*%
X112810000Y-111194000D03*
%TO.P,J1,S2,SHIELD__1*%
X125950000Y-111194000D03*
%TD*%
D13*
%TO.P,RV7,1,1*%
%TO.N,Net-(U6-VOUTB)*%
X108458000Y-71882000D03*
%TO.P,RV7,2,2*%
X105918000Y-71882000D03*
%TO.P,RV7,3,3*%
%TO.N,Net-(U6-RGB)*%
X103378000Y-71882000D03*
%TD*%
D15*
%TO.P,U14,1,1*%
%TO.N,SG1_2*%
X82550000Y-72898000D03*
%TO.P,U14,2,2*%
%TO.N,SG3_4*%
X82550000Y-75438000D03*
%TO.P,U14,3,3*%
%TO.N,SG5_6*%
X82550000Y-77978000D03*
%TO.P,U14,4,4*%
%TO.N,Therm1*%
X82550000Y-80518000D03*
%TO.P,U14,5,5*%
%TO.N,Therm2*%
X82550000Y-83058000D03*
%TO.P,U14,6,6*%
%TO.N,Vibro1*%
X82550000Y-85598000D03*
%TO.P,U14,7,7*%
%TO.N,GND*%
X80010000Y-72898000D03*
%TO.P,U14,8,8*%
X80010000Y-75438000D03*
%TO.P,U14,9,9*%
X80010000Y-77978000D03*
%TO.P,U14,10,10*%
X80010000Y-80518000D03*
%TO.P,U14,11,11*%
X80010000Y-83058000D03*
%TO.P,U14,12,12*%
X80010000Y-85598000D03*
%TD*%
D10*
%TO.P,H3,1,1*%
%TO.N,GND*%
X170180000Y-43180000D03*
%TD*%
D13*
%TO.P,RV5,1,1*%
%TO.N,Net-(U6-VOUTA)*%
X101854000Y-43497500D03*
%TO.P,RV5,2,2*%
X99314000Y-43497500D03*
%TO.P,RV5,3,3*%
%TO.N,Net-(U6-RGA)*%
X96774000Y-43497500D03*
%TD*%
D15*
%TO.P,Buzzer1,0,GND_(-)*%
%TO.N,GND*%
X167019874Y-81748000D03*
%TO.P,Buzzer1,1,Vcc_3V_(+)*%
%TO.N,Buzz_on*%
X167019874Y-76748000D03*
%TD*%
D13*
%TO.P,RV4,3,3*%
%TO.N,Net-(U2-RGB)*%
X79820000Y-63423500D03*
%TO.P,RV4,2,2*%
%TO.N,Net-(U2-VOUTB)*%
X82360000Y-63423500D03*
%TO.P,RV4,1,1*%
X84900000Y-63423500D03*
%TD*%
D10*
%TO.P,H1,1,1*%
%TO.N,GND*%
X63500000Y-43035000D03*
%TD*%
D13*
%TO.P,RV6,1,1*%
%TO.N,SG3_4*%
X67564000Y-52832000D03*
%TO.P,RV6,2,2*%
X65024000Y-52832000D03*
%TO.P,RV6,3,3*%
%TO.N,+3.3V*%
X62484000Y-52832000D03*
%TD*%
%TO.P,RV8,1,1*%
%TO.N,SG5_6*%
X89662000Y-76962000D03*
%TO.P,RV8,2,2*%
X92202000Y-76962000D03*
%TO.P,RV8,3,3*%
%TO.N,+3.3V*%
X94742000Y-76962000D03*
%TD*%
%TO.P,RV3,1,1*%
%TO.N,SG1_2*%
X67564000Y-58928000D03*
%TO.P,RV3,2,2*%
X65024000Y-58928000D03*
%TO.P,RV3,3,3*%
%TO.N,+3.3V*%
X62484000Y-58928000D03*
%TD*%
D16*
%TO.P,bornier1,1,1*%
%TO.N,GND*%
X63222000Y-101378000D03*
%TO.P,bornier1,2,2*%
%TO.N,Net-(F1-Pad1)*%
X63222000Y-105378000D03*
%TD*%
D10*
%TO.P,H2,1,1*%
%TO.N,GND*%
X63500000Y-116840000D03*
%TD*%
D12*
%TO.P,S1,1*%
%TO.N,Net-(VR1-OUTPUT)*%
X80558000Y-116840000D03*
%TO.P,S1,2*%
%TO.N,+3.3V*%
X83058000Y-116840000D03*
%TO.P,S1,3*%
%TO.N,Net-(U9-VOUT)*%
X85558000Y-116840000D03*
%TD*%
D10*
%TO.P,H5,1,1*%
%TO.N,GND*%
X63246000Y-65786000D03*
%TD*%
D13*
%TO.P,RV2,3,3*%
%TO.N,ADC123_INP10-Vibro2*%
X84391500Y-97028000D03*
%TO.P,RV2,2,2*%
X84391500Y-94488000D03*
%TO.P,RV2,1,1*%
%TO.N,Net-(U3-NEGA)*%
X84391500Y-91948000D03*
%TD*%
D11*
%TO.P,SW2,1,1*%
%TO.N,Net-(U1A-PD6)*%
X157024000Y-93762000D03*
D12*
%TO.P,SW2,2*%
%TO.N,N/C*%
X163524000Y-93762000D03*
%TO.P,SW2,3*%
X157024000Y-98262000D03*
%TO.P,SW2,4,4*%
%TO.N,+3.3V*%
X163524000Y-98262000D03*
%TD*%
D15*
%TO.P,Programming_pins1,1,Pin_1*%
%TO.N,SWDIO*%
X148501100Y-109258100D03*
%TO.P,Programming_pins1,2,Pin_2*%
%TO.N,SWCLK*%
X145961100Y-109258100D03*
%TO.P,Programming_pins1,3,Pin_3*%
%TO.N,SWO*%
X143421100Y-109258100D03*
%TO.P,Programming_pins1,4,Pin_4*%
%TO.N,GND*%
X140881100Y-109258100D03*
%TO.P,Programming_pins1,5,Pin_5*%
%TO.N,+3.3V*%
X138341100Y-109258100D03*
%TD*%
D17*
%TO.P,D2,1,-*%
%TO.N,Net-(D2--)*%
X85852000Y-106426000D03*
D18*
%TO.P,D2,2,+*%
%TO.N,+3.3V*%
X85852000Y-111506000D03*
%TD*%
D10*
%TO.P,H7,1,1*%
%TO.N,GND*%
X135890000Y-117348000D03*
%TD*%
D19*
%TO.N,/circuits_capteurs/Suiveur*%
X89865200Y-51079400D03*
X116433600Y-67030600D03*
X98120200Y-59461400D03*
X101574600Y-62890400D03*
D20*
%TO.N,+1V8*%
X123063000Y-95656400D03*
X101752400Y-78028800D03*
%TO.N,/circuits_capteurs/Suiveur1*%
X118262400Y-59766200D03*
X91795600Y-58775600D03*
%TO.N,ADC1_INP16-Therm2*%
X116001800Y-78892400D03*
X126161800Y-70408800D03*
%TO.N,USB_D-*%
X144449800Y-89154000D03*
X118364000Y-106019600D03*
%TO.N,USB_D+*%
X145948400Y-89179400D03*
X120370600Y-105994200D03*
%TO.N,SWCLK*%
X148437600Y-89408000D03*
%TO.N,SWO*%
X149326600Y-78765400D03*
%TO.N,Net-(U1A-PC0)*%
X134848600Y-71475600D03*
X115671600Y-77114400D03*
%TO.N,Net-(U1A-PA2)*%
X131851400Y-72440800D03*
X127990600Y-70434200D03*
%TO.N,Net-(U1A-PA3)*%
X131876800Y-74371200D03*
X124612400Y-64008000D03*
%TO.N,ADC12_INP18-SG5.6*%
X119761000Y-67919600D03*
X115874800Y-57073800D03*
%TO.N,SCK*%
X128905000Y-91821000D03*
X130657600Y-91744800D03*
%TO.N,MOSI*%
X132486400Y-92837000D03*
X127812800Y-93522800D03*
D19*
%TO.N,/circuits_capteurs/IN-*%
X92583000Y-57150000D03*
X76022200Y-55143400D03*
D20*
%TO.N,Net-(U6-RGB)*%
X94462600Y-62077600D03*
%TO.N,USB_check*%
X97231200Y-114096800D03*
X143357600Y-93878400D03*
%TO.N,QUADSPI_BK1_IO3*%
X156083000Y-67589400D03*
X141681200Y-73685400D03*
%TO.N,QUADSPI_BK1_IO2*%
X138023600Y-71602600D03*
X158623000Y-66446400D03*
%TO.N,QUADSPI_BK1_IO0*%
X139395200Y-67564000D03*
X148717000Y-63779400D03*
%TO.N,QUADSPI_BK1_IO1*%
X138328400Y-66675000D03*
X138328400Y-63627000D03*
%TO.N,QUADSPI_CLK*%
X120192800Y-79883000D03*
X136575800Y-71602600D03*
%TO.N,QUADSPI_BK2_IO0*%
X131267200Y-81076800D03*
X122174000Y-81432400D03*
%TO.N,QUADSPI_BK2_IO1*%
X131267200Y-82270600D03*
X119151400Y-85267800D03*
%TO.N,QUADSPI_BK2_IO2*%
X120167400Y-86461600D03*
X131343400Y-83667600D03*
%TO.N,InteruptionMPU*%
X123901200Y-98704400D03*
X131597400Y-86766400D03*
%TO.N,MISO*%
X121793000Y-96672400D03*
X131953000Y-89001600D03*
%TO.N,QUADSPI_BK2_NCS*%
X145897600Y-86004400D03*
X116306600Y-87452200D03*
%TO.N,Therm1*%
X103759000Y-96647000D03*
X86461600Y-80721200D03*
%TO.N,Therm2*%
X86385400Y-83108800D03*
X103809800Y-97917000D03*
%TO.N,SG1_2*%
X69011800Y-57200800D03*
X71653400Y-54552500D03*
%TD*%
D21*
%TO.N,Net-(U1A-PC0)*%
X134848600Y-74142600D02*
X134848600Y-71475600D01*
X130606800Y-78384400D02*
X134848600Y-74142600D01*
X115691139Y-79642400D02*
X119341200Y-79642400D01*
X115251800Y-79203061D02*
X115691139Y-79642400D01*
X120599200Y-78384400D02*
X130606800Y-78384400D01*
X115251800Y-78542661D02*
X115251800Y-79203061D01*
X115671600Y-78122861D02*
X115251800Y-78542661D01*
X115671600Y-77114400D02*
X115671600Y-78122861D01*
X119341200Y-79642400D02*
X120599200Y-78384400D01*
%TO.N,QUADSPI_CLK*%
X130530600Y-79883000D02*
X120192800Y-79883000D01*
X136575800Y-71602600D02*
X136575800Y-73837800D01*
X136575800Y-73837800D02*
X130530600Y-79883000D01*
D22*
%TO.N,/circuits_capteurs/Suiveur*%
X105740200Y-67030600D02*
X116433600Y-67030600D01*
X101574600Y-62890400D02*
X101600000Y-62890400D01*
X101600000Y-62890400D02*
X105740200Y-67030600D01*
X89865200Y-51079400D02*
X98120200Y-59334400D01*
X89865200Y-51079400D02*
X89865200Y-51155600D01*
X98120200Y-59334400D02*
X98120200Y-59461400D01*
%TO.N,+1V8*%
X119380000Y-95656400D02*
X101752400Y-78028800D01*
X123063000Y-95656400D02*
X119380000Y-95656400D01*
%TO.N,/circuits_capteurs/Suiveur1*%
X117817200Y-60211400D02*
X93231400Y-60211400D01*
X118262400Y-59766200D02*
X117817200Y-60211400D01*
X93231400Y-60211400D02*
X91795600Y-58775600D01*
%TO.N,ADC1_INP16-Therm2*%
X116001800Y-78892400D02*
X124485400Y-70408800D01*
X124485400Y-70408800D02*
X126161800Y-70408800D01*
D23*
%TO.N,USB_D-*%
X128459600Y-105144200D02*
X144449800Y-89154000D01*
X118364000Y-106019600D02*
X119239400Y-105144200D01*
X119239400Y-105144200D02*
X128459600Y-105144200D01*
%TO.N,USB_D+*%
X129133600Y-105994200D02*
X145948400Y-89179400D01*
X120370600Y-105994200D02*
X129133600Y-105994200D01*
%TO.N,SWCLK*%
X148437600Y-89408000D02*
X148412200Y-89382600D01*
X148412200Y-106807000D02*
X148412200Y-89433400D01*
X148412200Y-89382600D02*
X148412200Y-89281000D01*
X148412200Y-89433400D02*
X148437600Y-89408000D01*
X145961100Y-109258100D02*
X148412200Y-106807000D01*
%TO.N,SWO*%
X143421100Y-109258100D02*
X143421100Y-99128338D01*
X143421100Y-99128338D02*
X144207600Y-98341838D01*
X144207600Y-93841200D02*
X146913600Y-91135200D01*
X146913600Y-91135200D02*
X146913600Y-81178400D01*
X146913600Y-81178400D02*
X149326600Y-78765400D01*
X144207600Y-98341838D02*
X144207600Y-93841200D01*
D21*
%TO.N,Net-(U1A-PA2)*%
X129844800Y-70434200D02*
X131851400Y-72440800D01*
X127990600Y-70434200D02*
X129844800Y-70434200D01*
%TO.N,Net-(U1A-PA3)*%
X126911800Y-70416061D02*
X130866939Y-74371200D01*
X130866939Y-74371200D02*
X131876800Y-74371200D01*
X126911800Y-66307400D02*
X126911800Y-70416061D01*
X124612400Y-64008000D02*
X126911800Y-66307400D01*
D22*
%TO.N,ADC12_INP18-SG5.6*%
X116701371Y-57073800D02*
X115874800Y-57073800D01*
X119761000Y-67919600D02*
X119761000Y-60133429D01*
X119761000Y-60133429D02*
X116701371Y-57073800D01*
D21*
%TO.N,SCK*%
X128981200Y-91744800D02*
X128905000Y-91821000D01*
D22*
X130657600Y-91744800D02*
X128981200Y-91744800D01*
%TO.N,MOSI*%
X132486400Y-92837000D02*
X128498600Y-92837000D01*
X128498600Y-92837000D02*
X127812800Y-93522800D01*
D23*
%TO.N,/circuits_capteurs/IN-*%
X78028800Y-57150000D02*
X76022200Y-55143400D01*
X92583000Y-57150000D02*
X78028800Y-57150000D01*
D22*
%TO.N,Net-(U6-RGB)*%
X100050600Y-71882000D02*
X103378000Y-71882000D01*
X94462600Y-66294000D02*
X100050600Y-71882000D01*
X94462600Y-62077600D02*
X94462600Y-66294000D01*
%TO.N,USB_check*%
X143357600Y-98272600D02*
X127533400Y-114096800D01*
X143357600Y-93878400D02*
X143357600Y-98272600D01*
X127533400Y-114096800D02*
X97231200Y-114096800D01*
%TO.N,QUADSPI_BK1_IO3*%
X156083000Y-67589400D02*
X149987000Y-73685400D01*
X149987000Y-73685400D02*
X141681200Y-73685400D01*
%TO.N,QUADSPI_BK1_IO2*%
X143179800Y-66446400D02*
X138023600Y-71602600D01*
X158623000Y-66446400D02*
X143179800Y-66446400D01*
D23*
%TO.N,QUADSPI_BK1_IO0*%
X139395200Y-67564000D02*
X143154400Y-63804800D01*
X143154400Y-63804800D02*
X148691600Y-63804800D01*
X148691600Y-63804800D02*
X148717000Y-63779400D01*
%TO.N,QUADSPI_BK1_IO1*%
X138328400Y-63627000D02*
X138328400Y-66675000D01*
D21*
%TO.N,QUADSPI_BK2_IO0*%
X130911600Y-81432400D02*
X122174000Y-81432400D01*
X131267200Y-81076800D02*
X130911600Y-81432400D01*
%TO.N,QUADSPI_BK2_IO1*%
X131267200Y-82296000D02*
X128295400Y-85267800D01*
X128295400Y-85267800D02*
X119151400Y-85267800D01*
X131267200Y-82270600D02*
X131267200Y-82296000D01*
%TO.N,QUADSPI_BK2_IO2*%
X131343400Y-83667600D02*
X128549400Y-86461600D01*
X128549400Y-86461600D02*
X120167400Y-86461600D01*
D22*
%TO.N,InteruptionMPU*%
X134366000Y-93522800D02*
X134366000Y-89535000D01*
X129184400Y-98704400D02*
X134366000Y-93522800D01*
X134366000Y-89535000D02*
X131597400Y-86766400D01*
X123901200Y-98704400D02*
X129184400Y-98704400D01*
%TO.N,MISO*%
X123178371Y-96672400D02*
X123863000Y-95987771D01*
X123863000Y-95987771D02*
X123863000Y-94856400D01*
X123863000Y-94856400D02*
X129717800Y-89001600D01*
X129717800Y-89001600D02*
X131953000Y-89001600D01*
X121793000Y-96672400D02*
X123178371Y-96672400D01*
D21*
%TO.N,QUADSPI_BK2_NCS*%
X145897600Y-86004400D02*
X145885600Y-86016400D01*
X145885600Y-86016400D02*
X131286739Y-86016400D01*
X131286739Y-86016400D02*
X129952539Y-87350600D01*
X116408200Y-87350600D02*
X116306600Y-87452200D01*
X129952539Y-87350600D02*
X116408200Y-87350600D01*
D22*
%TO.N,Therm1*%
X103759000Y-95072200D02*
X89408000Y-80721200D01*
X89408000Y-80721200D02*
X86461600Y-80721200D01*
X103759000Y-96647000D02*
X103759000Y-95072200D01*
%TO.N,Therm2*%
X101193600Y-97917000D02*
X86385400Y-83108800D01*
X103809800Y-97917000D02*
X101193600Y-97917000D01*
%TO.N,SG1_2*%
X69037200Y-57200800D02*
X69011800Y-57200800D01*
X71653400Y-54552500D02*
X71653400Y-54584600D01*
X71653400Y-54584600D02*
X69037200Y-57200800D01*
%TD*%
M02*
