%TF.GenerationSoftware,KiCad,Pcbnew,7.0.7*%
%TF.CreationDate,2024-06-02T12:30:49-04:00*%
%TF.ProjectId,Payload,5061796c-6f61-4642-9e6b-696361645f70,rev?*%
%TF.SameCoordinates,Original*%
%TF.FileFunction,Copper,L1,Top*%
%TF.FilePolarity,Positive*%
%FSLAX46Y46*%
G04 Gerber Fmt 4.6, Leading zero omitted, Abs format (unit mm)*
G04 Created by KiCad (PCBNEW 7.0.7) date 2024-06-02 12:30:49*
%MOMM*%
%LPD*%
G01*
G04 APERTURE LIST*
G04 Aperture macros list*
%AMRoundRect*
0 Rectangle with rounded corners*
0 $1 Rounding radius*
0 $2 $3 $4 $5 $6 $7 $8 $9 X,Y pos of 4 corners*
0 Add a 4 corners polygon primitive as box body*
4,1,4,$2,$3,$4,$5,$6,$7,$8,$9,$2,$3,0*
0 Add four circle primitives for the rounded corners*
1,1,$1+$1,$2,$3*
1,1,$1+$1,$4,$5*
1,1,$1+$1,$6,$7*
1,1,$1+$1,$8,$9*
0 Add four rect primitives between the rounded corners*
20,1,$1+$1,$2,$3,$4,$5,0*
20,1,$1+$1,$4,$5,$6,$7,0*
20,1,$1+$1,$6,$7,$8,$9,0*
20,1,$1+$1,$8,$9,$2,$3,0*%
%AMOutline5P*
0 Free polygon, 5 corners , with rotation*
0 The origin of the aperture is its center*
0 number of corners: always 5*
0 $1 to $10 corner X, Y*
0 $11 Rotation angle, in degrees counterclockwise*
0 create outline with 5 corners*
4,1,5,$1,$2,$3,$4,$5,$6,$7,$8,$9,$10,$1,$2,$11*%
%AMOutline6P*
0 Free polygon, 6 corners , with rotation*
0 The origin of the aperture is its center*
0 number of corners: always 6*
0 $1 to $12 corner X, Y*
0 $13 Rotation angle, in degrees counterclockwise*
0 create outline with 6 corners*
4,1,6,$1,$2,$3,$4,$5,$6,$7,$8,$9,$10,$11,$12,$1,$2,$13*%
%AMOutline7P*
0 Free polygon, 7 corners , with rotation*
0 The origin of the aperture is its center*
0 number of corners: always 7*
0 $1 to $14 corner X, Y*
0 $15 Rotation angle, in degrees counterclockwise*
0 create outline with 7 corners*
4,1,7,$1,$2,$3,$4,$5,$6,$7,$8,$9,$10,$11,$12,$13,$14,$1,$2,$15*%
%AMOutline8P*
0 Free polygon, 8 corners , with rotation*
0 The origin of the aperture is its center*
0 number of corners: always 8*
0 $1 to $16 corner X, Y*
0 $17 Rotation angle, in degrees counterclockwise*
0 create outline with 8 corners*
4,1,8,$1,$2,$3,$4,$5,$6,$7,$8,$9,$10,$11,$12,$13,$14,$15,$16,$1,$2,$17*%
G04 Aperture macros list end*
%TA.AperFunction,SMDPad,CuDef*%
%ADD10RoundRect,0.237500X-0.300000X-0.237500X0.300000X-0.237500X0.300000X0.237500X-0.300000X0.237500X0*%
%TD*%
%TA.AperFunction,ComponentPad*%
%ADD11C,5.000000*%
%TD*%
%TA.AperFunction,ComponentPad*%
%ADD12R,1.508000X1.508000*%
%TD*%
%TA.AperFunction,ComponentPad*%
%ADD13C,1.508000*%
%TD*%
%TA.AperFunction,SMDPad,CuDef*%
%ADD14RoundRect,0.200000X-0.200000X-0.275000X0.200000X-0.275000X0.200000X0.275000X-0.200000X0.275000X0*%
%TD*%
%TA.AperFunction,SMDPad,CuDef*%
%ADD15RoundRect,0.237500X0.237500X-0.300000X0.237500X0.300000X-0.237500X0.300000X-0.237500X-0.300000X0*%
%TD*%
%TA.AperFunction,SMDPad,CuDef*%
%ADD16RoundRect,0.237500X0.237500X-0.287500X0.237500X0.287500X-0.237500X0.287500X-0.237500X-0.287500X0*%
%TD*%
%TA.AperFunction,SMDPad,CuDef*%
%ADD17RoundRect,0.200000X0.275000X-0.200000X0.275000X0.200000X-0.275000X0.200000X-0.275000X-0.200000X0*%
%TD*%
%TA.AperFunction,ComponentPad*%
%ADD18C,1.295400*%
%TD*%
%TA.AperFunction,SMDPad,CuDef*%
%ADD19RoundRect,0.060000X-0.180000X0.675000X-0.180000X-0.675000X0.180000X-0.675000X0.180000X0.675000X0*%
%TD*%
%TA.AperFunction,SMDPad,CuDef*%
%ADD20RoundRect,0.200000X0.200000X0.275000X-0.200000X0.275000X-0.200000X-0.275000X0.200000X-0.275000X0*%
%TD*%
%TA.AperFunction,SMDPad,CuDef*%
%ADD21R,0.431800X0.762000*%
%TD*%
%TA.AperFunction,SMDPad,CuDef*%
%ADD22RoundRect,0.237500X0.300000X0.237500X-0.300000X0.237500X-0.300000X-0.237500X0.300000X-0.237500X0*%
%TD*%
%TA.AperFunction,SMDPad,CuDef*%
%ADD23R,2.449195X2.179396*%
%TD*%
%TA.AperFunction,ComponentPad*%
%ADD24C,3.396000*%
%TD*%
%TA.AperFunction,SMDPad,CuDef*%
%ADD25RoundRect,0.237500X-0.287500X-0.237500X0.287500X-0.237500X0.287500X0.237500X-0.287500X0.237500X0*%
%TD*%
%TA.AperFunction,SMDPad,CuDef*%
%ADD26RoundRect,0.237500X-0.237500X0.300000X-0.237500X-0.300000X0.237500X-0.300000X0.237500X0.300000X0*%
%TD*%
%TA.AperFunction,ComponentPad*%
%ADD27C,1.524000*%
%TD*%
%TA.AperFunction,SMDPad,CuDef*%
%ADD28R,1.600000X1.200000*%
%TD*%
%TA.AperFunction,SMDPad,CuDef*%
%ADD29R,1.600000X3.300000*%
%TD*%
%TA.AperFunction,SMDPad,CuDef*%
%ADD30R,1.320800X0.508000*%
%TD*%
%TA.AperFunction,SMDPad,CuDef*%
%ADD31RoundRect,0.237500X0.287500X0.237500X-0.287500X0.237500X-0.287500X-0.237500X0.287500X-0.237500X0*%
%TD*%
%TA.AperFunction,SMDPad,CuDef*%
%ADD32RoundRect,0.237500X-0.237500X0.287500X-0.237500X-0.287500X0.237500X-0.287500X0.237500X0.287500X0*%
%TD*%
%TA.AperFunction,SMDPad,CuDef*%
%ADD33RoundRect,0.060000X-0.675000X-0.180000X0.675000X-0.180000X0.675000X0.180000X-0.675000X0.180000X0*%
%TD*%
%TA.AperFunction,SMDPad,CuDef*%
%ADD34RoundRect,0.200000X-0.275000X0.200000X-0.275000X-0.200000X0.275000X-0.200000X0.275000X0.200000X0*%
%TD*%
%TA.AperFunction,SMDPad,CuDef*%
%ADD35R,0.508000X1.320800*%
%TD*%
%TA.AperFunction,SMDPad,CuDef*%
%ADD36RoundRect,0.006600X-0.103400X0.313400X-0.103400X-0.313400X0.103400X-0.313400X0.103400X0.313400X0*%
%TD*%
%TA.AperFunction,SMDPad,CuDef*%
%ADD37RoundRect,0.006600X-0.313400X-0.103400X0.313400X-0.103400X0.313400X0.103400X-0.313400X0.103400X0*%
%TD*%
%TA.AperFunction,SMDPad,CuDef*%
%ADD38RoundRect,0.006600X0.103400X-0.313400X0.103400X0.313400X-0.103400X0.313400X-0.103400X-0.313400X0*%
%TD*%
%TA.AperFunction,SMDPad,CuDef*%
%ADD39RoundRect,0.006600X0.313400X0.103400X-0.313400X0.103400X-0.313400X-0.103400X0.313400X-0.103400X0*%
%TD*%
%TA.AperFunction,ComponentPad*%
%ADD40C,2.500000*%
%TD*%
%TA.AperFunction,SMDPad,CuDef*%
%ADD41R,1.676400X0.355600*%
%TD*%
%TA.AperFunction,SMDPad,CuDef*%
%ADD42R,1.030000X0.621000*%
%TD*%
%TA.AperFunction,SMDPad,CuDef*%
%ADD43R,1.040000X0.515500*%
%TD*%
%TA.AperFunction,SMDPad,CuDef*%
%ADD44R,1.040000X0.677750*%
%TD*%
%TA.AperFunction,SMDPad,CuDef*%
%ADD45Outline5P,-0.515000X0.310500X0.266600X0.310500X0.515000X0.062100X0.515000X-0.310500X-0.515000X-0.310500X180.000000*%
%TD*%
%TA.AperFunction,SMDPad,CuDef*%
%ADD46R,1.045750X0.515500*%
%TD*%
%TA.AperFunction,SMDPad,CuDef*%
%ADD47R,0.228600X1.473200*%
%TD*%
%TA.AperFunction,SMDPad,CuDef*%
%ADD48R,1.473200X0.228600*%
%TD*%
%TA.AperFunction,ComponentPad*%
%ADD49R,1.800000X1.800000*%
%TD*%
%TA.AperFunction,ComponentPad*%
%ADD50C,1.800000*%
%TD*%
%TA.AperFunction,ViaPad*%
%ADD51C,0.700000*%
%TD*%
%TA.AperFunction,ViaPad*%
%ADD52C,0.800000*%
%TD*%
%TA.AperFunction,Conductor*%
%ADD53C,0.300000*%
%TD*%
%TA.AperFunction,Conductor*%
%ADD54C,1.000000*%
%TD*%
%TA.AperFunction,Conductor*%
%ADD55C,0.400000*%
%TD*%
%TA.AperFunction,Conductor*%
%ADD56C,0.150000*%
%TD*%
%TA.AperFunction,Conductor*%
%ADD57C,0.600000*%
%TD*%
%TA.AperFunction,Conductor*%
%ADD58C,0.500000*%
%TD*%
%TA.AperFunction,Conductor*%
%ADD59C,1.200000*%
%TD*%
G04 APERTURE END LIST*
D10*
%TO.P,C18,1*%
%TO.N,GND*%
X139537500Y-94800000D03*
%TO.P,C18,2*%
%TO.N,+3.3V*%
X141262500Y-94800000D03*
%TD*%
D11*
%TO.P,H6,1,1*%
%TO.N,GND*%
X99314000Y-65278000D03*
%TD*%
D12*
%TO.P,SW1,1,1*%
%TO.N,Net-(U1A-PD2)*%
X157024000Y-109002000D03*
D13*
%TO.P,SW1,2*%
%TO.N,N/C*%
X163524000Y-109002000D03*
%TO.P,SW1,3*%
X157024000Y-113502000D03*
%TO.P,SW1,4,4*%
%TO.N,+3.3V*%
X163524000Y-113502000D03*
%TD*%
D14*
%TO.P,R6,1*%
%TO.N,ADC12_INP18-SG5.6*%
X124193800Y-76479400D03*
%TO.P,R6,2*%
%TO.N,Net-(U1A-PA4)*%
X125843800Y-76479400D03*
%TD*%
D10*
%TO.P,C2LDO2,1*%
%TO.N,+1V8*%
X101753500Y-76454000D03*
%TO.P,C2LDO2,2*%
%TO.N,GND*%
X103478500Y-76454000D03*
%TD*%
D15*
%TO.P,C19,2*%
%TO.N,+3.3V*%
X157000000Y-78937500D03*
%TO.P,C19,1*%
%TO.N,GND*%
X157000000Y-80662500D03*
%TD*%
D16*
%TO.P,FB1,1*%
%TO.N,Net-(D4-K)*%
X100838000Y-114159000D03*
%TO.P,FB1,2*%
%TO.N,Net-(U9-VIN)*%
X100838000Y-112409000D03*
%TD*%
D14*
%TO.P,R24,1*%
%TO.N,GND*%
X104775500Y-100536000D03*
%TO.P,R24,2*%
%TO.N,Net-(U7-NEGB)*%
X106425500Y-100536000D03*
%TD*%
%TO.P,R16,1*%
%TO.N,GND*%
X61913000Y-47099000D03*
%TO.P,R16,2*%
%TO.N,/circuits_capteurs/IN-*%
X63563000Y-47099000D03*
%TD*%
D17*
%TO.P,R30,1*%
%TO.N,Net-(D2--)*%
X85852000Y-103187000D03*
%TO.P,R30,2*%
%TO.N,GND*%
X85852000Y-101537000D03*
%TD*%
D18*
%TO.P,RV1,3,3*%
%TO.N,Net-(U2-RGA)*%
X76454000Y-44005500D03*
%TO.P,RV1,2,2*%
%TO.N,Net-(U2-VOUTA)*%
X78994000Y-44005500D03*
%TO.P,RV1,1,1*%
X81534000Y-44005500D03*
%TD*%
D19*
%TO.P,U3,8,V+*%
%TO.N,+3.3V*%
X76083000Y-95584000D03*
%TO.P,U3,7,OUTB*%
%TO.N,unconnected-(U3-OUTB-Pad7)*%
X75433000Y-95584000D03*
%TO.P,U3,6,NEGB*%
%TO.N,unconnected-(U3-NEGB-Pad6)*%
X74783000Y-95584000D03*
%TO.P,U3,5,POSB*%
%TO.N,unconnected-(U3-POSB-Pad5)*%
X74133000Y-95584000D03*
%TO.P,U3,4,V-*%
%TO.N,GND*%
X74133000Y-91284000D03*
%TO.P,U3,3,POSA*%
%TO.N,Vibro1*%
X74783000Y-91284000D03*
%TO.P,U3,2,NEGA*%
%TO.N,Net-(U3-NEGA)*%
X75433000Y-91284000D03*
%TO.P,U3,1,OUTA*%
%TO.N,ADC123_INP10-Vibro2*%
X76083000Y-91284000D03*
%TD*%
D15*
%TO.P,C7,1*%
%TO.N,Net-(U7-NEGA)*%
X94350500Y-97236000D03*
%TO.P,C7,2*%
%TO.N,ADC12_INP3-Therm1*%
X94350500Y-95511000D03*
%TD*%
D20*
%TO.P,R14,1*%
%TO.N,+3.3V*%
X70421000Y-47091600D03*
%TO.P,R14,2*%
%TO.N,/circuits_capteurs/IN-*%
X68771000Y-47091600D03*
%TD*%
D21*
%TO.P,U12,1,CS#*%
%TO.N,QUADSPI_BK2_NCS*%
X116306600Y-89192100D03*
%TO.P,U12,2,SO/SIO1*%
%TO.N,QUADSPI_BK2_IO1*%
X117576600Y-89192100D03*
%TO.P,U12,3,WP#/SIO2*%
%TO.N,QUADSPI_BK2_IO2*%
X118846600Y-89192100D03*
%TO.P,U12,4,VSS*%
%TO.N,GND*%
X120116600Y-89192100D03*
%TO.P,U12,5,SI/SIO0*%
%TO.N,QUADSPI_BK2_IO0*%
X120116600Y-81445100D03*
%TO.P,U12,6,SCLK*%
%TO.N,QUADSPI_CLK*%
X118846600Y-81445100D03*
%TO.P,U12,7,HOLD#/SIO3*%
%TO.N,QUADSPI_BK2_IO3*%
X117576600Y-81445100D03*
%TO.P,U12,8,VCC*%
%TO.N,+3.3V*%
X116306600Y-81445100D03*
%TD*%
D11*
%TO.P,H4,1,1*%
%TO.N,GND*%
X170180000Y-116949000D03*
%TD*%
D22*
%TO.P,C42,1*%
%TO.N,+3.3V*%
X104787500Y-92831500D03*
%TO.P,C42,2*%
%TO.N,GND*%
X103062500Y-92831500D03*
%TD*%
D20*
%TO.P,R2,1*%
%TO.N,Net-(U1A-PC0)*%
X115683800Y-75641200D03*
%TO.P,R2,2*%
%TO.N,ADC123_INP10-Vibro2*%
X114033800Y-75641200D03*
%TD*%
D23*
%TO.P,C37,1*%
%TO.N,GND*%
X146583400Y-45745400D03*
%TO.P,C37,2*%
%TO.N,/circuit_alimentation/VFBSMPS*%
X146583400Y-51318388D03*
%TD*%
D15*
%TO.P,C25,1*%
%TO.N,GND*%
X154400000Y-73462500D03*
%TO.P,C25,2*%
%TO.N,+3.3V*%
X154400000Y-71737500D03*
%TD*%
%TO.P,C2LDO1,1*%
%TO.N,Net-(U9-VOUT)*%
X95504000Y-109066500D03*
%TO.P,C2LDO1,2*%
%TO.N,GND*%
X95504000Y-107341500D03*
%TD*%
D14*
%TO.P,R21,1*%
%TO.N,Net-(U6-VOUTA)*%
X103569000Y-53848000D03*
%TO.P,R21,2*%
%TO.N,/circuits_capteurs/Suiveur2*%
X105219000Y-53848000D03*
%TD*%
D11*
%TO.P,H8,1,1*%
%TO.N,GND*%
X63271400Y-91701400D03*
%TD*%
D12*
%TO.P,J1,1,VCC*%
%TO.N,Vusb*%
X115880000Y-108484000D03*
D13*
%TO.P,J1,2,D-*%
%TO.N,USB_D-*%
X118380000Y-108484000D03*
%TO.P,J1,3,D+*%
%TO.N,USB_D+*%
X120380000Y-108484000D03*
%TO.P,J1,4,GND*%
%TO.N,GND*%
X122880000Y-108484000D03*
D24*
%TO.P,J1,S1,SHIELD*%
X112810000Y-111194000D03*
%TO.P,J1,S2,SHIELD__1*%
X125950000Y-111194000D03*
%TD*%
D20*
%TO.P,R15,1*%
%TO.N,Net-(U2-RGA)*%
X70421000Y-42926000D03*
%TO.P,R15,2*%
%TO.N,GND*%
X68771000Y-42926000D03*
%TD*%
D18*
%TO.P,RV7,1,1*%
%TO.N,Net-(U6-VOUTB)*%
X108458000Y-71882000D03*
%TO.P,RV7,2,2*%
X105918000Y-71882000D03*
%TO.P,RV7,3,3*%
%TO.N,Net-(U6-RGB)*%
X103378000Y-71882000D03*
%TD*%
D25*
%TO.P,D4,1,K*%
%TO.N,Net-(D4-K)*%
X103925000Y-114200000D03*
%TO.P,D4,2,A*%
%TO.N,Net-(D4-A)*%
X105675000Y-114200000D03*
%TD*%
D17*
%TO.P,R29,1*%
%TO.N,Net-(U7-NEGA)*%
X97550500Y-97211000D03*
%TO.P,R29,2*%
%TO.N,ADC12_INP3-Therm1*%
X97550500Y-95561000D03*
%TD*%
D26*
%TO.P,C4,1*%
%TO.N,/circuits_capteurs/Suiveur2*%
X108712000Y-54763500D03*
%TO.P,C4,2*%
%TO.N,GND*%
X108712000Y-56488500D03*
%TD*%
D27*
%TO.P,U14,1,1*%
%TO.N,SG1_2*%
X82550000Y-72898000D03*
%TO.P,U14,2,2*%
%TO.N,SG3_4*%
X82550000Y-75438000D03*
%TO.P,U14,3,3*%
%TO.N,SG5_6*%
X82550000Y-77978000D03*
%TO.P,U14,4,4*%
%TO.N,Therm1*%
X82550000Y-80518000D03*
%TO.P,U14,5,5*%
%TO.N,Therm2*%
X82550000Y-83058000D03*
%TO.P,U14,6,6*%
%TO.N,Vibro1*%
X82550000Y-85598000D03*
%TO.P,U14,7,7*%
%TO.N,GND*%
X80010000Y-72898000D03*
%TO.P,U14,8,8*%
X80010000Y-75438000D03*
%TO.P,U14,9,9*%
X80010000Y-77978000D03*
%TO.P,U14,10,10*%
X80010000Y-80518000D03*
%TO.P,U14,11,11*%
X80010000Y-83058000D03*
%TO.P,U14,12,12*%
X80010000Y-85598000D03*
%TD*%
D11*
%TO.P,H3,1,1*%
%TO.N,GND*%
X170180000Y-43180000D03*
%TD*%
D28*
%TO.P,VR1,1,FIXED/ADJ*%
%TO.N,GND*%
X73465000Y-104126000D03*
%TO.P,VR1,2,OUTPUT*%
%TO.N,Net-(VR1-OUTPUT)*%
X73465000Y-106426000D03*
%TO.P,VR1,3,INPUT*%
%TO.N,Net-(D1-K)*%
X73465000Y-108726000D03*
D29*
%TO.P,VR1,4,OUTPUT__1*%
%TO.N,Net-(VR1-OUTPUT)*%
X79865000Y-106426000D03*
%TD*%
D30*
%TO.P,U9,1,VIN*%
%TO.N,Net-(U9-VIN)*%
X101879400Y-108966000D03*
%TO.P,U9,2,GND*%
%TO.N,GND*%
X101879400Y-108015999D03*
%TO.P,U9,3,EN*%
%TO.N,Vusb*%
X101879400Y-107065998D03*
%TO.P,U9,4,NC*%
%TO.N,unconnected-(U9-NC-Pad4)*%
X99288600Y-107065998D03*
%TO.P,U9,5,VOUT*%
%TO.N,Net-(U9-VOUT)*%
X99288600Y-108966000D03*
%TD*%
D18*
%TO.P,RV5,1,1*%
%TO.N,Net-(U6-VOUTA)*%
X101854000Y-43497500D03*
%TO.P,RV5,2,2*%
X99314000Y-43497500D03*
%TO.P,RV5,3,3*%
%TO.N,Net-(U6-RGA)*%
X96774000Y-43497500D03*
%TD*%
D20*
%TO.P,R23,1*%
%TO.N,Net-(U6-RGB)*%
X102208500Y-86868000D03*
%TO.P,R23,2*%
%TO.N,GND*%
X100558500Y-86868000D03*
%TD*%
D26*
%TO.P,C20,1*%
%TO.N,GND*%
X126238000Y-80163500D03*
%TO.P,C20,2*%
%TO.N,+3.3V*%
X126238000Y-81888500D03*
%TD*%
D22*
%TO.P,C5,1*%
%TO.N,/circuits_capteurs/Suiveur3*%
X107034500Y-62517500D03*
%TO.P,C5,2*%
%TO.N,GND*%
X105309500Y-62517500D03*
%TD*%
D20*
%TO.P,R27,1*%
%TO.N,+3.3V*%
X89427000Y-84433500D03*
%TO.P,R27,2*%
%TO.N,Therm2*%
X87777000Y-84433500D03*
%TD*%
D26*
%TO.P,C1,1*%
%TO.N,Net-(U3-NEGA)*%
X89254500Y-92863500D03*
%TO.P,C1,2*%
%TO.N,ADC123_INP10-Vibro2*%
X89254500Y-94588500D03*
%TD*%
D31*
%TO.P,D1,1,K*%
%TO.N,Net-(D1-K)*%
X73475000Y-111760000D03*
%TO.P,D1,2,A*%
%TO.N,Net-(D1-A)*%
X71725000Y-111760000D03*
%TD*%
D32*
%TO.P,F2,1*%
%TO.N,Vusb*%
X107800000Y-108125000D03*
%TO.P,F2,2*%
%TO.N,Net-(D4-A)*%
X107800000Y-109875000D03*
%TD*%
D10*
%TO.P,C29,1*%
%TO.N,GND*%
X139535500Y-97000000D03*
%TO.P,C29,2*%
%TO.N,+3.3V*%
X141260500Y-97000000D03*
%TD*%
D16*
%TO.P,L1,1,1*%
%TO.N,/circuit_alimentation/VLXSMPS*%
X139192000Y-57771000D03*
%TO.P,L1,2,2*%
%TO.N,/circuit_alimentation/VFBSMPS*%
X139192000Y-56021000D03*
%TD*%
D26*
%TO.P,C8,1*%
%TO.N,/circuit_alimentation/Vcap1(68)*%
X126348000Y-86005500D03*
%TO.P,C8,2*%
%TO.N,GND*%
X126348000Y-87730500D03*
%TD*%
D22*
%TO.P,C30,1*%
%TO.N,GND*%
X147062500Y-63868000D03*
%TO.P,C30,2*%
%TO.N,+3.3V*%
X145337500Y-63868000D03*
%TD*%
D10*
%TO.P,C41,1*%
%TO.N,GND*%
X115215500Y-52578000D03*
%TO.P,C41,2*%
%TO.N,+3.3V*%
X116940500Y-52578000D03*
%TD*%
D33*
%TO.P,U7,1,OUTA*%
%TO.N,ADC12_INP3-Therm1*%
X101700500Y-96236000D03*
%TO.P,U7,2,NEGA*%
%TO.N,Net-(U7-NEGA)*%
X101700500Y-96886000D03*
%TO.P,U7,3,POSA*%
%TO.N,Therm1*%
X101700500Y-97536000D03*
%TO.P,U7,4,V-*%
%TO.N,GND*%
X101700500Y-98186000D03*
%TO.P,U7,5,POSB*%
%TO.N,Therm2*%
X106000500Y-98186000D03*
%TO.P,U7,6,NEGB*%
%TO.N,Net-(U7-NEGB)*%
X106000500Y-97536000D03*
%TO.P,U7,7,OUTB*%
%TO.N,ADC1_INP16-Therm2*%
X106000500Y-96886000D03*
%TO.P,U7,8,V+*%
%TO.N,+3.3V*%
X106000500Y-96236000D03*
%TD*%
D22*
%TO.P,C13,1*%
%TO.N,GND*%
X135462500Y-97000000D03*
%TO.P,C13,2*%
%TO.N,+3.3V*%
X133737500Y-97000000D03*
%TD*%
D20*
%TO.P,R5,1*%
%TO.N,Net-(U1A-PC3_C)*%
X127799600Y-65049400D03*
%TO.P,R5,2*%
%TO.N,ADC3_INP1-Vibe1*%
X126149600Y-65049400D03*
%TD*%
D27*
%TO.P,Buzzer1,0,GND_(-)*%
%TO.N,GND*%
X167019874Y-81748000D03*
%TO.P,Buzzer1,1,Vcc_3V_(+)*%
%TO.N,Buzz_on*%
X167019874Y-76748000D03*
%TD*%
D34*
%TO.P,R13,2*%
%TO.N,Net-(U3-NEGA)*%
X70800000Y-93425000D03*
%TO.P,R13,1*%
%TO.N,GND*%
X70800000Y-91775000D03*
%TD*%
D18*
%TO.P,RV4,3,3*%
%TO.N,Net-(U2-RGB)*%
X79820000Y-63423500D03*
%TO.P,RV4,2,2*%
%TO.N,Net-(U2-VOUTB)*%
X82360000Y-63423500D03*
%TO.P,RV4,1,1*%
X84900000Y-63423500D03*
%TD*%
D15*
%TO.P,C21,2*%
%TO.N,+3.3V*%
X154400000Y-84081500D03*
%TO.P,C21,1*%
%TO.N,GND*%
X154400000Y-85806500D03*
%TD*%
D11*
%TO.P,H1,1,1*%
%TO.N,GND*%
X63500000Y-43035000D03*
%TD*%
D26*
%TO.P,C28,1*%
%TO.N,GND*%
X123698000Y-80155500D03*
%TO.P,C28,2*%
%TO.N,+3.3V*%
X123698000Y-81880500D03*
%TD*%
D15*
%TO.P,C22,1*%
%TO.N,GND*%
X150600000Y-96462500D03*
%TO.P,C22,2*%
%TO.N,+3.3V*%
X150600000Y-94737500D03*
%TD*%
D10*
%TO.P,C14,1*%
%TO.N,GND*%
X124105500Y-90932000D03*
%TO.P,C14,2*%
%TO.N,+3.3V*%
X125830500Y-90932000D03*
%TD*%
D26*
%TO.P,C39,1*%
%TO.N,+3.3V*%
X73400000Y-98737500D03*
%TO.P,C39,2*%
%TO.N,GND*%
X73400000Y-100462500D03*
%TD*%
D33*
%TO.P,U5,1,OUTA*%
%TO.N,ADC3_INP1-Vibe1*%
X113837500Y-65065000D03*
%TO.P,U5,2,NEGA*%
X113837500Y-65715000D03*
%TO.P,U5,3,POSA*%
%TO.N,/circuits_capteurs/Suiveur3*%
X113837500Y-66365000D03*
%TO.P,U5,4,V-*%
%TO.N,GND*%
X113837500Y-67015000D03*
%TO.P,U5,5,POSB*%
%TO.N,/circuits_capteurs/Suiveur*%
X118137500Y-67015000D03*
%TO.P,U5,6,NEGB*%
%TO.N,ADC12_INP14-SG1.2*%
X118137500Y-66365000D03*
%TO.P,U5,7,OUTB*%
X118137500Y-65715000D03*
%TO.P,U5,8,V+*%
%TO.N,+3.3V*%
X118137500Y-65065000D03*
%TD*%
D22*
%TO.P,C17,1*%
%TO.N,GND*%
X135482500Y-94800000D03*
%TO.P,C17,2*%
%TO.N,+3.3V*%
X133757500Y-94800000D03*
%TD*%
D14*
%TO.P,R9,1*%
%TO.N,Net-(U1B-BOOT0)*%
X154375000Y-76400000D03*
%TO.P,R9,2*%
%TO.N,GND*%
X156025000Y-76400000D03*
%TD*%
%TO.P,R8,1*%
%TO.N,+3.3V*%
X142685000Y-102616000D03*
%TO.P,R8,2*%
%TO.N,SWDIO*%
X144335000Y-102616000D03*
%TD*%
D21*
%TO.P,U13,1,CS#*%
%TO.N,QUADSPI_BK1_NCS*%
X156083000Y-64935100D03*
%TO.P,U13,2,SO/SIO1*%
%TO.N,QUADSPI_BK1_IO3*%
X157353000Y-64935100D03*
%TO.P,U13,3,WP#/SIO2*%
%TO.N,QUADSPI_BK1_IO2*%
X158623000Y-64935100D03*
%TO.P,U13,4,VSS*%
%TO.N,GND*%
X159893000Y-64935100D03*
%TO.P,U13,5,SI/SIO0*%
%TO.N,QUADSPI_BK1_IO0*%
X159893000Y-57188100D03*
%TO.P,U13,6,SCLK*%
%TO.N,QUADSPI_CLK*%
X158623000Y-57188100D03*
%TO.P,U13,7,HOLD#/SIO3*%
%TO.N,QUADSPI_BK1_IO1*%
X157353000Y-57188100D03*
%TO.P,U13,8,VCC*%
%TO.N,+3.3V*%
X156083000Y-57188100D03*
%TD*%
D26*
%TO.P,C38,1*%
%TO.N,Net-(U11-REGOUT)*%
X124460000Y-101753500D03*
%TO.P,C38,2*%
%TO.N,GND*%
X124460000Y-103478500D03*
%TD*%
D18*
%TO.P,RV6,1,1*%
%TO.N,SG3_4*%
X67564000Y-52832000D03*
%TO.P,RV6,2,2*%
X65024000Y-52832000D03*
%TO.P,RV6,3,3*%
%TO.N,+3.3V*%
X62484000Y-52832000D03*
%TD*%
%TO.P,RV8,1,1*%
%TO.N,SG5_6*%
X89662000Y-76962000D03*
%TO.P,RV8,2,2*%
X92202000Y-76962000D03*
%TO.P,RV8,3,3*%
%TO.N,+3.3V*%
X94742000Y-76962000D03*
%TD*%
D34*
%TO.P,R32,1*%
%TO.N,USB_check*%
X95504000Y-116975000D03*
%TO.P,R32,2*%
%TO.N,GND*%
X95504000Y-118625000D03*
%TD*%
D23*
%TO.P,C34,1*%
%TO.N,+3.3V*%
X123952000Y-51300494D03*
%TO.P,C34,2*%
%TO.N,GND*%
X123952000Y-45727506D03*
%TD*%
%TO.P,C36,1*%
%TO.N,GND*%
X134620000Y-45727506D03*
%TO.P,C36,2*%
%TO.N,/circuit_alimentation/VFBSMPS*%
X134620000Y-51300494D03*
%TD*%
D18*
%TO.P,RV3,1,1*%
%TO.N,SG1_2*%
X67564000Y-58928000D03*
%TO.P,RV3,2,2*%
X65024000Y-58928000D03*
%TO.P,RV3,3,3*%
%TO.N,+3.3V*%
X62484000Y-58928000D03*
%TD*%
D17*
%TO.P,R20,1*%
%TO.N,Net-(U6-RGA)*%
X94488000Y-51879000D03*
%TO.P,R20,2*%
%TO.N,GND*%
X94488000Y-50229000D03*
%TD*%
D22*
%TO.P,C33,1*%
%TO.N,GND*%
X133062500Y-66400000D03*
%TO.P,C33,2*%
%TO.N,+3.3V*%
X131337500Y-66400000D03*
%TD*%
D15*
%TO.P,C31,1*%
%TO.N,GND*%
X157000000Y-73462500D03*
%TO.P,C31,2*%
%TO.N,+3.3V*%
X157000000Y-71737500D03*
%TD*%
D25*
%TO.P,F1,1*%
%TO.N,Net-(F1-Pad1)*%
X66725000Y-111800000D03*
%TO.P,F1,2*%
%TO.N,Net-(D1-A)*%
X68475000Y-111800000D03*
%TD*%
D20*
%TO.P,R3,1*%
%TO.N,Net-(U1A-PA2)*%
X122999000Y-67310000D03*
%TO.P,R3,2*%
%TO.N,ADC12_INP14-SG1.2*%
X121349000Y-67310000D03*
%TD*%
D10*
%TO.P,C16,1*%
%TO.N,/circuit_alimentation/Vcap2(103)*%
X146337500Y-94800000D03*
%TO.P,C16,2*%
%TO.N,GND*%
X148062500Y-94800000D03*
%TD*%
D26*
%TO.P,C2,1*%
%TO.N,/circuits_capteurs/Suiveur*%
X88138000Y-50953500D03*
%TO.P,C2,2*%
%TO.N,GND*%
X88138000Y-52678500D03*
%TD*%
D10*
%TO.P,C23,1*%
%TO.N,/circuit_alimentation/Vcap2(103)*%
X146352000Y-97000000D03*
%TO.P,C23,2*%
%TO.N,GND*%
X148077000Y-97000000D03*
%TD*%
D35*
%TO.P,U10,1,VIN*%
%TO.N,+3.3V*%
X101767599Y-82346800D03*
%TO.P,U10,2,GND*%
%TO.N,GND*%
X102717600Y-82346800D03*
%TO.P,U10,3,EN*%
%TO.N,+3.3V*%
X103667601Y-82346800D03*
%TO.P,U10,4,NC*%
%TO.N,unconnected-(U10-NC-Pad4)*%
X103667601Y-79756000D03*
%TO.P,U10,5,VOUT*%
%TO.N,+1V8*%
X101767599Y-79756000D03*
%TD*%
D36*
%TO.P,U11,1,NC*%
%TO.N,unconnected-(U11-NC-Pad1)*%
X127238000Y-94721000D03*
%TO.P,U11,2,NC__1*%
%TO.N,unconnected-(U11-NC__1-Pad2)*%
X126838000Y-94721000D03*
%TO.P,U11,3,NC__2*%
%TO.N,unconnected-(U11-NC__2-Pad3)*%
X126438000Y-94721000D03*
%TO.P,U11,4,NC__3*%
%TO.N,unconnected-(U11-NC__3-Pad4)*%
X126038000Y-94721000D03*
%TO.P,U11,5,NC__4*%
%TO.N,unconnected-(U11-NC__4-Pad5)*%
X125638000Y-94721000D03*
%TO.P,U11,6,NC__5*%
%TO.N,unconnected-(U11-NC__5-Pad6)*%
X125238000Y-94721000D03*
D37*
%TO.P,U11,7,AUX_CL*%
%TO.N,GND*%
X124693000Y-95266000D03*
%TO.P,U11,8,VDDIO*%
%TO.N,+1V8*%
X124693000Y-95666000D03*
%TO.P,U11,9,AD0/SDO*%
%TO.N,MISO*%
X124693000Y-96066000D03*
%TO.P,U11,10,REGOUT*%
%TO.N,Net-(U11-REGOUT)*%
X124693000Y-96466000D03*
%TO.P,U11,11,FSYNC*%
%TO.N,GND*%
X124693000Y-96866000D03*
%TO.P,U11,12,INT1*%
%TO.N,InteruptionMPU*%
X124693000Y-97266000D03*
D38*
%TO.P,U11,13,VDD*%
%TO.N,+3.3V*%
X125238000Y-97811000D03*
%TO.P,U11,14,NC__6*%
%TO.N,unconnected-(U11-NC__6-Pad14)*%
X125638000Y-97811000D03*
%TO.P,U11,15,NC__7*%
%TO.N,unconnected-(U11-NC__7-Pad15)*%
X126038000Y-97811000D03*
%TO.P,U11,16,NC__8*%
%TO.N,unconnected-(U11-NC__8-Pad16)*%
X126438000Y-97811000D03*
%TO.P,U11,17,NC__9*%
%TO.N,unconnected-(U11-NC__9-Pad17)*%
X126838000Y-97811000D03*
%TO.P,U11,18,GND*%
%TO.N,GND*%
X127238000Y-97811000D03*
D39*
%TO.P,U11,19,RESV_19*%
%TO.N,unconnected-(U11-RESV_19-Pad19)*%
X127783000Y-97266000D03*
%TO.P,U11,20,RESV_20*%
%TO.N,GND*%
X127783000Y-96866000D03*
%TO.P,U11,21,AUX_DA*%
X127783000Y-96466000D03*
%TO.P,U11,22,~{CS}*%
%TO.N,NSS*%
X127783000Y-96066000D03*
%TO.P,U11,23,SCL/SCLK*%
%TO.N,SCK*%
X127783000Y-95666000D03*
%TO.P,U11,24,SDA/SDI*%
%TO.N,MOSI*%
X127783000Y-95266000D03*
%TD*%
D40*
%TO.P,bornier1,1,1*%
%TO.N,GND*%
X63222000Y-101378000D03*
%TO.P,bornier1,2,2*%
%TO.N,Net-(F1-Pad1)*%
X63222000Y-105378000D03*
%TD*%
D10*
%TO.P,C1LDO2,1*%
%TO.N,+3.3V*%
X94641500Y-90170000D03*
%TO.P,C1LDO2,2*%
%TO.N,GND*%
X96366500Y-90170000D03*
%TD*%
D14*
%TO.P,R22,1*%
%TO.N,Net-(U6-VOUTB)*%
X105347000Y-66294000D03*
%TO.P,R22,2*%
%TO.N,/circuits_capteurs/Suiveur3*%
X106997000Y-66294000D03*
%TD*%
D41*
%TO.P,U2,1,RGA*%
%TO.N,Net-(U2-RGA)*%
X74142600Y-52151999D03*
%TO.P,U2,2,VIN-A*%
%TO.N,/circuits_capteurs/IN-*%
X74142600Y-52802000D03*
%TO.P,U2,3,VIN+A*%
%TO.N,SG1_2*%
X74142600Y-53452001D03*
%TO.P,U2,4,V-*%
%TO.N,GND*%
X74142600Y-54102000D03*
%TO.P,U2,5,VIN+B*%
%TO.N,/circuits_capteurs/IN-*%
X74142600Y-54751999D03*
%TO.P,U2,6,VIN-B*%
%TO.N,SG3_4*%
X74142600Y-55402000D03*
%TO.P,U2,7,RGB*%
%TO.N,Net-(U2-RGB)*%
X74142600Y-56051999D03*
%TO.P,U2,8,SHUTDOWNB*%
%TO.N,unconnected-(U2-SHUTDOWNB-Pad8)*%
X79781400Y-56052001D03*
%TO.P,U2,9,VOUTB*%
%TO.N,Net-(U2-VOUTB)*%
X79781400Y-55402000D03*
%TO.P,U2,10,REFB*%
%TO.N,GND*%
X79781400Y-54752001D03*
%TO.P,U2,11,V+*%
%TO.N,+3.3V*%
X79781400Y-54102000D03*
%TO.P,U2,12,REFA*%
%TO.N,GND*%
X79781400Y-53452001D03*
%TO.P,U2,13,VOUTA*%
%TO.N,Net-(U2-VOUTA)*%
X79781400Y-52802000D03*
%TO.P,U2,14,SHUTDOWNA*%
%TO.N,unconnected-(U2-SHUTDOWNA-Pad14)*%
X79781400Y-52152001D03*
%TD*%
D14*
%TO.P,R1,1*%
%TO.N,ADC1_INP16-Therm2*%
X126149600Y-68884800D03*
%TO.P,R1,2*%
%TO.N,Net-(U1A-PA0)*%
X127799600Y-68884800D03*
%TD*%
D22*
%TO.P,C32,1*%
%TO.N,GND*%
X133062500Y-64000000D03*
%TO.P,C32,2*%
%TO.N,+3.3V*%
X131337500Y-64000000D03*
%TD*%
D15*
%TO.P,C10,2*%
%TO.N,+3.3V*%
X154400000Y-78937500D03*
%TO.P,C10,1*%
%TO.N,GND*%
X154400000Y-80662500D03*
%TD*%
D11*
%TO.P,H2,1,1*%
%TO.N,GND*%
X63500000Y-116840000D03*
%TD*%
D15*
%TO.P,C1LDO3,1*%
%TO.N,Net-(D1-K)*%
X68580000Y-107034500D03*
%TO.P,C1LDO3,2*%
%TO.N,GND*%
X68580000Y-105309500D03*
%TD*%
D13*
%TO.P,S1,1*%
%TO.N,Net-(VR1-OUTPUT)*%
X80558000Y-116840000D03*
%TO.P,S1,2*%
%TO.N,+3.3V*%
X83058000Y-116840000D03*
%TO.P,S1,3*%
%TO.N,Net-(U9-VOUT)*%
X85558000Y-116840000D03*
%TD*%
D22*
%TO.P,C2LDO3,1*%
%TO.N,Net-(VR1-OUTPUT)*%
X69696500Y-102108000D03*
%TO.P,C2LDO3,2*%
%TO.N,GND*%
X67971500Y-102108000D03*
%TD*%
D17*
%TO.P,R25,1*%
%TO.N,Net-(U7-NEGB)*%
X109983000Y-97386000D03*
%TO.P,R25,2*%
%TO.N,ADC1_INP16-Therm2*%
X109983000Y-95736000D03*
%TD*%
D42*
%TO.P,Vibe1,1,VDD*%
%TO.N,+1V8*%
X93980000Y-66040000D03*
D43*
%TO.P,Vibe1,2,GND*%
%TO.N,GND*%
X93975000Y-65158250D03*
D44*
%TO.P,Vibe1,3,Out+*%
%TO.N,/circuits_capteurs/out+*%
X93985000Y-64249375D03*
D45*
%TO.P,Vibe1,4,GND*%
%TO.N,GND*%
X91765000Y-66040500D03*
D46*
%TO.P,Vibe1,5,GND*%
X91765000Y-65160500D03*
D44*
%TO.P,Vibe1,6,Out-*%
%TO.N,/circuits_capteurs/out-*%
X91765000Y-64250500D03*
%TD*%
D26*
%TO.P,C26,1*%
%TO.N,GND*%
X126161800Y-72772100D03*
%TO.P,C26,2*%
%TO.N,+3.3V*%
X126161800Y-74497100D03*
%TD*%
D14*
%TO.P,R7,1*%
%TO.N,ADC12_INP3-Therm1*%
X118529600Y-77927200D03*
%TO.P,R7,2*%
%TO.N,Net-(U1A-PA6)*%
X120179600Y-77927200D03*
%TD*%
D22*
%TO.P,C40,1*%
%TO.N,+3.3V*%
X116940500Y-70104000D03*
%TO.P,C40,2*%
%TO.N,GND*%
X115215500Y-70104000D03*
%TD*%
D10*
%TO.P,C35,1*%
%TO.N,/circuit_alimentation/VLXSMPS*%
X145187500Y-57658000D03*
%TO.P,C35,2*%
%TO.N,GND*%
X146912500Y-57658000D03*
%TD*%
D22*
%TO.P,C11,1*%
%TO.N,GND*%
X147062500Y-66200000D03*
%TO.P,C11,2*%
%TO.N,+3.3V*%
X145337500Y-66200000D03*
%TD*%
D26*
%TO.P,C12,1*%
%TO.N,GND*%
X123621800Y-72772100D03*
%TO.P,C12,2*%
%TO.N,+3.3V*%
X123621800Y-74497100D03*
%TD*%
D14*
%TO.P,R17,1*%
%TO.N,Net-(U2-VOUTA)*%
X82741000Y-49784000D03*
%TO.P,R17,2*%
%TO.N,/circuits_capteurs/Suiveur*%
X84391000Y-49784000D03*
%TD*%
D34*
%TO.P,R31,1*%
%TO.N,Net-(U9-VIN)*%
X95504000Y-112459000D03*
%TO.P,R31,2*%
%TO.N,USB_check*%
X95504000Y-114109000D03*
%TD*%
D15*
%TO.P,C27,1*%
%TO.N,GND*%
X157000000Y-85862500D03*
%TO.P,C27,2*%
%TO.N,+3.3V*%
X157000000Y-84137500D03*
%TD*%
D22*
%TO.P,C3,1*%
%TO.N,/circuits_capteurs/Suiveur1*%
X86155700Y-57404000D03*
%TO.P,C3,2*%
%TO.N,GND*%
X84430700Y-57404000D03*
%TD*%
D20*
%TO.P,R26,1*%
%TO.N,+3.3V*%
X89427000Y-81933500D03*
%TO.P,R26,2*%
%TO.N,Therm1*%
X87777000Y-81933500D03*
%TD*%
D10*
%TO.P,C44,1*%
%TO.N,+3.3V*%
X83567100Y-54102000D03*
%TO.P,C44,2*%
%TO.N,GND*%
X85292100Y-54102000D03*
%TD*%
%TO.P,C43,1*%
%TO.N,+3.3V*%
X103531500Y-58420000D03*
%TO.P,C43,2*%
%TO.N,GND*%
X105256500Y-58420000D03*
%TD*%
D20*
%TO.P,R4,1*%
%TO.N,Net-(U1A-PA3)*%
X123253000Y-64008000D03*
%TO.P,R4,2*%
%TO.N,ADC12_INP15-SG3.4*%
X121603000Y-64008000D03*
%TD*%
%TO.P,R28,1*%
%TO.N,GND*%
X98725500Y-99836000D03*
%TO.P,R28,2*%
%TO.N,Net-(U7-NEGA)*%
X97075500Y-99836000D03*
%TD*%
D11*
%TO.P,H5,1,1*%
%TO.N,GND*%
X63246000Y-65786000D03*
%TD*%
D22*
%TO.P,C9,1*%
%TO.N,GND*%
X142662500Y-66200000D03*
%TO.P,C9,2*%
%TO.N,+3.3V*%
X140937500Y-66200000D03*
%TD*%
D18*
%TO.P,RV2,3,3*%
%TO.N,ADC123_INP10-Vibro2*%
X84391500Y-97028000D03*
%TO.P,RV2,2,2*%
X84391500Y-94488000D03*
%TO.P,RV2,1,1*%
%TO.N,Net-(U3-NEGA)*%
X84391500Y-91948000D03*
%TD*%
D41*
%TO.P,U6,1,RGA*%
%TO.N,Net-(U6-RGA)*%
X94462600Y-56469999D03*
%TO.P,U6,2,VIN-A*%
%TO.N,/circuits_capteurs/IN-*%
X94462600Y-57120000D03*
%TO.P,U6,3,VIN+A*%
%TO.N,SG5_6*%
X94462600Y-57770001D03*
%TO.P,U6,4,V-*%
%TO.N,GND*%
X94462600Y-58420000D03*
%TO.P,U6,5,VIN+B*%
%TO.N,/circuits_capteurs/out+*%
X94462600Y-59069999D03*
%TO.P,U6,6,VIN-B*%
%TO.N,/circuits_capteurs/out-*%
X94462600Y-59720000D03*
%TO.P,U6,7,RGB*%
%TO.N,Net-(U6-RGB)*%
X94462600Y-60369999D03*
%TO.P,U6,8,SHUTDOWNB*%
%TO.N,unconnected-(U6-SHUTDOWNB-Pad8)*%
X100101400Y-60370001D03*
%TO.P,U6,9,VOUTB*%
%TO.N,Net-(U6-VOUTB)*%
X100101400Y-59720000D03*
%TO.P,U6,10,REFB*%
%TO.N,GND*%
X100101400Y-59070001D03*
%TO.P,U6,11,V+*%
%TO.N,+3.3V*%
X100101400Y-58420000D03*
%TO.P,U6,12,REFA*%
%TO.N,GND*%
X100101400Y-57770001D03*
%TO.P,U6,13,VOUTA*%
%TO.N,Net-(U6-VOUTA)*%
X100101400Y-57120000D03*
%TO.P,U6,14,SHUTDOWNA*%
%TO.N,unconnected-(U6-SHUTDOWNA-Pad14)*%
X100101400Y-56470001D03*
%TD*%
D15*
%TO.P,C1LDO1,1*%
%TO.N,Net-(U9-VIN)*%
X105200000Y-109862500D03*
%TO.P,C1LDO1,2*%
%TO.N,GND*%
X105200000Y-108137500D03*
%TD*%
D22*
%TO.P,C24,1*%
%TO.N,GND*%
X142662500Y-64000000D03*
%TO.P,C24,2*%
%TO.N,+3.3V*%
X140937500Y-64000000D03*
%TD*%
D15*
%TO.P,C6,1*%
%TO.N,Net-(U7-NEGB)*%
X113083000Y-97473500D03*
%TO.P,C6,2*%
%TO.N,ADC1_INP16-Therm2*%
X113083000Y-95748500D03*
%TD*%
D47*
%TO.P,U1,1,PE2*%
%TO.N,unconnected-(U1B-PE2-Pad1)*%
X148958000Y-69799200D03*
%TO.P,U1,2,PE3*%
%TO.N,unconnected-(U1B-PE3-Pad2)*%
X148458001Y-69799200D03*
%TO.P,U1,3,PE4*%
%TO.N,unconnected-(U1B-PE4-Pad3)*%
X147958000Y-69799200D03*
%TO.P,U1,4,PE5*%
%TO.N,unconnected-(U1B-PE5-Pad4)*%
X147458001Y-69799200D03*
%TO.P,U1,5,PE6*%
%TO.N,unconnected-(U1B-PE6-Pad5)*%
X146957999Y-69799200D03*
%TO.P,U1,6,VSS*%
%TO.N,GND*%
X146458000Y-69799200D03*
%TO.P,U1,7,VDD*%
%TO.N,+3.3V*%
X145958001Y-69799200D03*
%TO.P,U1,8,VBAT*%
X145458000Y-69799200D03*
%TO.P,U1,9,PC13*%
%TO.N,unconnected-(U1A-PC13-Pad9)*%
X144958001Y-69799200D03*
%TO.P,U1,10,PC14-OSC32_IN*%
%TO.N,unconnected-(U1A-PC14-OSC32_IN-Pad10)*%
X144457999Y-69799200D03*
%TO.P,U1,11,PC15-OSC32_OUT*%
%TO.N,unconnected-(U1A-PC15-OSC32_OUT-Pad11)*%
X143958000Y-69799200D03*
%TO.P,U1,12,VSS*%
%TO.N,GND*%
X143458001Y-69799200D03*
%TO.P,U1,13,VDD*%
%TO.N,+3.3V*%
X142958000Y-69799200D03*
%TO.P,U1,14,VSSSMPS*%
%TO.N,GND*%
X142458001Y-69799200D03*
%TO.P,U1,15,VLXSMPS*%
%TO.N,/circuit_alimentation/VLXSMPS*%
X141957999Y-69799200D03*
%TO.P,U1,16,VDDSMPS*%
%TO.N,+3.3V*%
X141458000Y-69799200D03*
%TO.P,U1,17,VFBSMPS*%
%TO.N,/circuit_alimentation/VFBSMPS*%
X140958001Y-69799200D03*
%TO.P,U1,18,VSS*%
%TO.N,GND*%
X140458000Y-69799200D03*
%TO.P,U1,19,VDD*%
%TO.N,+3.3V*%
X139958000Y-69799200D03*
%TO.P,U1,20,PF6*%
%TO.N,QUADSPI_BK1_IO3*%
X139458002Y-69799200D03*
%TO.P,U1,21,PF7*%
%TO.N,QUADSPI_BK1_IO2*%
X138958000Y-69799200D03*
%TO.P,U1,22,PF8*%
%TO.N,QUADSPI_BK1_IO0*%
X138458001Y-69799200D03*
%TO.P,U1,23,PF9*%
%TO.N,QUADSPI_BK1_IO1*%
X137957999Y-69799200D03*
%TO.P,U1,24,PF10*%
%TO.N,QUADSPI_CLK*%
X137458000Y-69799200D03*
%TO.P,U1,25,PH0-OSC_IN*%
%TO.N,unconnected-(U1B-PH0-OSC_IN-Pad25)*%
X136958001Y-69799200D03*
%TO.P,U1,26,PH1-OSC_OUT*%
%TO.N,unconnected-(U1B-PH1-OSC_OUT-Pad26)*%
X136458000Y-69799200D03*
%TO.P,U1,27,NRST*%
%TO.N,unconnected-(U1B-NRST-Pad27)*%
X135958001Y-69799200D03*
%TO.P,U1,28,PC0*%
%TO.N,Net-(U1A-PC0)*%
X135457999Y-69799200D03*
%TO.P,U1,29,PC1*%
%TO.N,GND*%
X134958000Y-69799200D03*
%TO.P,U1,30,PC2_C*%
X134458001Y-69799200D03*
%TO.P,U1,31,PC3_C*%
%TO.N,Net-(U1A-PC3_C)*%
X133958000Y-69799200D03*
%TO.P,U1,32,VDD*%
%TO.N,+3.3V*%
X133458001Y-69799200D03*
%TO.P,U1,33,VSS*%
%TO.N,GND*%
X132957999Y-69799200D03*
%TO.P,U1,34,VSSA*%
X132458000Y-69799200D03*
%TO.P,U1,35,VREF+*%
%TO.N,+3.3V*%
X131958001Y-69799200D03*
%TO.P,U1,36,VDDA*%
X131458000Y-69799200D03*
D48*
%TO.P,U1,37,PA0*%
%TO.N,Net-(U1A-PA0)*%
X129489200Y-71768000D03*
%TO.P,U1,38,PA1*%
%TO.N,GND*%
X129489200Y-72267999D03*
%TO.P,U1,39,PA2*%
%TO.N,Net-(U1A-PA2)*%
X129489200Y-72768000D03*
%TO.P,U1,40,PA3*%
%TO.N,Net-(U1A-PA3)*%
X129489200Y-73267999D03*
%TO.P,U1,41,VSS*%
%TO.N,GND*%
X129489200Y-73768001D03*
%TO.P,U1,42,VDD*%
%TO.N,+3.3V*%
X129489200Y-74268000D03*
%TO.P,U1,43,PA4*%
%TO.N,Net-(U1A-PA4)*%
X129489200Y-74767999D03*
%TO.P,U1,44,PA5*%
%TO.N,GND*%
X129489200Y-75268000D03*
%TO.P,U1,45,PA6*%
%TO.N,Net-(U1A-PA6)*%
X129489200Y-75767999D03*
%TO.P,U1,46,PA7*%
%TO.N,GND*%
X129489200Y-76268001D03*
%TO.P,U1,47,PC4*%
%TO.N,unconnected-(U1A-PC4-Pad47)*%
X129489200Y-76768000D03*
%TO.P,U1,48,PC5*%
%TO.N,unconnected-(U1A-PC5-Pad48)*%
X129489200Y-77267999D03*
%TO.P,U1,49,PB0*%
%TO.N,unconnected-(U1A-PB0-Pad49)*%
X129489200Y-77768000D03*
%TO.P,U1,50,PB1*%
%TO.N,unconnected-(U1A-PB1-Pad50)*%
X129489200Y-78267999D03*
%TO.P,U1,51,PB2*%
%TO.N,unconnected-(U1A-PB2-Pad51)*%
X129489200Y-78768001D03*
%TO.P,U1,52,PF11*%
%TO.N,unconnected-(U1B-PF11-Pad52)*%
X129489200Y-79268000D03*
%TO.P,U1,53,PF14*%
%TO.N,unconnected-(U1B-PF14-Pad53)*%
X129489200Y-79767999D03*
%TO.P,U1,54,PF15*%
%TO.N,unconnected-(U1B-PF15-Pad54)*%
X129489200Y-80268000D03*
%TO.P,U1,55,VSS*%
%TO.N,GND*%
X129489200Y-80768000D03*
%TO.P,U1,56,VDD*%
%TO.N,+3.3V*%
X129489200Y-81268001D03*
%TO.P,U1,57,PE7*%
%TO.N,QUADSPI_BK2_IO0*%
X129489200Y-81768000D03*
%TO.P,U1,58,PE8*%
%TO.N,QUADSPI_BK2_IO1*%
X129489200Y-82267999D03*
%TO.P,U1,59,PE9*%
%TO.N,QUADSPI_BK2_IO2*%
X129489200Y-82768001D03*
%TO.P,U1,60,PE10*%
%TO.N,QUADSPI_BK2_IO3*%
X129489200Y-83268000D03*
%TO.P,U1,61,PE11*%
%TO.N,unconnected-(U1B-PE11-Pad61)*%
X129489200Y-83768001D03*
%TO.P,U1,62,PE12*%
%TO.N,unconnected-(U1B-PE12-Pad62)*%
X129489200Y-84268000D03*
%TO.P,U1,63,PE13*%
%TO.N,unconnected-(U1B-PE13-Pad63)*%
X129489200Y-84767999D03*
%TO.P,U1,64,PE14*%
%TO.N,unconnected-(U1B-PE14-Pad64)*%
X129489200Y-85268001D03*
%TO.P,U1,65,PE15*%
%TO.N,unconnected-(U1B-PE15-Pad65)*%
X129489200Y-85768000D03*
%TO.P,U1,66,PB10*%
%TO.N,QUADSPI_BK1_NCS*%
X129489200Y-86268001D03*
%TO.P,U1,67,PB11*%
%TO.N,InteruptionMPU*%
X129489200Y-86768000D03*
%TO.P,U1,68,VCAP*%
%TO.N,/circuit_alimentation/Vcap1(68)*%
X129489200Y-87267999D03*
%TO.P,U1,69,VSS*%
%TO.N,GND*%
X129489200Y-87768001D03*
%TO.P,U1,70,VDDLDO*%
%TO.N,+3.3V*%
X129489200Y-88268000D03*
%TO.P,U1,71,VDD*%
X129489200Y-88768001D03*
%TO.P,U1,72,PB12*%
%TO.N,NSS*%
X129489200Y-89268000D03*
D47*
%TO.P,U1,73,PB13*%
%TO.N,SCK*%
X131458000Y-91236800D03*
%TO.P,U1,74,PB14*%
%TO.N,MISO*%
X131957999Y-91236800D03*
%TO.P,U1,75,PB15*%
%TO.N,MOSI*%
X132458000Y-91236800D03*
%TO.P,U1,76,PD8*%
%TO.N,unconnected-(U1A-PD8-Pad76)*%
X132957999Y-91236800D03*
%TO.P,U1,77,PD9*%
%TO.N,unconnected-(U1A-PD9-Pad77)*%
X133458001Y-91236800D03*
%TO.P,U1,78,PD10*%
%TO.N,unconnected-(U1A-PD10-Pad78)*%
X133958000Y-91236800D03*
%TO.P,U1,79,VDD*%
%TO.N,+3.3V*%
X134457999Y-91236800D03*
%TO.P,U1,80,VSS*%
%TO.N,GND*%
X134958000Y-91236800D03*
%TO.P,U1,81,PD11*%
%TO.N,unconnected-(U1A-PD11-Pad81)*%
X135457999Y-91236800D03*
%TO.P,U1,82,PD12*%
%TO.N,unconnected-(U1A-PD12-Pad82)*%
X135958001Y-91236800D03*
%TO.P,U1,83,PD13*%
%TO.N,unconnected-(U1A-PD13-Pad83)*%
X136458000Y-91236800D03*
%TO.P,U1,84,PD14*%
%TO.N,unconnected-(U1A-PD14-Pad84)*%
X136957999Y-91236800D03*
%TO.P,U1,85,PD15*%
%TO.N,unconnected-(U1A-PD15-Pad85)*%
X137458000Y-91236800D03*
%TO.P,U1,86,PG6*%
%TO.N,unconnected-(U1B-PG6-Pad86)*%
X137957999Y-91236800D03*
%TO.P,U1,87,PG7*%
%TO.N,unconnected-(U1B-PG7-Pad87)*%
X138458001Y-91236800D03*
%TO.P,U1,88,PG8*%
%TO.N,unconnected-(U1B-PG8-Pad88)*%
X138958000Y-91236800D03*
%TO.P,U1,89,VSS*%
%TO.N,GND*%
X139457999Y-91236800D03*
%TO.P,U1,90,VDD50USB*%
X139958000Y-91236800D03*
%TO.P,U1,91,VDD33USB*%
X140458000Y-91236800D03*
%TO.P,U1,92,VDD*%
%TO.N,+3.3V*%
X140958001Y-91236800D03*
%TO.P,U1,93,PC6*%
%TO.N,unconnected-(U1A-PC6-Pad93)*%
X141458000Y-91236800D03*
%TO.P,U1,94,PC7*%
%TO.N,unconnected-(U1A-PC7-Pad94)*%
X141957999Y-91236800D03*
%TO.P,U1,95,PC8*%
%TO.N,unconnected-(U1A-PC8-Pad95)*%
X142458001Y-91236800D03*
%TO.P,U1,96,PC9*%
%TO.N,unconnected-(U1A-PC9-Pad96)*%
X142958000Y-91236800D03*
%TO.P,U1,97,PA8*%
%TO.N,unconnected-(U1A-PA8-Pad97)*%
X143458001Y-91236800D03*
%TO.P,U1,98,PA9*%
%TO.N,unconnected-(U1A-PA9-Pad98)*%
X143958000Y-91236800D03*
%TO.P,U1,99,PA10*%
%TO.N,USB_check*%
X144457999Y-91236800D03*
%TO.P,U1,100,PA11*%
%TO.N,USB_D-*%
X144958001Y-91236800D03*
%TO.P,U1,101,PA12*%
%TO.N,USB_D+*%
X145458000Y-91236800D03*
%TO.P,U1,102,PA13*%
%TO.N,SWDIO*%
X145958001Y-91236800D03*
%TO.P,U1,103,VCAP*%
%TO.N,/circuit_alimentation/Vcap2(103)*%
X146458000Y-91236800D03*
%TO.P,U1,104,VSS*%
%TO.N,GND*%
X146957999Y-91236800D03*
%TO.P,U1,105,VDDLDO*%
%TO.N,+3.3V*%
X147458001Y-91236800D03*
%TO.P,U1,106,VDD*%
X147958000Y-91236800D03*
%TO.P,U1,107,PA14*%
%TO.N,SWCLK*%
X148458001Y-91236800D03*
%TO.P,U1,108,PA15*%
%TO.N,unconnected-(U1A-PA15-Pad108)*%
X148958000Y-91236800D03*
D48*
%TO.P,U1,109,PC10*%
%TO.N,unconnected-(U1A-PC10-Pad109)*%
X150926800Y-89268000D03*
%TO.P,U1,110,PC11*%
%TO.N,QUADSPI_BK2_NCS*%
X150926800Y-88768001D03*
%TO.P,U1,111,PC12*%
%TO.N,unconnected-(U1A-PC12-Pad111)*%
X150926800Y-88268000D03*
%TO.P,U1,112,PD0*%
%TO.N,unconnected-(U1A-PD0-Pad112)*%
X150926800Y-87768001D03*
%TO.P,U1,113,PD1*%
%TO.N,unconnected-(U1A-PD1-Pad113)*%
X150926800Y-87267999D03*
%TO.P,U1,114,PD2*%
%TO.N,Net-(U1A-PD2)*%
X150926800Y-86768000D03*
%TO.P,U1,115,PD3*%
%TO.N,unconnected-(U1A-PD3-Pad115)*%
X150926800Y-86268001D03*
%TO.P,U1,116,PD4*%
%TO.N,unconnected-(U1A-PD4-Pad116)*%
X150926800Y-85768000D03*
%TO.P,U1,117,PD5*%
%TO.N,unconnected-(U1A-PD5-Pad117)*%
X150926800Y-85268001D03*
%TO.P,U1,118,VSS*%
%TO.N,GND*%
X150926800Y-84767999D03*
%TO.P,U1,119,VDD*%
%TO.N,+3.3V*%
X150926800Y-84268000D03*
%TO.P,U1,120,PD6*%
%TO.N,Net-(U1A-PD6)*%
X150926800Y-83768001D03*
%TO.P,U1,121,PD7*%
%TO.N,unconnected-(U1A-PD7-Pad121)*%
X150926800Y-83268000D03*
%TO.P,U1,122,PG9*%
%TO.N,unconnected-(U1B-PG9-Pad122)*%
X150926800Y-82768001D03*
%TO.P,U1,123,PG10*%
%TO.N,unconnected-(U1B-PG10-Pad123)*%
X150926800Y-82267999D03*
%TO.P,U1,124,PG11*%
%TO.N,unconnected-(U1B-PG11-Pad124)*%
X150926800Y-81768000D03*
%TO.P,U1,125,PG12*%
%TO.N,unconnected-(U1B-PG12-Pad125)*%
X150926800Y-81268001D03*
%TO.P,U1,126,PG13*%
%TO.N,unconnected-(U1B-PG13-Pad126)*%
X150926800Y-80768000D03*
%TO.P,U1,127,PG14*%
%TO.N,unconnected-(U1B-PG14-Pad127)*%
X150926800Y-80268000D03*
%TO.P,U1,128,VSS*%
%TO.N,GND*%
X150926800Y-79767999D03*
%TO.P,U1,129,VDD*%
%TO.N,+3.3V*%
X150926800Y-79268000D03*
%TO.P,U1,130,PB3*%
%TO.N,SWO*%
X150926800Y-78768001D03*
%TO.P,U1,131,PB4*%
%TO.N,unconnected-(U1A-PB4-Pad131)*%
X150926800Y-78267999D03*
%TO.P,U1,132,PB5*%
%TO.N,unconnected-(U1A-PB5-Pad132)*%
X150926800Y-77768000D03*
%TO.P,U1,133,PB6*%
%TO.N,Buzz_on*%
X150926800Y-77267999D03*
%TO.P,U1,134,PB7*%
%TO.N,unconnected-(U1A-PB7-Pad134)*%
X150926800Y-76768000D03*
%TO.P,U1,135,BOOT0*%
%TO.N,Net-(U1B-BOOT0)*%
X150926800Y-76268001D03*
%TO.P,U1,136,PB8*%
%TO.N,unconnected-(U1A-PB8-Pad136)*%
X150926800Y-75767999D03*
%TO.P,U1,137,PB9*%
%TO.N,unconnected-(U1A-PB9-Pad137)*%
X150926800Y-75268000D03*
%TO.P,U1,138,PE0*%
%TO.N,unconnected-(U1B-PE0-Pad138)*%
X150926800Y-74767999D03*
%TO.P,U1,139,PE1*%
%TO.N,unconnected-(U1B-PE1-Pad139)*%
X150926800Y-74268000D03*
%TO.P,U1,140,VCAP*%
%TO.N,/circuit_alimentation/VFBSMPS*%
X150926800Y-73768001D03*
%TO.P,U1,141,VSS*%
%TO.N,GND*%
X150926800Y-73267999D03*
%TO.P,U1,142,PDR_ON*%
X150926800Y-72768000D03*
%TO.P,U1,143,VDDLDO*%
%TO.N,/circuit_alimentation/VFBSMPS*%
X150926800Y-72267999D03*
%TO.P,U1,144,VDD*%
%TO.N,+3.3V*%
X150926800Y-71768000D03*
%TD*%
D33*
%TO.P,U4,1,OUTA*%
%TO.N,ADC12_INP18-SG5.6*%
X113928000Y-56429000D03*
%TO.P,U4,2,NEGA*%
X113928000Y-57079000D03*
%TO.P,U4,3,POSA*%
%TO.N,/circuits_capteurs/Suiveur2*%
X113928000Y-57729000D03*
%TO.P,U4,4,V-*%
%TO.N,GND*%
X113928000Y-58379000D03*
%TO.P,U4,5,POSB*%
%TO.N,/circuits_capteurs/Suiveur1*%
X118228000Y-58379000D03*
%TO.P,U4,6,NEGB*%
%TO.N,ADC12_INP15-SG3.4*%
X118228000Y-57729000D03*
%TO.P,U4,7,OUTB*%
X118228000Y-57079000D03*
%TO.P,U4,8,V+*%
%TO.N,+3.3V*%
X118228000Y-56429000D03*
%TD*%
D12*
%TO.P,SW2,1,1*%
%TO.N,Net-(U1A-PD6)*%
X157024000Y-93762000D03*
D13*
%TO.P,SW2,2*%
%TO.N,N/C*%
X163524000Y-93762000D03*
%TO.P,SW2,3*%
X157024000Y-98262000D03*
%TO.P,SW2,4,4*%
%TO.N,+3.3V*%
X163524000Y-98262000D03*
%TD*%
D17*
%TO.P,R18,1*%
%TO.N,Net-(U2-VOUTB)*%
X89662000Y-60515000D03*
%TO.P,R18,2*%
%TO.N,/circuits_capteurs/Suiveur1*%
X89662000Y-58865000D03*
%TD*%
D27*
%TO.P,Programming_pins1,1,Pin_1*%
%TO.N,SWDIO*%
X148501100Y-109258100D03*
%TO.P,Programming_pins1,2,Pin_2*%
%TO.N,SWCLK*%
X145961100Y-109258100D03*
%TO.P,Programming_pins1,3,Pin_3*%
%TO.N,SWO*%
X143421100Y-109258100D03*
%TO.P,Programming_pins1,4,Pin_4*%
%TO.N,GND*%
X140881100Y-109258100D03*
%TO.P,Programming_pins1,5,Pin_5*%
%TO.N,+3.3V*%
X138341100Y-109258100D03*
%TD*%
D49*
%TO.P,D2,1,-*%
%TO.N,Net-(D2--)*%
X85852000Y-106426000D03*
D50*
%TO.P,D2,2,+*%
%TO.N,+3.3V*%
X85852000Y-111506000D03*
%TD*%
D11*
%TO.P,H7,1,1*%
%TO.N,GND*%
X135890000Y-117348000D03*
%TD*%
D20*
%TO.P,R19,1*%
%TO.N,Net-(U2-RGB)*%
X89217000Y-71882000D03*
%TO.P,R19,2*%
%TO.N,GND*%
X87567000Y-71882000D03*
%TD*%
D26*
%TO.P,C15,1*%
%TO.N,/circuit_alimentation/Vcap1(68)*%
X123698000Y-86005500D03*
%TO.P,C15,2*%
%TO.N,GND*%
X123698000Y-87730500D03*
%TD*%
D51*
%TO.N,GND*%
X68072000Y-103632000D03*
%TO.N,+3.3V*%
X83032600Y-115163600D03*
%TO.N,GND*%
X111175800Y-58420000D03*
X123723400Y-89408000D03*
X86360000Y-52832000D03*
X103047800Y-91135200D03*
X123952000Y-41910000D03*
X94488000Y-48260000D03*
X127800000Y-80200000D03*
X86029800Y-71907400D03*
X113868200Y-68732400D03*
X143103600Y-68046600D03*
X95478600Y-104876600D03*
X75692000Y-54102000D03*
X159867600Y-66979800D03*
X73400000Y-102200000D03*
X152800000Y-80600000D03*
X120142000Y-90862150D03*
X147600000Y-93200000D03*
X93649800Y-118618000D03*
X98221800Y-58166000D03*
X146583400Y-41808400D03*
X105309500Y-60960900D03*
X98882200Y-88595200D03*
X124104400Y-93014800D03*
X78232000Y-54102000D03*
X128981200Y-97282000D03*
X84428500Y-55832500D03*
X148996400Y-57683400D03*
X134620000Y-41757600D03*
X90068400Y-65405000D03*
X102692200Y-84683600D03*
X107111800Y-58470800D03*
X153000000Y-73400000D03*
X103600000Y-108000000D03*
X113436400Y-52603400D03*
X103632000Y-77952600D03*
X147000000Y-67800000D03*
X135400000Y-93200000D03*
X133200000Y-68000000D03*
X103530400Y-99288600D03*
X152800000Y-86000000D03*
X127533400Y-72796400D03*
X139400000Y-93200000D03*
X123647200Y-97536000D03*
X125044200Y-88050100D03*
X140004800Y-71602600D03*
X88200000Y-101600000D03*
%TO.N,+3.3V*%
X72161400Y-47091600D03*
X145400000Y-67800000D03*
X152800000Y-79000000D03*
X153000000Y-71800000D03*
X127228600Y-89585800D03*
X84670900Y-112687100D03*
D52*
X101930200Y-58420000D03*
X104800400Y-91186000D03*
D51*
X127800000Y-81800000D03*
X152800000Y-84200000D03*
X76000000Y-98600000D03*
D52*
X91948000Y-87503000D03*
X118440200Y-54178200D03*
X91948000Y-79756000D03*
D51*
X141262500Y-93462500D03*
X150000000Y-93000000D03*
X127558800Y-74371200D03*
X143611600Y-71348600D03*
X133800000Y-93200000D03*
X140937500Y-67862500D03*
D52*
X99085400Y-79654400D03*
X118135400Y-63804800D03*
X116967000Y-68478400D03*
D51*
X156083000Y-55295800D03*
X131600000Y-68000000D03*
X125222000Y-99085400D03*
D52*
X81788000Y-54102000D03*
D51*
X116281200Y-83292950D03*
%TO.N,/circuits_capteurs/Suiveur*%
X89865200Y-51079400D03*
X116433600Y-67030600D03*
X98120200Y-59461400D03*
X101574600Y-62890400D03*
D52*
%TO.N,+1V8*%
X123063000Y-95656400D03*
X101752400Y-78028800D03*
%TO.N,/circuits_capteurs/Suiveur1*%
X118262400Y-59766200D03*
X91795600Y-58775600D03*
%TO.N,ADC1_INP16-Therm2*%
X116001800Y-78892400D03*
X126161800Y-70408800D03*
%TO.N,/circuit_alimentation/VLXSMPS*%
X141554200Y-60045600D03*
X142138400Y-71323200D03*
%TO.N,/circuit_alimentation/VFBSMPS*%
X141478000Y-72364600D03*
X149453600Y-72796400D03*
X142163800Y-55981600D03*
%TO.N,USB_D-*%
X144449800Y-89154000D03*
X118364000Y-106019600D03*
%TO.N,USB_D+*%
X145948400Y-89179400D03*
X120370600Y-105994200D03*
%TO.N,SWCLK*%
X148437600Y-89408000D03*
%TO.N,SWO*%
X149326600Y-78765400D03*
%TO.N,Net-(U1A-PC0)*%
X134848600Y-71475600D03*
X115671600Y-77114400D03*
%TO.N,Net-(U1A-PA2)*%
X131851400Y-72440800D03*
X127990600Y-70434200D03*
%TO.N,Net-(U1A-PA3)*%
X131876800Y-74371200D03*
X124612400Y-64008000D03*
%TO.N,ADC12_INP18-SG5.6*%
X119761000Y-67919600D03*
X115874800Y-57073800D03*
%TO.N,SCK*%
X128905000Y-91821000D03*
X130657600Y-91744800D03*
%TO.N,MOSI*%
X132486400Y-92837000D03*
X127812800Y-93522800D03*
D51*
%TO.N,/circuits_capteurs/IN-*%
X92583000Y-57150000D03*
X76022200Y-55143400D03*
D52*
%TO.N,Net-(U6-RGB)*%
X94462600Y-62077600D03*
%TO.N,USB_check*%
X97231200Y-114096800D03*
X143357600Y-93878400D03*
%TO.N,QUADSPI_BK1_IO3*%
X156083000Y-67589400D03*
X141681200Y-73685400D03*
%TO.N,QUADSPI_BK1_IO2*%
X138023600Y-71602600D03*
X158623000Y-66446400D03*
%TO.N,QUADSPI_BK1_IO0*%
X139395200Y-67564000D03*
X148717000Y-63779400D03*
%TO.N,QUADSPI_BK1_IO1*%
X138328400Y-66675000D03*
X138328400Y-63627000D03*
%TO.N,QUADSPI_CLK*%
X120192800Y-79883000D03*
X136575800Y-71602600D03*
%TO.N,QUADSPI_BK2_IO0*%
X131267200Y-81076800D03*
X122174000Y-81432400D03*
%TO.N,QUADSPI_BK2_IO1*%
X131267200Y-82270600D03*
X119151400Y-85267800D03*
%TO.N,QUADSPI_BK2_IO2*%
X120167400Y-86461600D03*
X131343400Y-83667600D03*
%TO.N,InteruptionMPU*%
X123901200Y-98704400D03*
X131597400Y-86766400D03*
%TO.N,MISO*%
X121793000Y-96672400D03*
X131953000Y-89001600D03*
%TO.N,QUADSPI_BK2_NCS*%
X145897600Y-86004400D03*
X116306600Y-87452200D03*
%TO.N,Therm1*%
X103759000Y-96647000D03*
X86461600Y-80721200D03*
%TO.N,Therm2*%
X86385400Y-83108800D03*
X103809800Y-97917000D03*
%TO.N,SG1_2*%
X69011800Y-57200800D03*
X71653400Y-54552500D03*
%TD*%
D53*
%TO.N,+3.3V*%
X139958000Y-68842000D02*
X139958000Y-69799200D01*
X140937500Y-67862500D02*
X139958000Y-68842000D01*
D54*
X140937500Y-67862500D02*
X140937500Y-66200000D01*
D53*
X140937500Y-67862500D02*
X141458000Y-68383000D01*
X141458000Y-68383000D02*
X141458000Y-69799200D01*
X140958001Y-93158001D02*
X140958001Y-91236800D01*
X141262500Y-93462500D02*
X140958001Y-93158001D01*
D55*
%TO.N,GND*%
X97825801Y-57770001D02*
X97155000Y-57770001D01*
X98617799Y-57770001D02*
X100101400Y-57770001D01*
X98221800Y-58166000D02*
X98617799Y-57770001D01*
X99125801Y-59070001D02*
X100101400Y-59070001D01*
X98221800Y-58166000D02*
X99125801Y-59070001D01*
X98221800Y-58166000D02*
X97825801Y-57770001D01*
X98221800Y-58166000D02*
X98221800Y-57770001D01*
D54*
X63645000Y-42926000D02*
X68771000Y-42926000D01*
X61913000Y-44658000D02*
X63645000Y-42926000D01*
X61913000Y-47099000D02*
X61913000Y-44658000D01*
%TO.N,/circuit_alimentation/VLXSMPS*%
X140385800Y-58877200D02*
X140385800Y-57771000D01*
X141554200Y-60045600D02*
X140385800Y-58877200D01*
X140385800Y-57771000D02*
X141122400Y-57771000D01*
X139192000Y-57771000D02*
X140385800Y-57771000D01*
X141122400Y-59613800D02*
X141122400Y-57771000D01*
X141122400Y-57771000D02*
X142113000Y-57771000D01*
X141554200Y-60045600D02*
X141122400Y-59613800D01*
X142113000Y-59486800D02*
X142113000Y-57771000D01*
X141554200Y-60045600D02*
X142113000Y-59486800D01*
X142113000Y-57771000D02*
X145074500Y-57771000D01*
X143828800Y-57771000D02*
X145074500Y-57771000D01*
X141554200Y-60045600D02*
X143828800Y-57771000D01*
%TO.N,+3.3V*%
X83032600Y-114300000D02*
X83032600Y-115163600D01*
X84670900Y-112687100D02*
X84645500Y-112687100D01*
X84645500Y-112687100D02*
X83032600Y-114300000D01*
X83032600Y-115163600D02*
X83058000Y-115189000D01*
X83058000Y-115189000D02*
X83058000Y-116840000D01*
X84670900Y-112687100D02*
X85852000Y-111506000D01*
D56*
%TO.N,GND*%
X128614043Y-97282000D02*
X128981200Y-97282000D01*
D53*
X150926800Y-72768000D02*
X152368000Y-72768000D01*
D57*
X120167400Y-89096850D02*
X120167400Y-90836750D01*
D54*
X124105500Y-94678500D02*
X124283000Y-94856000D01*
X154456000Y-85862500D02*
X154400000Y-85806500D01*
D55*
X96366500Y-90170000D02*
X97256500Y-90170000D01*
D54*
X85292100Y-54051200D02*
X85292100Y-54968900D01*
D53*
X146957999Y-91236800D02*
X146957999Y-92557999D01*
D54*
X105309500Y-62517500D02*
X105309500Y-60273100D01*
D58*
X93972750Y-65160500D02*
X93975000Y-65158250D01*
D54*
X88138000Y-52678500D02*
X86513500Y-52678500D01*
D56*
X128378000Y-97205800D02*
X128378000Y-97289243D01*
D53*
X130575800Y-75303699D02*
X130575800Y-76232299D01*
D54*
X157000000Y-85862500D02*
X154456000Y-85862500D01*
X108712000Y-56488500D02*
X108712000Y-56769000D01*
D56*
X128777157Y-97486043D02*
X128981200Y-97282000D01*
D54*
X115215500Y-52578000D02*
X113461800Y-52578000D01*
X133062500Y-64000000D02*
X133062500Y-66400000D01*
D53*
X127863600Y-73126600D02*
X127533400Y-72796400D01*
D54*
X150600000Y-96462500D02*
X148614500Y-96462500D01*
X150600000Y-96462500D02*
X149725000Y-96462500D01*
D58*
X93975000Y-65158250D02*
X92647250Y-65158250D01*
D53*
X150926800Y-84767999D02*
X151977698Y-84767999D01*
D54*
X142662500Y-67605500D02*
X142662500Y-66200000D01*
X105256500Y-62464500D02*
X105309500Y-62517500D01*
D56*
X128574800Y-97486043D02*
X128777157Y-97486043D01*
D53*
X73642000Y-91775000D02*
X70800000Y-91775000D01*
D57*
X159867600Y-64960500D02*
X159893000Y-64935100D01*
D54*
X154400000Y-80662500D02*
X152862500Y-80662500D01*
D53*
X134958000Y-69799200D02*
X134958000Y-69176900D01*
D58*
X92647250Y-65158250D02*
X92199650Y-65605850D01*
D56*
X127783000Y-96866000D02*
X128198043Y-96866000D01*
D59*
X123952000Y-41910000D02*
X123952000Y-45727506D01*
D57*
X120167400Y-90836750D02*
X120142000Y-90862150D01*
D55*
X100375500Y-98186000D02*
X98725500Y-99836000D01*
D53*
X134458001Y-68748301D02*
X133709700Y-68000000D01*
D54*
X156025000Y-76400000D02*
X156025000Y-74437500D01*
X73465000Y-104126000D02*
X73465000Y-102265000D01*
D53*
X127863600Y-73152000D02*
X127863600Y-73126600D01*
X151967999Y-79767999D02*
X152800000Y-80600000D01*
X132458000Y-69799200D02*
X132458000Y-68742000D01*
D55*
X113928000Y-58379000D02*
X112303200Y-58379000D01*
D53*
X140004800Y-71602600D02*
X140458000Y-71149400D01*
D54*
X70719000Y-91694000D02*
X70800000Y-91775000D01*
X85852000Y-101537000D02*
X88137000Y-101537000D01*
D53*
X134458001Y-69799200D02*
X134458001Y-68748301D01*
D55*
X93649800Y-118618000D02*
X95497000Y-118618000D01*
D59*
X134620000Y-41757600D02*
X134620000Y-45727506D01*
D56*
X128053043Y-97811000D02*
X127238000Y-97811000D01*
D57*
X124460000Y-106904000D02*
X122880000Y-108484000D01*
D54*
X139537500Y-93337500D02*
X139400000Y-93200000D01*
X146912500Y-57658000D02*
X148971000Y-57658000D01*
D53*
X150926800Y-79767999D02*
X151967999Y-79767999D01*
D54*
X126238000Y-80163500D02*
X127763500Y-80163500D01*
D58*
X91765000Y-65171200D02*
X92199650Y-65605850D01*
D54*
X67241500Y-101378000D02*
X67971500Y-102108000D01*
D55*
X95628601Y-58420000D02*
X94462600Y-58420000D01*
D54*
X86055200Y-71882000D02*
X86029800Y-71907400D01*
D58*
X91765000Y-65160500D02*
X93972750Y-65160500D01*
D54*
X126230000Y-80155500D02*
X126238000Y-80163500D01*
D53*
X129489200Y-73768001D02*
X128479601Y-73768001D01*
X128368000Y-80768000D02*
X127800000Y-80200000D01*
D55*
X103062500Y-92831500D02*
X103062500Y-91149900D01*
X95504000Y-104902000D02*
X95478600Y-104876600D01*
D54*
X105309500Y-60273100D02*
X106210100Y-59372500D01*
X108712000Y-56488500D02*
X108712000Y-56870600D01*
X103737500Y-108137500D02*
X103600000Y-108000000D01*
D55*
X103062500Y-91149900D02*
X103047800Y-91135200D01*
D58*
X103478500Y-77799100D02*
X103632000Y-77952600D01*
D53*
X130540099Y-75268000D02*
X130575800Y-75232299D01*
D56*
X128378000Y-97045957D02*
X128378000Y-97205800D01*
D54*
X147062500Y-66200000D02*
X147062500Y-67737500D01*
X148062500Y-94800000D02*
X148062500Y-96985500D01*
X135462500Y-97000000D02*
X135462500Y-94820000D01*
X88137000Y-101537000D02*
X88200000Y-101600000D01*
X85292100Y-54968900D02*
X84428500Y-55832500D01*
X67971500Y-102108000D02*
X67971500Y-104701000D01*
D58*
X103478500Y-76454000D02*
X103478500Y-77799100D01*
D57*
X159867600Y-66979800D02*
X159867600Y-64960500D01*
D54*
X123698000Y-80155500D02*
X126230000Y-80155500D01*
D53*
X140458000Y-91236800D02*
X140458000Y-92142000D01*
D55*
X78232000Y-53763201D02*
X78543200Y-53452001D01*
D54*
X105256500Y-58420000D02*
X107061000Y-58420000D01*
D53*
X146458000Y-68342000D02*
X147000000Y-67800000D01*
D54*
X127509100Y-72772100D02*
X127533400Y-72796400D01*
X91129500Y-65405000D02*
X91765000Y-66040500D01*
X139958000Y-92642000D02*
X139400000Y-93200000D01*
X148614500Y-96462500D02*
X148077000Y-97000000D01*
D53*
X151977698Y-84767999D02*
X152800000Y-85590301D01*
X134958000Y-69176900D02*
X133781100Y-68000000D01*
D54*
X63222000Y-101378000D02*
X67241500Y-101378000D01*
X154400000Y-85806500D02*
X152993500Y-85806500D01*
D53*
X129489200Y-75268000D02*
X130540101Y-75268000D01*
X143103600Y-68046600D02*
X142458001Y-68692199D01*
D55*
X100101400Y-57770001D02*
X98221800Y-57770001D01*
D54*
X123698000Y-87730500D02*
X123698000Y-90524500D01*
X84430700Y-55834700D02*
X84428500Y-55832500D01*
D53*
X129489200Y-75268000D02*
X130540099Y-75268000D01*
D54*
X73400000Y-100462500D02*
X73400000Y-102200000D01*
D53*
X130540101Y-73768001D02*
X129489200Y-73768001D01*
D54*
X135482500Y-94800000D02*
X135482500Y-93282500D01*
D53*
X139457999Y-91236800D02*
X139457999Y-93142001D01*
D57*
X124460000Y-103478500D02*
X124460000Y-106904000D01*
D54*
X148971000Y-57658000D02*
X148996400Y-57683400D01*
X110312200Y-58369200D02*
X112293400Y-58369200D01*
X133062500Y-66400000D02*
X133062500Y-67862500D01*
X94488000Y-50229000D02*
X94488000Y-48260000D01*
D53*
X129489200Y-87768001D02*
X126385501Y-87768001D01*
D58*
X91765000Y-65160500D02*
X91765000Y-65171200D01*
D55*
X78232000Y-54102000D02*
X78232000Y-53763201D01*
D54*
X123621800Y-72772100D02*
X126161800Y-72772100D01*
X157000000Y-80662500D02*
X154400000Y-80662500D01*
X113461800Y-52578000D02*
X113436400Y-52603400D01*
D53*
X146957999Y-92557999D02*
X147600000Y-93200000D01*
D54*
X153062500Y-73462500D02*
X153000000Y-73400000D01*
X152862500Y-80662500D02*
X152800000Y-80600000D01*
X108712000Y-56769000D02*
X110312200Y-58369200D01*
X105257600Y-58420000D02*
X106210100Y-59372500D01*
X67971500Y-104701000D02*
X68580000Y-105309500D01*
X142662500Y-64000000D02*
X142662500Y-66200000D01*
X107061000Y-58420000D02*
X107111800Y-58470800D01*
D53*
X134958000Y-92758000D02*
X135400000Y-93200000D01*
D54*
X108712000Y-58369200D02*
X107213400Y-58369200D01*
D55*
X95504000Y-107341500D02*
X95504000Y-104902000D01*
D54*
X123698000Y-90524500D02*
X124105500Y-90932000D01*
D55*
X102425500Y-98186000D02*
X104775500Y-100536000D01*
D54*
X105256500Y-58420000D02*
X105257600Y-58420000D01*
D53*
X146458000Y-69799200D02*
X146458000Y-68342000D01*
D55*
X78232000Y-54368600D02*
X78615401Y-54752001D01*
D56*
X128378000Y-97486043D02*
X128053043Y-97811000D01*
D54*
X148062500Y-96985500D02*
X148077000Y-97000000D01*
D53*
X129489200Y-80768000D02*
X128368000Y-80768000D01*
D54*
X152993500Y-85806500D02*
X152800000Y-86000000D01*
D53*
X130540101Y-75268000D02*
X130575800Y-75303699D01*
D56*
X128198043Y-96866000D02*
X128378000Y-97045957D01*
D53*
X132458000Y-68742000D02*
X133200000Y-68000000D01*
D54*
X86513500Y-52678500D02*
X86360000Y-52832000D01*
X135482500Y-93282500D02*
X135400000Y-93200000D01*
D56*
X128385243Y-97282000D02*
X128981200Y-97282000D01*
D53*
X140458000Y-71149400D02*
X140458000Y-69799200D01*
D55*
X78543200Y-53452001D02*
X79781400Y-53452001D01*
D53*
X152800000Y-85590301D02*
X152800000Y-86000000D01*
D54*
X147062500Y-63868000D02*
X147062500Y-66200000D01*
D55*
X101700500Y-98186000D02*
X100375500Y-98186000D01*
D53*
X126385501Y-87768001D02*
X126348000Y-87730500D01*
D55*
X74142600Y-54102000D02*
X75692000Y-54102000D01*
D54*
X154400000Y-73462500D02*
X153062500Y-73462500D01*
X126161800Y-72772100D02*
X127509100Y-72772100D01*
D53*
X128265001Y-72267999D02*
X127736600Y-72796400D01*
D54*
X143103600Y-68046600D02*
X142662500Y-67605500D01*
X108712000Y-56870600D02*
X107111800Y-58470800D01*
X107213400Y-58369200D02*
X107111800Y-58470800D01*
X90068400Y-65405000D02*
X91129500Y-65405000D01*
D53*
X74133000Y-91284000D02*
X73642000Y-91775000D01*
D54*
X127763500Y-80163500D02*
X127800000Y-80200000D01*
D53*
X140458000Y-92142000D02*
X139400000Y-93200000D01*
D55*
X113837500Y-67015000D02*
X113837500Y-68726000D01*
X78232000Y-54102000D02*
X78232000Y-54368600D01*
D54*
X139535500Y-94802000D02*
X139537500Y-94800000D01*
X139958000Y-91236800D02*
X139958000Y-92642000D01*
D55*
X96278600Y-57770001D02*
X95628601Y-58420000D01*
D53*
X129489200Y-72267999D02*
X128265001Y-72267999D01*
D56*
X127783000Y-96466000D02*
X127783000Y-96866000D01*
D59*
X146583400Y-45745400D02*
X146583400Y-41808400D01*
D55*
X101700500Y-98186000D02*
X102425500Y-98186000D01*
D54*
X157000000Y-73462500D02*
X154400000Y-73462500D01*
X105200000Y-108137500D02*
X103737500Y-108137500D01*
D56*
X128536278Y-97447522D02*
X128574800Y-97486043D01*
D53*
X152867999Y-73267999D02*
X153000000Y-73400000D01*
D55*
X95497000Y-118618000D02*
X95504000Y-118625000D01*
D53*
X130575800Y-76232299D02*
X130540098Y-76268001D01*
D54*
X133062500Y-67862500D02*
X133200000Y-68000000D01*
X135462500Y-94820000D02*
X135482500Y-94800000D01*
X139537500Y-94800000D02*
X139537500Y-93337500D01*
X106210100Y-59372500D02*
X107111800Y-58470800D01*
X124105500Y-90932000D02*
X124105500Y-94678500D01*
D56*
X124693000Y-96866000D02*
X124207041Y-96866000D01*
X128701800Y-97282000D02*
X128536278Y-97447522D01*
D55*
X78615401Y-54752001D02*
X79781400Y-54752001D01*
X113837500Y-68726000D02*
X115215500Y-70104000D01*
D54*
X63246000Y-91694000D02*
X70719000Y-91694000D01*
D56*
X128905000Y-97205800D02*
X128981200Y-97282000D01*
D54*
X110312200Y-58369200D02*
X108712000Y-58369200D01*
D53*
X130575800Y-73803700D02*
X130540101Y-73768001D01*
X142458001Y-68692199D02*
X142458001Y-69799200D01*
D54*
X148062500Y-94800000D02*
X148062500Y-93665681D01*
D56*
X128378000Y-97205800D02*
X128905000Y-97205800D01*
D58*
X92199650Y-65605850D02*
X91765000Y-66040500D01*
D53*
X133709700Y-68000000D02*
X133200000Y-68000000D01*
X134958000Y-91236800D02*
X134958000Y-92758000D01*
D55*
X98221800Y-57770001D02*
X97155000Y-57770001D01*
D53*
X139457999Y-93142001D02*
X139400000Y-93200000D01*
D55*
X100558500Y-86868000D02*
X102717600Y-84708900D01*
D56*
X128378000Y-97205800D02*
X128378000Y-97486043D01*
D58*
X91765000Y-65160500D02*
X91765000Y-66040500D01*
D54*
X147062500Y-67737500D02*
X147000000Y-67800000D01*
D53*
X130575800Y-75232299D02*
X130575800Y-73803700D01*
X143103600Y-68046600D02*
X143458001Y-68401001D01*
D56*
X128378000Y-97289243D02*
X128536278Y-97447522D01*
D53*
X150926800Y-73267999D02*
X152867999Y-73267999D01*
X127736600Y-72796400D02*
X127533400Y-72796400D01*
X128479601Y-73768001D02*
X127863600Y-73152000D01*
X133781100Y-68000000D02*
X133200000Y-68000000D01*
D56*
X123621800Y-97451241D02*
X123621800Y-97536000D01*
D54*
X108712000Y-56488500D02*
X108712000Y-58369200D01*
D56*
X128198043Y-96866000D02*
X128614043Y-97282000D01*
D54*
X156025000Y-74437500D02*
X157000000Y-73462500D01*
D53*
X152368000Y-72768000D02*
X153000000Y-73400000D01*
D56*
X128378000Y-97486043D02*
X128574800Y-97486043D01*
D54*
X73465000Y-102265000D02*
X73400000Y-102200000D01*
X149725000Y-96462500D02*
X148062500Y-94800000D01*
X105256500Y-58420000D02*
X105256500Y-62464500D01*
D56*
X128981200Y-97282000D02*
X128701800Y-97282000D01*
D55*
X97155000Y-57770001D02*
X96278600Y-57770001D01*
D53*
X132957999Y-68242001D02*
X133200000Y-68000000D01*
D55*
X102717600Y-84708900D02*
X102717600Y-82346800D01*
D54*
X84430700Y-57404000D02*
X84430700Y-55834700D01*
D53*
X103584001Y-108015999D02*
X103600000Y-108000000D01*
D55*
X97256500Y-90170000D02*
X100558500Y-86868000D01*
D54*
X148062500Y-93665681D02*
X147598409Y-93201590D01*
D56*
X128378000Y-97289243D02*
X128385243Y-97282000D01*
D54*
X139535500Y-97000000D02*
X139535500Y-94802000D01*
D53*
X143458001Y-68401001D02*
X143458001Y-69799200D01*
X101879400Y-108015999D02*
X103584001Y-108015999D01*
D56*
X124207041Y-96866000D02*
X123621800Y-97451241D01*
D55*
X112303200Y-58379000D02*
X112293400Y-58369200D01*
D54*
X85292100Y-53899900D02*
X86360000Y-52832000D01*
D53*
X130540098Y-76268001D02*
X129489200Y-76268001D01*
D54*
X87567000Y-71882000D02*
X86055200Y-71882000D01*
X123698000Y-87730500D02*
X126348000Y-87730500D01*
D53*
X132957999Y-69799200D02*
X132957999Y-68242001D01*
D54*
X85292100Y-54051200D02*
X85292100Y-53899900D01*
D53*
%TO.N,Buzz_on*%
X150926800Y-77267999D02*
X166499875Y-77267999D01*
X166499875Y-77267999D02*
X167019874Y-76748000D01*
%TO.N,Net-(U3-NEGA)*%
X75733172Y-90199000D02*
X82642500Y-90199000D01*
X75433000Y-91284000D02*
X75433000Y-90499172D01*
X75433000Y-90499172D02*
X75733172Y-90199000D01*
X74078490Y-93425000D02*
X75433000Y-92070490D01*
X75433000Y-92070490D02*
X75433000Y-91284000D01*
X88339000Y-91948000D02*
X89254500Y-92863500D01*
X84391500Y-91948000D02*
X88339000Y-91948000D01*
X70800000Y-93425000D02*
X74078490Y-93425000D01*
X82642500Y-90199000D02*
X84391500Y-91948000D01*
D55*
%TO.N,ADC123_INP10-Vibro2*%
X89254500Y-94588500D02*
X92380900Y-94588500D01*
X99441000Y-91592400D02*
X113983000Y-77050400D01*
X95377000Y-91592400D02*
X99441000Y-91592400D01*
X81187500Y-91284000D02*
X84391500Y-94488000D01*
X92380900Y-94588500D02*
X95377000Y-91592400D01*
X113983000Y-77050400D02*
X113983000Y-75438000D01*
X84391500Y-94488000D02*
X89154000Y-94488000D01*
X84391500Y-97028000D02*
X84391500Y-94488000D01*
X76083000Y-91284000D02*
X81187500Y-91284000D01*
X89154000Y-94488000D02*
X89254500Y-94588500D01*
D54*
%TO.N,Net-(U9-VIN)*%
X100838000Y-112409000D02*
X100838000Y-110007400D01*
X100838000Y-110007400D02*
X101875401Y-108969999D01*
X102771901Y-109862500D02*
X101879400Y-108969999D01*
X105200000Y-109862500D02*
X102771901Y-109862500D01*
X102627001Y-110007400D02*
X102771901Y-109862500D01*
X100838000Y-110007400D02*
X102627001Y-110007400D01*
X100788000Y-112459000D02*
X100838000Y-112409000D01*
X101875401Y-108969999D02*
X101879400Y-108969999D01*
X95504000Y-112459000D02*
X100788000Y-112459000D01*
D53*
%TO.N,+3.3V*%
X145958001Y-69799200D02*
X145958001Y-68358001D01*
D56*
X125238000Y-99069400D02*
X125222000Y-99085400D01*
D54*
X118440200Y-54178200D02*
X119855208Y-52763192D01*
D53*
X129489200Y-88768001D02*
X127994499Y-88768001D01*
D58*
X101767599Y-81482401D02*
X101767599Y-82346800D01*
D53*
X131458000Y-68142000D02*
X131600000Y-68000000D01*
D58*
X103667601Y-82346800D02*
X103667601Y-81482401D01*
D55*
X104787500Y-91198900D02*
X104800400Y-91186000D01*
D54*
X127432900Y-74497100D02*
X127493600Y-74436400D01*
X126238000Y-81888500D02*
X127711500Y-81888500D01*
X118440200Y-55926800D02*
X118228000Y-56139000D01*
D58*
X102013600Y-81236400D02*
X101767599Y-81482401D01*
X100939600Y-81508600D02*
X100660200Y-81229200D01*
D54*
X118440200Y-54406800D02*
X117680200Y-55166800D01*
D53*
X134457999Y-92542001D02*
X133800000Y-93200000D01*
X147958000Y-92287699D02*
X147958000Y-91236800D01*
D54*
X117680200Y-55166800D02*
X118440200Y-55926800D01*
X145337500Y-66200000D02*
X145337500Y-67737500D01*
D53*
X131958001Y-68358001D02*
X131600000Y-68000000D01*
X150926800Y-71768000D02*
X152968000Y-71768000D01*
D54*
X150600000Y-93600000D02*
X150000000Y-93000000D01*
X157000000Y-84137500D02*
X154456000Y-84137500D01*
X117778700Y-54178200D02*
X116940500Y-53340000D01*
X133757500Y-94800000D02*
X133757500Y-93242500D01*
X123621800Y-74497100D02*
X126161800Y-74497100D01*
D53*
X145958001Y-68358001D02*
X145400000Y-67800000D01*
D54*
X120624600Y-52763192D02*
X120624600Y-52959000D01*
D55*
X101930200Y-58420000D02*
X100101400Y-58420000D01*
D53*
X128494500Y-88268000D02*
X127881250Y-88881250D01*
X76083000Y-95584000D02*
X76083000Y-98517000D01*
D54*
X120624600Y-52763192D02*
X119862600Y-52763192D01*
X127711500Y-81888500D02*
X127800000Y-81800000D01*
D55*
X116940500Y-68504900D02*
X116967000Y-68478400D01*
D53*
X131958001Y-69799200D02*
X131958001Y-70843801D01*
X152732000Y-84268000D02*
X152800000Y-84200000D01*
D54*
X141262500Y-93462500D02*
X141048528Y-93248528D01*
X122858310Y-52763192D02*
X119482502Y-56139000D01*
X131337500Y-64000000D02*
X131337500Y-66400000D01*
D53*
X132114200Y-71000000D02*
X132000000Y-70885800D01*
D58*
X101767599Y-82346800D02*
X101767599Y-82336599D01*
D54*
X101930200Y-58420000D02*
X103531500Y-58420000D01*
D58*
X101767599Y-82336599D02*
X100939600Y-81508600D01*
D53*
X127662000Y-74268000D02*
X127558800Y-74371200D01*
X152968000Y-71768000D02*
X153000000Y-71800000D01*
D54*
X119862600Y-52763192D02*
X118516400Y-52763192D01*
X131337500Y-67737500D02*
X131600000Y-68000000D01*
X119855208Y-52763192D02*
X119862600Y-52763192D01*
X121615200Y-52763192D02*
X120624600Y-52763192D01*
D53*
X131458000Y-69799200D02*
X131458000Y-68142000D01*
D54*
X118440200Y-54178200D02*
X118440200Y-55143400D01*
D53*
X127994499Y-88768001D02*
X127881250Y-88881250D01*
D54*
X118440200Y-55143400D02*
X118440200Y-55926800D01*
X145337500Y-63868000D02*
X145337500Y-66200000D01*
D55*
X89427000Y-84433500D02*
X89427000Y-84955500D01*
D54*
X141260500Y-101191500D02*
X142685000Y-102616000D01*
D55*
X116940500Y-70104000D02*
X116940500Y-68504900D01*
D53*
X150000000Y-93000000D02*
X148670301Y-93000000D01*
X133308099Y-71000000D02*
X132114200Y-71000000D01*
X152532000Y-79268000D02*
X152800000Y-79000000D01*
D58*
X102013600Y-81236400D02*
X102006400Y-81229200D01*
D54*
X157000000Y-71737500D02*
X154400000Y-71737500D01*
X141262500Y-94800000D02*
X141262500Y-93462500D01*
X133737500Y-94820000D02*
X133757500Y-94800000D01*
X83516300Y-54102000D02*
X81788000Y-54102000D01*
D53*
X128331999Y-81268001D02*
X127800000Y-81800000D01*
D54*
X117125692Y-52763192D02*
X116940500Y-52578000D01*
D53*
X152918500Y-84081500D02*
X152800000Y-84200000D01*
D54*
X133757500Y-93242500D02*
X133800000Y-93200000D01*
X118516400Y-52763192D02*
X118440200Y-52839392D01*
X126230000Y-81880500D02*
X126238000Y-81888500D01*
X118516400Y-52763192D02*
X118228508Y-52763192D01*
D56*
X125238000Y-97811000D02*
X125238000Y-99069400D01*
D54*
X123698000Y-81880500D02*
X126230000Y-81880500D01*
D55*
X104787500Y-92831500D02*
X104787500Y-91198900D01*
D54*
X153062500Y-71737500D02*
X153000000Y-71800000D01*
D53*
X154213500Y-84268000D02*
X154400000Y-84081500D01*
D58*
X103421600Y-81236400D02*
X102013600Y-81236400D01*
X100660200Y-81229200D02*
X99085400Y-79654400D01*
D55*
X89770500Y-81933500D02*
X89427000Y-81933500D01*
D53*
X133458001Y-70850098D02*
X133308099Y-71000000D01*
D54*
X118440200Y-54178200D02*
X118440200Y-54406800D01*
D55*
X79781400Y-54102000D02*
X81788000Y-54102000D01*
D58*
X103667601Y-81482401D02*
X103421600Y-81236400D01*
D54*
X133737500Y-97000000D02*
X133737500Y-94820000D01*
X123952000Y-51669502D02*
X122858310Y-52763192D01*
D53*
X132000000Y-70885800D02*
X131885800Y-71000000D01*
D54*
X116940500Y-52578000D02*
X116940500Y-53340000D01*
X118440200Y-52839392D02*
X118440200Y-54178200D01*
D53*
X131958001Y-70843801D02*
X132000000Y-70885800D01*
D58*
X99085400Y-79654400D02*
X97434400Y-79654400D01*
D53*
X143611600Y-71348600D02*
X142958000Y-70695000D01*
D55*
X104787500Y-95023000D02*
X106000500Y-96236000D01*
D58*
X94742000Y-76962000D02*
X91948000Y-79756000D01*
D54*
X73400000Y-98737500D02*
X75862500Y-98737500D01*
X122858310Y-52763192D02*
X121615200Y-52763192D01*
X118440200Y-54178200D02*
X117778700Y-54178200D01*
D58*
X101767599Y-81482401D02*
X100965799Y-81482401D01*
D53*
X129489200Y-88268000D02*
X128494500Y-88268000D01*
X133458001Y-69799200D02*
X133458001Y-70850098D01*
D55*
X104787500Y-92831500D02*
X104787500Y-95023000D01*
D54*
X157000000Y-78937500D02*
X154400000Y-78937500D01*
X70421000Y-47091600D02*
X72161400Y-47091600D01*
X154456000Y-84137500D02*
X154400000Y-84081500D01*
D55*
X89427000Y-81933500D02*
X89427000Y-84433500D01*
X118135400Y-65062900D02*
X118137500Y-65065000D01*
D53*
X152668000Y-84268000D02*
X152736000Y-84200000D01*
D54*
X141260500Y-97000000D02*
X141260500Y-101191500D01*
D58*
X91948000Y-79756000D02*
X91604500Y-79756000D01*
D53*
X154400000Y-84081500D02*
X152918500Y-84081500D01*
X127881250Y-88881250D02*
X125830500Y-90932000D01*
X148670301Y-93000000D02*
X147958000Y-92287699D01*
X131885800Y-71000000D02*
X131600000Y-71000000D01*
D54*
X141260500Y-97000000D02*
X141260500Y-94802000D01*
D53*
X148598901Y-93000000D02*
X147458001Y-91859100D01*
X134457999Y-91236800D02*
X134457999Y-92542001D01*
D54*
X150600000Y-94737500D02*
X150600000Y-93600000D01*
D53*
X129489200Y-74268000D02*
X127662000Y-74268000D01*
D54*
X131337500Y-66400000D02*
X131337500Y-67737500D01*
D55*
X89427000Y-84955500D02*
X94641500Y-90170000D01*
D54*
X116940500Y-52578000D02*
X116940500Y-54427100D01*
D53*
X131958001Y-69799200D02*
X131958001Y-68358001D01*
D54*
X154400000Y-78937500D02*
X152862500Y-78937500D01*
X119482502Y-56139000D02*
X118228000Y-56139000D01*
D53*
X145458000Y-67858000D02*
X145400000Y-67800000D01*
D54*
X75862500Y-98737500D02*
X76000000Y-98600000D01*
X116940500Y-53340000D02*
X116940500Y-54051200D01*
D53*
X147458001Y-91859100D02*
X147458001Y-91236800D01*
D58*
X100965799Y-81482401D02*
X100939600Y-81508600D01*
D53*
X131458000Y-70858000D02*
X131458000Y-69799200D01*
X150000000Y-93000000D02*
X148598901Y-93000000D01*
D54*
X145337500Y-67737500D02*
X145400000Y-67800000D01*
D58*
X91604500Y-79756000D02*
X89427000Y-81933500D01*
D53*
X150926800Y-79268000D02*
X152532000Y-79268000D01*
X152736000Y-84200000D02*
X152800000Y-84200000D01*
X131600000Y-71000000D02*
X131458000Y-70858000D01*
D54*
X123952000Y-51300494D02*
X123952000Y-51669502D01*
X83567100Y-54051200D02*
X83516300Y-54102000D01*
X120624600Y-52959000D02*
X118440200Y-55143400D01*
D53*
X145458000Y-69799200D02*
X145458000Y-67858000D01*
D54*
X118228508Y-52763192D02*
X116940500Y-54051200D01*
X117938000Y-56139000D02*
X118228000Y-56139000D01*
X141260500Y-94802000D02*
X141262500Y-94800000D01*
X154400000Y-71737500D02*
X153062500Y-71737500D01*
D57*
X156083000Y-55295800D02*
X156083000Y-57188100D01*
D53*
X150926800Y-84268000D02*
X152732000Y-84268000D01*
D54*
X121603808Y-52763192D02*
X118440200Y-55926800D01*
X152862500Y-78937500D02*
X152800000Y-79000000D01*
X116940500Y-54051200D02*
X116940500Y-55141500D01*
D58*
X97434400Y-79654400D02*
X94742000Y-76962000D01*
D54*
X126161800Y-74497100D02*
X127432900Y-74497100D01*
X140937500Y-64000000D02*
X140937500Y-66200000D01*
X118516400Y-52763192D02*
X117125692Y-52763192D01*
D53*
X76083000Y-98517000D02*
X76000000Y-98600000D01*
D55*
X118135400Y-63804800D02*
X118135400Y-65062900D01*
D53*
X129489200Y-81268001D02*
X128331999Y-81268001D01*
D54*
X121615200Y-52763192D02*
X121603808Y-52763192D01*
D58*
X102006400Y-81229200D02*
X100660200Y-81229200D01*
D54*
X116940500Y-55141500D02*
X117938000Y-56139000D01*
X116940500Y-54427100D02*
X117680200Y-55166800D01*
D53*
X142958000Y-70695000D02*
X142958000Y-69799200D01*
D57*
X116281200Y-81349850D02*
X116281200Y-83292950D01*
D55*
%TO.N,/circuits_capteurs/Suiveur*%
X86968500Y-49784000D02*
X88138000Y-50953500D01*
X84391000Y-49784000D02*
X86968500Y-49784000D01*
X88138000Y-50953500D02*
X89739300Y-50953500D01*
X118137500Y-67015000D02*
X116449200Y-67015000D01*
X98120200Y-59461400D02*
X98120200Y-60204801D01*
X116449200Y-67015000D02*
X116433600Y-67030600D01*
X99967599Y-62052200D02*
X100736400Y-62052200D01*
X89739300Y-50953500D02*
X89865200Y-51079400D01*
X98120200Y-60204801D02*
X99967599Y-62052200D01*
X100736400Y-62052200D02*
X101574600Y-62890400D01*
D59*
%TO.N,Net-(U9-VOUT)*%
X87730500Y-116840000D02*
X95504000Y-109066500D01*
X95504000Y-109066500D02*
X99188100Y-109066500D01*
X99188100Y-109066500D02*
X99288600Y-108966000D01*
X85558000Y-116840000D02*
X87730500Y-116840000D01*
D56*
%TO.N,+1V8*%
X123072600Y-95666000D02*
X123063000Y-95656400D01*
D55*
X101753500Y-78029900D02*
X101753500Y-79564101D01*
X101753500Y-78027700D02*
X101752400Y-78028800D01*
X101753500Y-76454000D02*
X101753500Y-78027700D01*
D56*
X124693000Y-95666000D02*
X123072600Y-95666000D01*
D55*
X101752400Y-78028800D02*
X101753500Y-78029900D01*
X93980000Y-68680500D02*
X101753500Y-76454000D01*
X93980000Y-66040000D02*
X93980000Y-68680500D01*
%TO.N,/circuits_capteurs/Suiveur1*%
X118228000Y-59731800D02*
X118262400Y-59766200D01*
D58*
X86155700Y-57404000D02*
X88201000Y-57404000D01*
D55*
X118228000Y-58379000D02*
X118228000Y-59731800D01*
D58*
X88201000Y-57404000D02*
X89662000Y-58865000D01*
X89662000Y-58865000D02*
X91706200Y-58865000D01*
X91706200Y-58865000D02*
X91795600Y-58775600D01*
D54*
%TO.N,/circuits_capteurs/Suiveur2*%
X105219000Y-53848000D02*
X107796500Y-53848000D01*
D55*
X113928000Y-57729000D02*
X113072462Y-57729000D01*
X110106962Y-54763500D02*
X108712000Y-54763500D01*
D54*
X107796500Y-53848000D02*
X108712000Y-54763500D01*
D55*
X113072462Y-57729000D02*
X110106962Y-54763500D01*
D54*
%TO.N,/circuits_capteurs/Suiveur3*%
X107034500Y-66256500D02*
X106997000Y-66294000D01*
X106997000Y-66294000D02*
X111963200Y-66294000D01*
X107034500Y-62517500D02*
X107034500Y-66256500D01*
D55*
X113837500Y-66365000D02*
X112034200Y-66365000D01*
X112034200Y-66365000D02*
X111963200Y-66294000D01*
%TO.N,Net-(U7-NEGB)*%
X112995500Y-97386000D02*
X113083000Y-97473500D01*
X107135500Y-97815462D02*
X106856038Y-97536000D01*
X106856038Y-97536000D02*
X106000500Y-97536000D01*
X109833000Y-97536000D02*
X109983000Y-97386000D01*
X106425500Y-99266538D02*
X107135500Y-98556538D01*
X106425500Y-100536000D02*
X106425500Y-99266538D01*
X107135500Y-98556538D02*
X107135500Y-97815462D01*
X106000500Y-97536000D02*
X109833000Y-97536000D01*
X109983000Y-97386000D02*
X112995500Y-97386000D01*
%TO.N,ADC1_INP16-Therm2*%
X106000500Y-96886000D02*
X108833000Y-96886000D01*
D53*
X125984000Y-70408800D02*
X126085600Y-70307200D01*
X126161800Y-70231000D02*
X126161800Y-70408800D01*
D55*
X116001800Y-78892400D02*
X113665000Y-81229200D01*
X113665000Y-81229200D02*
X113665000Y-95166500D01*
X108833000Y-96886000D02*
X109983000Y-95736000D01*
X113665000Y-95166500D02*
X113083000Y-95748500D01*
D53*
X126149600Y-70243200D02*
X126161800Y-70231000D01*
X126161800Y-70408800D02*
X125984000Y-70408800D01*
D55*
X109983000Y-95736000D02*
X113070500Y-95736000D01*
D53*
X126149600Y-68884800D02*
X126149600Y-70243200D01*
D55*
X113070500Y-95736000D02*
X113083000Y-95748500D01*
%TO.N,Net-(U7-NEGA)*%
X97550500Y-97211000D02*
X97875500Y-96886000D01*
X94350500Y-97236000D02*
X97525500Y-97236000D01*
X97075500Y-99836000D02*
X97075500Y-97686000D01*
X97875500Y-96886000D02*
X101700500Y-96886000D01*
X97075500Y-97686000D02*
X97550500Y-97211000D01*
X97525500Y-97236000D02*
X97550500Y-97211000D01*
%TO.N,ADC12_INP3-Therm1*%
X94350500Y-95511000D02*
X97500500Y-95511000D01*
X101700500Y-96236000D02*
X101700500Y-91421839D01*
X97556700Y-95554800D02*
X101019300Y-95554800D01*
X101019300Y-95554800D02*
X101700500Y-96236000D01*
X115195139Y-77927200D02*
X118529600Y-77927200D01*
X101700500Y-91421839D02*
X115195139Y-77927200D01*
X97500500Y-95511000D02*
X97550500Y-95561000D01*
X97550500Y-95561000D02*
X97556700Y-95554800D01*
D53*
%TO.N,/circuit_alimentation/Vcap1(68)*%
X129489200Y-87267999D02*
X127610499Y-87267999D01*
X127610499Y-87267999D02*
X126348000Y-86005500D01*
D54*
X126348000Y-86005500D02*
X123698000Y-86005500D01*
%TO.N,/circuit_alimentation/Vcap2(103)*%
X146352000Y-97000000D02*
X146352000Y-94814500D01*
D53*
X146458000Y-91236800D02*
X146458000Y-94679500D01*
X146458000Y-94679500D02*
X146337500Y-94800000D01*
D54*
X146352000Y-94814500D02*
X146337500Y-94800000D01*
%TO.N,/circuit_alimentation/VLXSMPS*%
X141554200Y-60045600D02*
X139279600Y-57771000D01*
D53*
X141957999Y-71142799D02*
X141957999Y-69799200D01*
X139279600Y-57771000D02*
X139192000Y-57771000D01*
X142138400Y-71323200D02*
X141957999Y-71142799D01*
D54*
X145074500Y-57771000D02*
X145187500Y-57658000D01*
D53*
%TO.N,/circuit_alimentation/VFBSMPS*%
X149875901Y-72267999D02*
X149453600Y-72690300D01*
X140958001Y-71793801D02*
X141478000Y-72313800D01*
X141528800Y-72364600D02*
X141503400Y-72339200D01*
D54*
X146583400Y-51318388D02*
X146583400Y-51687396D01*
D53*
X150926800Y-72267999D02*
X149875901Y-72267999D01*
X140958001Y-69799200D02*
X140958001Y-70879401D01*
D54*
X138971498Y-56021000D02*
X139192000Y-56021000D01*
D53*
X140958001Y-70879401D02*
X140958001Y-71793801D01*
X141478000Y-72313800D02*
X141478000Y-72364600D01*
X149875902Y-73768001D02*
X150926800Y-73768001D01*
D54*
X134620000Y-51300494D02*
X134620000Y-51669502D01*
D53*
X141478000Y-72364600D02*
X141528800Y-72364600D01*
D54*
X146583400Y-51687396D02*
X142249796Y-56021000D01*
D53*
X149453600Y-72690300D02*
X149453600Y-72796400D01*
X149840200Y-73732299D02*
X149840200Y-73183000D01*
D54*
X142249796Y-56021000D02*
X139192000Y-56021000D01*
D53*
X149875901Y-72267999D02*
X149840200Y-72303700D01*
X149840200Y-72303700D02*
X149840200Y-73732299D01*
X149840200Y-73183000D02*
X149453600Y-72796400D01*
X149840200Y-73732299D02*
X149875902Y-73768001D01*
D54*
X134620000Y-51669502D02*
X138971498Y-56021000D01*
D56*
%TO.N,Net-(U11-REGOUT)*%
X123702969Y-96466000D02*
X123487569Y-96681400D01*
X123487569Y-96681400D02*
X123333400Y-96681400D01*
X122656600Y-97358200D02*
X122656600Y-97510600D01*
D53*
X122656600Y-99950100D02*
X122656600Y-97510600D01*
D56*
X123333400Y-96681400D02*
X122656600Y-97358200D01*
X124693000Y-96466000D02*
X123702969Y-96466000D01*
D53*
X124460000Y-101753500D02*
X122656600Y-99950100D01*
D54*
%TO.N,Net-(D1-K)*%
X70271500Y-108726000D02*
X73465000Y-108726000D01*
X68580000Y-107034500D02*
X70271500Y-108726000D01*
X73475000Y-111760000D02*
X73475000Y-108736000D01*
X73475000Y-108736000D02*
X73465000Y-108726000D01*
%TO.N,Net-(D1-A)*%
X71685000Y-111800000D02*
X71725000Y-111760000D01*
X68475000Y-111800000D02*
X71685000Y-111800000D01*
%TO.N,Net-(D2--)*%
X85852000Y-106426000D02*
X85852000Y-103187000D01*
%TO.N,Net-(D4-K)*%
X103884000Y-114159000D02*
X103925000Y-114200000D01*
X100838000Y-114159000D02*
X103884000Y-114159000D01*
D53*
X103923400Y-114198400D02*
X103925000Y-114200000D01*
D54*
%TO.N,Net-(D4-A)*%
X107800000Y-112075000D02*
X105675000Y-114200000D01*
X107800000Y-109875000D02*
X107800000Y-112075000D01*
%TO.N,Vusb*%
X108159000Y-108484000D02*
X107800000Y-108125000D01*
X115880000Y-108484000D02*
X108159000Y-108484000D01*
D53*
X101879400Y-107065998D02*
X106740998Y-107065998D01*
X106740998Y-107065998D02*
X107800000Y-108125000D01*
%TO.N,USB_D-*%
X144449800Y-89128600D02*
X144475200Y-89154000D01*
D58*
X118380000Y-106035600D02*
X118364000Y-106019600D01*
D53*
X144958001Y-89636801D02*
X144475200Y-89154000D01*
D58*
X118380000Y-108484000D02*
X118380000Y-106035600D01*
D53*
X144449800Y-89154000D02*
X144449800Y-89128600D01*
X144958001Y-91236800D02*
X144958001Y-89636801D01*
X144475200Y-89154000D02*
X144449800Y-89154000D01*
%TO.N,USB_D+*%
X145458000Y-91236800D02*
X145458000Y-89669800D01*
D58*
X120380000Y-108484000D02*
X120380000Y-106003600D01*
D53*
X145458000Y-89669800D02*
X145948400Y-89179400D01*
D58*
X120380000Y-106003600D02*
X120370600Y-105994200D01*
%TO.N,SWDIO*%
X148501100Y-106782100D02*
X148501100Y-109258100D01*
X144335000Y-102616000D02*
X148501100Y-106782100D01*
X145592800Y-92633800D02*
X144335000Y-93891600D01*
D53*
X145592800Y-92633800D02*
X145958001Y-92268599D01*
X145958001Y-92268599D02*
X145958001Y-91236800D01*
D58*
X144335000Y-93891600D02*
X144335000Y-102616000D01*
D53*
%TO.N,SWCLK*%
X148458001Y-91236800D02*
X148458001Y-89428401D01*
X148458001Y-89428401D02*
X148437600Y-89408000D01*
%TO.N,SWO*%
X149323999Y-78768001D02*
X149303801Y-78768001D01*
X149326600Y-78765400D02*
X149323999Y-78768001D01*
X150926800Y-78768001D02*
X149329201Y-78768001D01*
X149329201Y-78768001D02*
X149326600Y-78765400D01*
%TO.N,Net-(U1A-PA0)*%
X127799600Y-68884800D02*
X129489200Y-70574400D01*
X129489200Y-70574400D02*
X129489200Y-71768000D01*
%TO.N,Net-(U1A-PC0)*%
X115697000Y-77114400D02*
X115697000Y-77114400D01*
X115671600Y-77114400D02*
X115697000Y-77114400D01*
X115683800Y-75641200D02*
X115683800Y-76555600D01*
X135457999Y-69799200D02*
X135457999Y-70866201D01*
X115671600Y-77089000D02*
X115671600Y-77114400D01*
X135457999Y-70866201D02*
X134848600Y-71475600D01*
X115683800Y-77101200D02*
X115671600Y-77089000D01*
X115683800Y-76555600D02*
X115683800Y-77101200D01*
%TO.N,Net-(U1A-PA2)*%
X131524200Y-72768000D02*
X131851400Y-72440800D01*
X128016000Y-70434200D02*
X128003300Y-70446900D01*
X122999000Y-68306661D02*
X125851139Y-71158800D01*
X127990600Y-70459600D02*
X127990600Y-70434200D01*
X127990600Y-70434200D02*
X128016000Y-70434200D01*
X125851139Y-71158800D02*
X127291400Y-71158800D01*
X129489200Y-72768000D02*
X131524200Y-72768000D01*
X127291400Y-71158800D02*
X127990600Y-70459600D01*
X122999000Y-67310000D02*
X122999000Y-68306661D01*
D55*
%TO.N,ADC12_INP14-SG1.2*%
X118137500Y-66365000D02*
X120404000Y-66365000D01*
X118137500Y-65715000D02*
X118137500Y-66365000D01*
X120404000Y-66365000D02*
X121349000Y-67310000D01*
D53*
%TO.N,Net-(U1A-PA3)*%
X123253000Y-64008000D02*
X124612400Y-64008000D01*
X129489200Y-73267999D02*
X130773599Y-73267999D01*
X124612400Y-64008000D02*
X124637800Y-64008000D01*
X130773599Y-73267999D02*
X131876800Y-74371200D01*
D55*
%TO.N,ADC12_INP15-SG3.4*%
X119083538Y-57729000D02*
X121603000Y-60248462D01*
X121603000Y-60248462D02*
X121603000Y-64008000D01*
X118228000Y-57079000D02*
X118228000Y-57729000D01*
X118228000Y-57729000D02*
X119083538Y-57729000D01*
D53*
%TO.N,Net-(U1A-PC3_C)*%
X129743200Y-69850000D02*
X129743200Y-66993000D01*
X129743200Y-66993000D02*
X127799600Y-65049400D01*
X131393200Y-71500000D02*
X129743200Y-69850000D01*
X133515205Y-71500000D02*
X131393200Y-71500000D01*
X133958001Y-71057204D02*
X133515205Y-71500000D01*
X133958000Y-69799200D02*
X133958001Y-71057204D01*
%TO.N,ADC3_INP1-Vibe1*%
X126149600Y-65049400D02*
X120440661Y-65049400D01*
X120440661Y-65049400D02*
X118446061Y-63054800D01*
X115847700Y-63054800D02*
X113837500Y-65065000D01*
X118446061Y-63054800D02*
X115847700Y-63054800D01*
D55*
X113837500Y-65715000D02*
X113837500Y-65065000D01*
%TO.N,ADC12_INP18-SG5.6*%
X113928000Y-57079000D02*
X115869600Y-57079000D01*
X123152400Y-76479400D02*
X119761000Y-73088000D01*
X113928000Y-56429000D02*
X113928000Y-57079000D01*
X119761000Y-73088000D02*
X119761000Y-67919600D01*
X115869600Y-57079000D02*
X115874800Y-57073800D01*
X124193800Y-76479400D02*
X123152400Y-76479400D01*
D53*
%TO.N,Net-(U1A-PA4)*%
X125843800Y-76479400D02*
X126669800Y-76479400D01*
X126669800Y-76479400D02*
X128381201Y-74767999D01*
X128381201Y-74767999D02*
X129489200Y-74767999D01*
%TO.N,Net-(U1A-PA6)*%
X128438302Y-75767999D02*
X129489200Y-75767999D01*
X120179600Y-77927200D02*
X120332000Y-77774800D01*
X126431501Y-77774800D02*
X128438302Y-75767999D01*
X120332000Y-77774800D02*
X126431501Y-77774800D01*
%TO.N,Net-(U1B-BOOT0)*%
X154243001Y-76268001D02*
X150926800Y-76268001D01*
X154375000Y-76400000D02*
X154243001Y-76268001D01*
D56*
%TO.N,NSS*%
X129717800Y-89496600D02*
X129489200Y-89268000D01*
X127783000Y-96066000D02*
X129206600Y-96066000D01*
X129206600Y-96066000D02*
X129717800Y-95554800D01*
X129717800Y-95554800D02*
X129717800Y-89496600D01*
%TO.N,SCK*%
X128228043Y-95666000D02*
X128905000Y-94989043D01*
X128905000Y-94989043D02*
X128905000Y-91821000D01*
D53*
X131165600Y-91236800D02*
X130657600Y-91744800D01*
D56*
X128905000Y-91821000D02*
X128905000Y-91770200D01*
D53*
X131458000Y-91236800D02*
X131165600Y-91236800D01*
D56*
X127783000Y-95666000D02*
X128228043Y-95666000D01*
%TO.N,MOSI*%
X132461000Y-92140699D02*
X132461000Y-92811600D01*
X127783000Y-95266000D02*
X127783000Y-93552600D01*
X132461000Y-92862400D02*
X132461000Y-92887800D01*
X127783000Y-93552600D02*
X127812800Y-93522800D01*
X132461000Y-92811600D02*
X132486400Y-92837000D01*
X132486400Y-92837000D02*
X132461000Y-92862400D01*
X132458000Y-92137699D02*
X132461000Y-92140699D01*
X132458000Y-91236800D02*
X132458000Y-92137699D01*
D55*
%TO.N,/circuits_capteurs/IN-*%
X76442000Y-53720629D02*
X76442000Y-54723600D01*
X72817200Y-52802000D02*
X72364600Y-52349400D01*
X76442000Y-54723600D02*
X76022200Y-55143400D01*
D58*
X92583000Y-57150000D02*
X92613000Y-57120000D01*
D55*
X74142600Y-52802000D02*
X75523371Y-52802000D01*
X74142600Y-52802000D02*
X72817200Y-52802000D01*
D54*
X68771000Y-48755800D02*
X72364600Y-52349400D01*
D58*
X92613000Y-57120000D02*
X94122651Y-57120000D01*
D55*
X75672739Y-55143400D02*
X76022200Y-55143400D01*
X74142600Y-54751999D02*
X75281338Y-54751999D01*
X75523371Y-52802000D02*
X76442000Y-53720629D01*
D54*
X63563000Y-47099000D02*
X68763600Y-47099000D01*
X68763600Y-47099000D02*
X68771000Y-47091600D01*
X68771000Y-47091600D02*
X68771000Y-48755800D01*
D55*
X75281338Y-54751999D02*
X75672739Y-55143400D01*
D54*
%TO.N,Net-(U2-RGA)*%
X70421000Y-42926000D02*
X75374500Y-42926000D01*
X76454000Y-49174400D02*
X74218800Y-51409600D01*
X75374500Y-42926000D02*
X76454000Y-44005500D01*
D55*
X74142600Y-51485800D02*
X74218800Y-51409600D01*
D54*
X76454000Y-44005500D02*
X76454000Y-49174400D01*
D55*
X74142600Y-52151999D02*
X74142600Y-51485800D01*
%TO.N,Net-(U2-VOUTA)*%
X82741000Y-49784000D02*
X82741000Y-45212500D01*
X79781400Y-52802000D02*
X81019600Y-52802000D01*
X82741000Y-51080600D02*
X82741000Y-49784000D01*
X81019600Y-52802000D02*
X82741000Y-51080600D01*
X82741000Y-45212500D02*
X81534000Y-44005500D01*
X78994000Y-44005500D02*
X81534000Y-44005500D01*
D58*
%TO.N,Net-(U2-VOUTB)*%
X79781400Y-55402000D02*
X81119600Y-55402000D01*
X87808500Y-60515000D02*
X84900000Y-63423500D01*
X82360000Y-56642400D02*
X82360000Y-63423500D01*
X84900000Y-63423500D02*
X82360000Y-63423500D01*
X89662000Y-60515000D02*
X87808500Y-60515000D01*
X81119600Y-55402000D02*
X82360000Y-56642400D01*
%TO.N,Net-(U2-RGB)*%
X79820000Y-63423500D02*
X79820000Y-61729399D01*
D55*
X89217000Y-71882000D02*
X80758500Y-63423500D01*
X80758500Y-63423500D02*
X79820000Y-63423500D01*
D58*
X79820000Y-61729399D02*
X74142600Y-56051999D01*
%TO.N,Net-(U6-RGA)*%
X96774000Y-43497500D02*
X96774000Y-49832214D01*
X94727214Y-51879000D02*
X94727214Y-56205385D01*
X96774000Y-49832214D02*
X94727214Y-51879000D01*
X94727214Y-56205385D02*
X94462600Y-56469999D01*
D59*
X94727214Y-51879000D02*
X94488000Y-51879000D01*
%TO.N,Net-(U6-VOUTA)*%
X103555800Y-45199300D02*
X103555800Y-53834800D01*
X103569000Y-53848000D02*
X103569000Y-55409600D01*
D55*
X100101400Y-57120000D02*
X101339600Y-57120000D01*
D59*
X99314000Y-43497500D02*
X101854000Y-43497500D01*
X101854000Y-43497500D02*
X103555800Y-45199300D01*
X103555800Y-53834800D02*
X103569000Y-53848000D01*
X103569000Y-55409600D02*
X101904800Y-57073800D01*
D55*
%TO.N,Net-(U6-VOUTB)*%
X102946200Y-63893200D02*
X105347000Y-66294000D01*
X105347000Y-66294000D02*
X105918000Y-66865000D01*
X100101400Y-59720000D02*
X101267399Y-59720000D01*
X105918000Y-71882000D02*
X108458000Y-71882000D01*
X102946200Y-61398801D02*
X102946200Y-63893200D01*
X101267399Y-59720000D02*
X102946200Y-61398801D01*
X105918000Y-66865000D02*
X105918000Y-71882000D01*
%TO.N,Net-(U6-RGB)*%
X105587800Y-74091800D02*
X103378000Y-71882000D01*
X94462600Y-60369999D02*
X94462600Y-62077600D01*
X102208500Y-86868000D02*
X105587800Y-83488700D01*
X105587800Y-83488700D02*
X105587800Y-74091800D01*
D53*
%TO.N,USB_check*%
X143357600Y-93878400D02*
X144457999Y-92778001D01*
X95504000Y-114109000D02*
X97219000Y-114109000D01*
X97219000Y-114109000D02*
X97231200Y-114096800D01*
D54*
X95504000Y-116975000D02*
X95504000Y-114109000D01*
D53*
X144457999Y-92778001D02*
X144457999Y-91236800D01*
%TO.N,Net-(U1A-PD2)*%
X151977701Y-86768000D02*
X154457400Y-89247699D01*
X150926800Y-86768000D02*
X151977701Y-86768000D01*
X154457400Y-106435400D02*
X157024000Y-109002000D01*
X154457400Y-89247699D02*
X154457400Y-106435400D01*
%TO.N,Net-(U1A-PD6)*%
X150926800Y-83768001D02*
X151977699Y-83768001D01*
X151977699Y-83768001D02*
X152551700Y-83194000D01*
X157438200Y-83194000D02*
X157850000Y-83605800D01*
X157850000Y-83605800D02*
X157850000Y-92936000D01*
X157850000Y-92936000D02*
X157024000Y-93762000D01*
X152551700Y-83194000D02*
X157438200Y-83194000D01*
D55*
%TO.N,QUADSPI_BK1_IO3*%
X157353000Y-66319400D02*
X157353000Y-64935100D01*
D53*
X139115800Y-71217506D02*
X139458002Y-70875304D01*
X140055600Y-73685400D02*
X139115800Y-72745600D01*
X139115800Y-72745600D02*
X139115800Y-71217506D01*
D55*
X156083000Y-67589400D02*
X157353000Y-66319400D01*
D53*
X139458002Y-70875304D02*
X139458002Y-69799200D01*
X141681200Y-73685400D02*
X140055600Y-73685400D01*
D55*
%TO.N,QUADSPI_BK1_IO2*%
X158623000Y-64935100D02*
X158623000Y-66446400D01*
D53*
X138958000Y-70668200D02*
X138958000Y-69799200D01*
X138023600Y-71602600D02*
X138958000Y-70668200D01*
D58*
%TO.N,QUADSPI_BK1_IO0*%
X148717000Y-63779400D02*
X148717000Y-63728600D01*
X159893000Y-57632600D02*
X153797000Y-63728600D01*
D53*
X138458001Y-68501199D02*
X139395200Y-67564000D01*
X138458001Y-69799200D02*
X138458001Y-68501199D01*
D58*
X159893000Y-57188100D02*
X159893000Y-57632600D01*
X153797000Y-63728600D02*
X148717000Y-63779400D01*
%TO.N,QUADSPI_BK1_IO1*%
X152423100Y-62118000D02*
X139888200Y-62118000D01*
D53*
X137957999Y-67045401D02*
X138328400Y-66675000D01*
D58*
X138379200Y-63627000D02*
X138328400Y-63627000D01*
X138328400Y-63677800D02*
X138328400Y-63677800D01*
X139888200Y-62118000D02*
X138379200Y-63627000D01*
X138328400Y-63627000D02*
X138328400Y-63677800D01*
D53*
X137957999Y-69799200D02*
X137957999Y-67045401D01*
D58*
X157353000Y-57188100D02*
X152423100Y-62118000D01*
D53*
%TO.N,QUADSPI_CLK*%
X118846600Y-81229200D02*
X120192800Y-79883000D01*
X137458000Y-69799200D02*
X137458000Y-70720400D01*
D57*
X140484400Y-62868000D02*
X137428400Y-65924000D01*
X158623000Y-57094500D02*
X158623000Y-57188100D01*
X153152440Y-62868000D02*
X140484400Y-62868000D01*
D53*
X137458000Y-70720400D02*
X136575800Y-71602600D01*
D57*
X158623000Y-57188100D02*
X158623000Y-57397440D01*
X158623000Y-57397440D02*
X153152440Y-62868000D01*
D53*
X137458000Y-68420800D02*
X137439400Y-68402200D01*
X137428400Y-65924000D02*
X137428400Y-68391200D01*
X118846600Y-81445100D02*
X118846600Y-81229200D01*
X137458000Y-69799200D02*
X137458000Y-68420800D01*
X120192800Y-79883000D02*
X119900700Y-80175100D01*
%TO.N,QUADSPI_BK2_IO0*%
X121869200Y-81445100D02*
X121856500Y-81445100D01*
X121843800Y-81445100D02*
X122174000Y-81432400D01*
X129489200Y-81768000D02*
X130576000Y-81768000D01*
X122174000Y-81432400D02*
X121869200Y-81445100D01*
X120116600Y-81445100D02*
X121843800Y-81445100D01*
X130576000Y-81768000D02*
X131267200Y-81076800D01*
%TO.N,QUADSPI_BK2_IO1*%
X117576600Y-86842600D02*
X117576600Y-89192100D01*
X131267200Y-82270600D02*
X131264599Y-82267999D01*
X131264599Y-82267999D02*
X129489200Y-82267999D01*
X119151400Y-85267800D02*
X117576600Y-86842600D01*
%TO.N,QUADSPI_BK2_IO2*%
X120167400Y-86461600D02*
X120142000Y-86461600D01*
X130443801Y-82768001D02*
X129489200Y-82768001D01*
X120142000Y-86461600D02*
X118846600Y-87757000D01*
X118846600Y-87757000D02*
X118846600Y-89192100D01*
X131343400Y-83667600D02*
X130443801Y-82768001D01*
D58*
%TO.N,QUADSPI_BK2_IO3*%
X117576600Y-81610200D02*
X119278400Y-83312000D01*
X117576600Y-81445100D02*
X117576600Y-81610200D01*
D53*
X128187000Y-83268000D02*
X128143000Y-83312000D01*
X129489200Y-83268000D02*
X128187000Y-83268000D01*
D58*
X119278400Y-83312000D02*
X128143000Y-83312000D01*
D53*
%TO.N,QUADSPI_BK1_NCS*%
X135836699Y-85181401D02*
X131626699Y-85181401D01*
X156083000Y-64935100D02*
X135836699Y-85181401D01*
X130540099Y-86268001D02*
X129489200Y-86268001D01*
X131626699Y-85181401D02*
X130540099Y-86268001D01*
D56*
%TO.N,InteruptionMPU*%
X124693000Y-97266000D02*
X124693000Y-97861800D01*
X131597400Y-86766400D02*
X131595800Y-86768000D01*
X131595800Y-86768000D02*
X129489200Y-86768000D01*
X124498100Y-98056700D02*
X123901200Y-98653600D01*
X123901200Y-98653600D02*
X123901200Y-98704400D01*
X123901200Y-98704400D02*
X123901200Y-98679000D01*
X124693000Y-97861800D02*
X124498100Y-98056700D01*
%TO.N,MISO*%
X123175400Y-96331400D02*
X123342595Y-96331400D01*
D53*
X131957999Y-89006599D02*
X131953000Y-89001600D01*
D56*
X121793000Y-96672400D02*
X121818400Y-96672400D01*
D53*
X131957999Y-91236800D02*
X131957999Y-89006599D01*
D56*
X123342595Y-96331400D02*
X123607995Y-96066000D01*
X121818400Y-96672400D02*
X121920000Y-96774000D01*
X121793000Y-96672400D02*
X122834400Y-96672400D01*
X123607995Y-96066000D02*
X124693000Y-96066000D01*
X122834400Y-96672400D02*
X123175400Y-96331400D01*
D53*
%TO.N,QUADSPI_BK2_NCS*%
X145897600Y-86004400D02*
X146094661Y-86004400D01*
X148858262Y-88768001D02*
X150926800Y-88768001D01*
X116306600Y-87452200D02*
X116306600Y-89192100D01*
X146094661Y-86004400D02*
X148858262Y-88768001D01*
D55*
%TO.N,/circuits_capteurs/out+*%
X94462600Y-59069999D02*
X95628599Y-59069999D01*
X96469200Y-59910600D02*
X96469200Y-61765175D01*
X95628599Y-59069999D02*
X96469200Y-59910600D01*
X96469200Y-61765175D02*
X93985000Y-64249375D01*
%TO.N,/circuits_capteurs/out-*%
X93296599Y-59720000D02*
X91765000Y-61251599D01*
X94462600Y-59720000D02*
X93296599Y-59720000D01*
X91765000Y-61251599D02*
X91765000Y-64250500D01*
%TO.N,Therm1*%
X86461600Y-80721200D02*
X86564700Y-80721200D01*
X102870000Y-97536000D02*
X101700500Y-97536000D01*
X103759000Y-96647000D02*
X102870000Y-97536000D01*
X86361500Y-80518000D02*
X86461600Y-80618100D01*
X82550000Y-80518000D02*
X86361500Y-80518000D01*
X86461600Y-80618100D02*
X86461600Y-80721200D01*
X86564700Y-80721200D02*
X87777000Y-81933500D01*
%TO.N,Therm2*%
X82550000Y-83058000D02*
X86401500Y-83058000D01*
X86385400Y-83108800D02*
X86452300Y-83108800D01*
X86452300Y-83108800D02*
X87777000Y-84433500D01*
X103809800Y-97917000D02*
X104078800Y-98186000D01*
X86385400Y-83041900D02*
X86385400Y-83108800D01*
X104078800Y-98186000D02*
X106000500Y-98186000D01*
X86401500Y-83058000D02*
X86385400Y-83041900D01*
%TO.N,SG1_2*%
X68351400Y-58699400D02*
X68376800Y-58724800D01*
X71653400Y-54552500D02*
X72753899Y-53452001D01*
X67564000Y-58928000D02*
X68580000Y-58928000D01*
X67564000Y-58648600D02*
X67919600Y-58293000D01*
X68580000Y-58928000D02*
X68376800Y-58724800D01*
X67919600Y-58293000D02*
X68351400Y-57861200D01*
X72753899Y-53452001D02*
X74142600Y-53452001D01*
X68580000Y-58928000D02*
X82550000Y-72898000D01*
X68351400Y-57861200D02*
X69011800Y-57200800D01*
X68351400Y-57861200D02*
X68351400Y-58699400D01*
X65024000Y-58928000D02*
X67564000Y-58928000D01*
X67564000Y-58928000D02*
X67564000Y-58648600D01*
X68376800Y-58724800D02*
X67945000Y-58293000D01*
X67945000Y-58293000D02*
X67919600Y-58293000D01*
%TO.N,SG3_4*%
X72904400Y-55402000D02*
X72390000Y-55916400D01*
X72390000Y-55916400D02*
X72390000Y-60020200D01*
X74142600Y-55402000D02*
X72904400Y-55402000D01*
X72390000Y-60020200D02*
X83921600Y-71551800D01*
D58*
X67564000Y-52832000D02*
X70134000Y-55402000D01*
X71958200Y-55402000D02*
X73802649Y-55402000D01*
X65024000Y-52832000D02*
X67564000Y-52832000D01*
D55*
X72390000Y-55916400D02*
X72390000Y-55833800D01*
X83921600Y-71551800D02*
X83921600Y-74066400D01*
D58*
X70134000Y-55402000D02*
X71958200Y-55402000D01*
D55*
X83921600Y-74066400D02*
X82550000Y-75438000D01*
X72390000Y-55833800D02*
X71958200Y-55402000D01*
%TO.N,SG5_6*%
X89168400Y-70509872D02*
X92202000Y-73543472D01*
X82550000Y-77978000D02*
X88646000Y-77978000D01*
X93296599Y-57770001D02*
X92595600Y-58471000D01*
X89168400Y-62999671D02*
X89168400Y-70509872D01*
X92595600Y-58471000D02*
X92595600Y-59572471D01*
X88646000Y-77978000D02*
X89662000Y-76962000D01*
X94462600Y-57770001D02*
X93296599Y-57770001D01*
X89662000Y-76962000D02*
X92202000Y-76962000D01*
X92202000Y-73543472D02*
X92202000Y-76962000D01*
X92595600Y-59572471D02*
X89168400Y-62999671D01*
%TO.N,Vibro1*%
X74783000Y-88716800D02*
X76739800Y-86760000D01*
X81388000Y-86760000D02*
X82550000Y-85598000D01*
X76739800Y-86760000D02*
X81388000Y-86760000D01*
X74783000Y-91284000D02*
X74783000Y-88716800D01*
D54*
%TO.N,Net-(F1-Pad1)*%
X63222000Y-105378000D02*
X63222000Y-108297000D01*
X63222000Y-108297000D02*
X66725000Y-111800000D01*
%TO.N,Net-(VR1-OUTPUT)*%
X72669400Y-106426000D02*
X73465000Y-106426000D01*
X79865000Y-116147000D02*
X80558000Y-116840000D01*
X69696500Y-102108000D02*
X69696500Y-103453100D01*
X79865000Y-106426000D02*
X79865000Y-116147000D01*
X69696500Y-103453100D02*
X72669400Y-106426000D01*
X73465000Y-106426000D02*
X79865000Y-106426000D01*
%TD*%
M02*
