%TF.GenerationSoftware,KiCad,Pcbnew,7.0.7*%
%TF.CreationDate,2024-06-01T18:58:37-04:00*%
%TF.ProjectId,Payload,5061796c-6f61-4642-9e6b-696361645f70,rev?*%
%TF.SameCoordinates,Original*%
%TF.FileFunction,Soldermask,Top*%
%TF.FilePolarity,Negative*%
%FSLAX46Y46*%
G04 Gerber Fmt 4.6, Leading zero omitted, Abs format (unit mm)*
G04 Created by KiCad (PCBNEW 7.0.7) date 2024-06-01 18:58:37*
%MOMM*%
%LPD*%
G01*
G04 APERTURE LIST*
G04 Aperture macros list*
%AMRoundRect*
0 Rectangle with rounded corners*
0 $1 Rounding radius*
0 $2 $3 $4 $5 $6 $7 $8 $9 X,Y pos of 4 corners*
0 Add a 4 corners polygon primitive as box body*
4,1,4,$2,$3,$4,$5,$6,$7,$8,$9,$2,$3,0*
0 Add four circle primitives for the rounded corners*
1,1,$1+$1,$2,$3*
1,1,$1+$1,$4,$5*
1,1,$1+$1,$6,$7*
1,1,$1+$1,$8,$9*
0 Add four rect primitives between the rounded corners*
20,1,$1+$1,$2,$3,$4,$5,0*
20,1,$1+$1,$4,$5,$6,$7,0*
20,1,$1+$1,$6,$7,$8,$9,0*
20,1,$1+$1,$8,$9,$2,$3,0*%
%AMOutline5P*
0 Free polygon, 5 corners , with rotation*
0 The origin of the aperture is its center*
0 number of corners: always 5*
0 $1 to $10 corner X, Y*
0 $11 Rotation angle, in degrees counterclockwise*
0 create outline with 5 corners*
4,1,5,$1,$2,$3,$4,$5,$6,$7,$8,$9,$10,$1,$2,$11*%
%AMOutline6P*
0 Free polygon, 6 corners , with rotation*
0 The origin of the aperture is its center*
0 number of corners: always 6*
0 $1 to $12 corner X, Y*
0 $13 Rotation angle, in degrees counterclockwise*
0 create outline with 6 corners*
4,1,6,$1,$2,$3,$4,$5,$6,$7,$8,$9,$10,$11,$12,$1,$2,$13*%
%AMOutline7P*
0 Free polygon, 7 corners , with rotation*
0 The origin of the aperture is its center*
0 number of corners: always 7*
0 $1 to $14 corner X, Y*
0 $15 Rotation angle, in degrees counterclockwise*
0 create outline with 7 corners*
4,1,7,$1,$2,$3,$4,$5,$6,$7,$8,$9,$10,$11,$12,$13,$14,$1,$2,$15*%
%AMOutline8P*
0 Free polygon, 8 corners , with rotation*
0 The origin of the aperture is its center*
0 number of corners: always 8*
0 $1 to $16 corner X, Y*
0 $17 Rotation angle, in degrees counterclockwise*
0 create outline with 8 corners*
4,1,8,$1,$2,$3,$4,$5,$6,$7,$8,$9,$10,$11,$12,$13,$14,$15,$16,$1,$2,$17*%
G04 Aperture macros list end*
%ADD10RoundRect,0.237500X-0.300000X-0.237500X0.300000X-0.237500X0.300000X0.237500X-0.300000X0.237500X0*%
%ADD11C,5.000000*%
%ADD12RoundRect,0.102000X-0.754000X-0.754000X0.754000X-0.754000X0.754000X0.754000X-0.754000X0.754000X0*%
%ADD13C,1.712000*%
%ADD14RoundRect,0.200000X-0.200000X-0.275000X0.200000X-0.275000X0.200000X0.275000X-0.200000X0.275000X0*%
%ADD15RoundRect,0.237500X0.237500X-0.300000X0.237500X0.300000X-0.237500X0.300000X-0.237500X-0.300000X0*%
%ADD16RoundRect,0.237500X0.237500X-0.287500X0.237500X0.287500X-0.237500X0.287500X-0.237500X-0.287500X0*%
%ADD17RoundRect,0.200000X0.275000X-0.200000X0.275000X0.200000X-0.275000X0.200000X-0.275000X-0.200000X0*%
%ADD18C,1.295400*%
%ADD19RoundRect,0.162000X-0.180000X0.675000X-0.180000X-0.675000X0.180000X-0.675000X0.180000X0.675000X0*%
%ADD20RoundRect,0.200000X0.200000X0.275000X-0.200000X0.275000X-0.200000X-0.275000X0.200000X-0.275000X0*%
%ADD21R,0.431800X0.762000*%
%ADD22RoundRect,0.237500X0.300000X0.237500X-0.300000X0.237500X-0.300000X-0.237500X0.300000X-0.237500X0*%
%ADD23R,2.449195X2.179396*%
%ADD24C,3.600000*%
%ADD25RoundRect,0.237500X-0.287500X-0.237500X0.287500X-0.237500X0.287500X0.237500X-0.287500X0.237500X0*%
%ADD26RoundRect,0.237500X-0.237500X0.300000X-0.237500X-0.300000X0.237500X-0.300000X0.237500X0.300000X0*%
%ADD27C,1.524000*%
%ADD28RoundRect,0.102000X-0.800000X-0.600000X0.800000X-0.600000X0.800000X0.600000X-0.800000X0.600000X0*%
%ADD29RoundRect,0.102000X-0.800000X-1.650000X0.800000X-1.650000X0.800000X1.650000X-0.800000X1.650000X0*%
%ADD30R,1.320800X0.508000*%
%ADD31RoundRect,0.237500X0.287500X0.237500X-0.287500X0.237500X-0.287500X-0.237500X0.287500X-0.237500X0*%
%ADD32RoundRect,0.237500X-0.237500X0.287500X-0.237500X-0.287500X0.237500X-0.287500X0.237500X0.287500X0*%
%ADD33RoundRect,0.162000X-0.675000X-0.180000X0.675000X-0.180000X0.675000X0.180000X-0.675000X0.180000X0*%
%ADD34RoundRect,0.200000X-0.275000X0.200000X-0.275000X-0.200000X0.275000X-0.200000X0.275000X0.200000X0*%
%ADD35R,0.508000X1.320800*%
%ADD36RoundRect,0.108600X-0.103400X0.313400X-0.103400X-0.313400X0.103400X-0.313400X0.103400X0.313400X0*%
%ADD37RoundRect,0.108600X-0.313400X-0.103400X0.313400X-0.103400X0.313400X0.103400X-0.313400X0.103400X0*%
%ADD38RoundRect,0.108600X0.103400X-0.313400X0.103400X0.313400X-0.103400X0.313400X-0.103400X-0.313400X0*%
%ADD39RoundRect,0.108600X0.313400X0.103400X-0.313400X0.103400X-0.313400X-0.103400X0.313400X-0.103400X0*%
%ADD40C,2.500000*%
%ADD41R,1.676400X0.355600*%
%ADD42R,1.030000X0.621000*%
%ADD43R,1.040000X0.515500*%
%ADD44R,1.040000X0.677750*%
%ADD45Outline5P,-0.515000X0.310500X0.266600X0.310500X0.515000X0.062100X0.515000X-0.310500X-0.515000X-0.310500X180.000000*%
%ADD46R,1.045750X0.515500*%
%ADD47R,0.228600X1.473200*%
%ADD48R,1.473200X0.228600*%
%ADD49R,1.800000X1.800000*%
%ADD50C,1.800000*%
G04 APERTURE END LIST*
D10*
%TO.C,C18*%
X139537500Y-94800000D03*
X141262500Y-94800000D03*
%TD*%
D11*
%TO.C,H6*%
X99314000Y-65278000D03*
%TD*%
D12*
%TO.C,SW1*%
X157024000Y-109002000D03*
D13*
X163524000Y-109002000D03*
X157024000Y-113502000D03*
X163524000Y-113502000D03*
%TD*%
D14*
%TO.C,R6*%
X124193800Y-76479400D03*
X125843800Y-76479400D03*
%TD*%
D10*
%TO.C,C2LDO2*%
X101753500Y-76454000D03*
X103478500Y-76454000D03*
%TD*%
D15*
%TO.C,C19*%
X157000000Y-78937500D03*
X157000000Y-80662500D03*
%TD*%
D16*
%TO.C,FB1*%
X100838000Y-114159000D03*
X100838000Y-112409000D03*
%TD*%
D14*
%TO.C,R24*%
X104775500Y-100536000D03*
X106425500Y-100536000D03*
%TD*%
%TO.C,R16*%
X61913000Y-47099000D03*
X63563000Y-47099000D03*
%TD*%
D17*
%TO.C,R30*%
X85852000Y-103187000D03*
X85852000Y-101537000D03*
%TD*%
D18*
%TO.C,RV1*%
X76454000Y-44005500D03*
X78994000Y-44005500D03*
X81534000Y-44005500D03*
%TD*%
D19*
%TO.C,U3*%
X76083000Y-95584000D03*
X75433000Y-95584000D03*
X74783000Y-95584000D03*
X74133000Y-95584000D03*
X74133000Y-91284000D03*
X74783000Y-91284000D03*
X75433000Y-91284000D03*
X76083000Y-91284000D03*
%TD*%
D15*
%TO.C,C7*%
X94350500Y-97236000D03*
X94350500Y-95511000D03*
%TD*%
D20*
%TO.C,R14*%
X70421000Y-47091600D03*
X68771000Y-47091600D03*
%TD*%
D21*
%TO.C,U12*%
X116306600Y-89192100D03*
X117576600Y-89192100D03*
X118846600Y-89192100D03*
X120116600Y-89192100D03*
X120116600Y-81445100D03*
X118846600Y-81445100D03*
X117576600Y-81445100D03*
X116306600Y-81445100D03*
%TD*%
D11*
%TO.C,H4*%
X170180000Y-116949000D03*
%TD*%
D22*
%TO.C,C42*%
X104787500Y-92831500D03*
X103062500Y-92831500D03*
%TD*%
D20*
%TO.C,R2*%
X115683800Y-75641200D03*
X114033800Y-75641200D03*
%TD*%
D23*
%TO.C,C37*%
X146583400Y-45745400D03*
X146583400Y-51318388D03*
%TD*%
D15*
%TO.C,C25*%
X154400000Y-73462500D03*
X154400000Y-71737500D03*
%TD*%
%TO.C,C2LDO1*%
X95504000Y-109066500D03*
X95504000Y-107341500D03*
%TD*%
D14*
%TO.C,R21*%
X103569000Y-53848000D03*
X105219000Y-53848000D03*
%TD*%
D11*
%TO.C,H8*%
X63271400Y-91701400D03*
%TD*%
D12*
%TO.C,J1*%
X115880000Y-108484000D03*
D13*
X118380000Y-108484000D03*
X120380000Y-108484000D03*
X122880000Y-108484000D03*
D24*
X112810000Y-111194000D03*
X125950000Y-111194000D03*
%TD*%
D20*
%TO.C,R15*%
X70421000Y-42926000D03*
X68771000Y-42926000D03*
%TD*%
D18*
%TO.C,RV7*%
X108458000Y-71882000D03*
X105918000Y-71882000D03*
X103378000Y-71882000D03*
%TD*%
D25*
%TO.C,D4*%
X103925000Y-114200000D03*
X105675000Y-114200000D03*
%TD*%
D17*
%TO.C,R29*%
X97550500Y-97211000D03*
X97550500Y-95561000D03*
%TD*%
D26*
%TO.C,C4*%
X108712000Y-54763500D03*
X108712000Y-56488500D03*
%TD*%
D27*
%TO.C,U14*%
X82550000Y-72898000D03*
X82550000Y-75438000D03*
X82550000Y-77978000D03*
X82550000Y-80518000D03*
X82550000Y-83058000D03*
X82550000Y-85598000D03*
X80010000Y-72898000D03*
X80010000Y-75438000D03*
X80010000Y-77978000D03*
X80010000Y-80518000D03*
X80010000Y-83058000D03*
X80010000Y-85598000D03*
%TD*%
D11*
%TO.C,H3*%
X170180000Y-43180000D03*
%TD*%
D28*
%TO.C,VR1*%
X73465000Y-104126000D03*
X73465000Y-106426000D03*
X73465000Y-108726000D03*
D29*
X79865000Y-106426000D03*
%TD*%
D30*
%TO.C,U9*%
X101879400Y-108966000D03*
X101879400Y-108015999D03*
X101879400Y-107065998D03*
X99288600Y-107065998D03*
X99288600Y-108966000D03*
%TD*%
D18*
%TO.C,RV5*%
X101854000Y-43497500D03*
X99314000Y-43497500D03*
X96774000Y-43497500D03*
%TD*%
D20*
%TO.C,R23*%
X102208500Y-86868000D03*
X100558500Y-86868000D03*
%TD*%
D26*
%TO.C,C20*%
X126238000Y-80163500D03*
X126238000Y-81888500D03*
%TD*%
D22*
%TO.C,C5*%
X107034500Y-62517500D03*
X105309500Y-62517500D03*
%TD*%
D20*
%TO.C,R27*%
X89427000Y-84433500D03*
X87777000Y-84433500D03*
%TD*%
D26*
%TO.C,C1*%
X89254500Y-92863500D03*
X89254500Y-94588500D03*
%TD*%
D31*
%TO.C,D1*%
X73475000Y-111760000D03*
X71725000Y-111760000D03*
%TD*%
D32*
%TO.C,F2*%
X107800000Y-108125000D03*
X107800000Y-109875000D03*
%TD*%
D10*
%TO.C,C29*%
X139535500Y-97000000D03*
X141260500Y-97000000D03*
%TD*%
D16*
%TO.C,L1*%
X139192000Y-57771000D03*
X139192000Y-56021000D03*
%TD*%
D26*
%TO.C,C8*%
X126348000Y-86005500D03*
X126348000Y-87730500D03*
%TD*%
D22*
%TO.C,C30*%
X147062500Y-63868000D03*
X145337500Y-63868000D03*
%TD*%
D10*
%TO.C,C41*%
X115215500Y-52578000D03*
X116940500Y-52578000D03*
%TD*%
D33*
%TO.C,U7*%
X101700500Y-96236000D03*
X101700500Y-96886000D03*
X101700500Y-97536000D03*
X101700500Y-98186000D03*
X106000500Y-98186000D03*
X106000500Y-97536000D03*
X106000500Y-96886000D03*
X106000500Y-96236000D03*
%TD*%
D22*
%TO.C,C13*%
X135462500Y-97000000D03*
X133737500Y-97000000D03*
%TD*%
D20*
%TO.C,R5*%
X127799600Y-65049400D03*
X126149600Y-65049400D03*
%TD*%
D27*
%TO.C,Buzzer1*%
X167019874Y-81748000D03*
X167019874Y-76748000D03*
%TD*%
D34*
%TO.C,R13*%
X70800000Y-93425000D03*
X70800000Y-91775000D03*
%TD*%
D18*
%TO.C,RV4*%
X79820000Y-63423500D03*
X82360000Y-63423500D03*
X84900000Y-63423500D03*
%TD*%
D15*
%TO.C,C21*%
X154400000Y-84081500D03*
X154400000Y-85806500D03*
%TD*%
D11*
%TO.C,H1*%
X63500000Y-43035000D03*
%TD*%
D26*
%TO.C,C28*%
X123698000Y-80155500D03*
X123698000Y-81880500D03*
%TD*%
D15*
%TO.C,C22*%
X150600000Y-96462500D03*
X150600000Y-94737500D03*
%TD*%
D10*
%TO.C,C14*%
X124105500Y-90932000D03*
X125830500Y-90932000D03*
%TD*%
D26*
%TO.C,C39*%
X73400000Y-98737500D03*
X73400000Y-100462500D03*
%TD*%
D33*
%TO.C,U5*%
X113837500Y-65065000D03*
X113837500Y-65715000D03*
X113837500Y-66365000D03*
X113837500Y-67015000D03*
X118137500Y-67015000D03*
X118137500Y-66365000D03*
X118137500Y-65715000D03*
X118137500Y-65065000D03*
%TD*%
D22*
%TO.C,C17*%
X135482500Y-94800000D03*
X133757500Y-94800000D03*
%TD*%
D14*
%TO.C,R9*%
X154375000Y-76400000D03*
X156025000Y-76400000D03*
%TD*%
%TO.C,R8*%
X142685000Y-102616000D03*
X144335000Y-102616000D03*
%TD*%
D21*
%TO.C,U13*%
X156083000Y-64935100D03*
X157353000Y-64935100D03*
X158623000Y-64935100D03*
X159893000Y-64935100D03*
X159893000Y-57188100D03*
X158623000Y-57188100D03*
X157353000Y-57188100D03*
X156083000Y-57188100D03*
%TD*%
D26*
%TO.C,C38*%
X124460000Y-101753500D03*
X124460000Y-103478500D03*
%TD*%
D18*
%TO.C,RV6*%
X67564000Y-52832000D03*
X65024000Y-52832000D03*
X62484000Y-52832000D03*
%TD*%
%TO.C,RV8*%
X89662000Y-76962000D03*
X92202000Y-76962000D03*
X94742000Y-76962000D03*
%TD*%
D34*
%TO.C,R32*%
X95504000Y-116975000D03*
X95504000Y-118625000D03*
%TD*%
D23*
%TO.C,C34*%
X123952000Y-51300494D03*
X123952000Y-45727506D03*
%TD*%
%TO.C,C36*%
X134620000Y-45727506D03*
X134620000Y-51300494D03*
%TD*%
D18*
%TO.C,RV3*%
X67564000Y-58928000D03*
X65024000Y-58928000D03*
X62484000Y-58928000D03*
%TD*%
D17*
%TO.C,R20*%
X94488000Y-51879000D03*
X94488000Y-50229000D03*
%TD*%
D22*
%TO.C,C33*%
X133062500Y-66400000D03*
X131337500Y-66400000D03*
%TD*%
D15*
%TO.C,C31*%
X157000000Y-73462500D03*
X157000000Y-71737500D03*
%TD*%
D25*
%TO.C,F1*%
X66725000Y-111800000D03*
X68475000Y-111800000D03*
%TD*%
D20*
%TO.C,R3*%
X122999000Y-67310000D03*
X121349000Y-67310000D03*
%TD*%
D10*
%TO.C,C16*%
X146337500Y-94800000D03*
X148062500Y-94800000D03*
%TD*%
D26*
%TO.C,C2*%
X88138000Y-50953500D03*
X88138000Y-52678500D03*
%TD*%
D10*
%TO.C,C23*%
X146352000Y-97000000D03*
X148077000Y-97000000D03*
%TD*%
D35*
%TO.C,U10*%
X101767599Y-82346800D03*
X102717600Y-82346800D03*
X103667601Y-82346800D03*
X103667601Y-79756000D03*
X101767599Y-79756000D03*
%TD*%
D36*
%TO.C,U11*%
X127238000Y-94721000D03*
X126838000Y-94721000D03*
X126438000Y-94721000D03*
X126038000Y-94721000D03*
X125638000Y-94721000D03*
X125238000Y-94721000D03*
D37*
X124693000Y-95266000D03*
X124693000Y-95666000D03*
X124693000Y-96066000D03*
X124693000Y-96466000D03*
X124693000Y-96866000D03*
X124693000Y-97266000D03*
D38*
X125238000Y-97811000D03*
X125638000Y-97811000D03*
X126038000Y-97811000D03*
X126438000Y-97811000D03*
X126838000Y-97811000D03*
X127238000Y-97811000D03*
D39*
X127783000Y-97266000D03*
X127783000Y-96866000D03*
X127783000Y-96466000D03*
X127783000Y-96066000D03*
X127783000Y-95666000D03*
X127783000Y-95266000D03*
%TD*%
D40*
%TO.C,bornier1*%
X63222000Y-101378000D03*
X63222000Y-105378000D03*
%TD*%
D10*
%TO.C,C1LDO2*%
X94641500Y-90170000D03*
X96366500Y-90170000D03*
%TD*%
D14*
%TO.C,R22*%
X105347000Y-66294000D03*
X106997000Y-66294000D03*
%TD*%
D41*
%TO.C,U2*%
X74142600Y-52151999D03*
X74142600Y-52802000D03*
X74142600Y-53452001D03*
X74142600Y-54102000D03*
X74142600Y-54751999D03*
X74142600Y-55402000D03*
X74142600Y-56051999D03*
X79781400Y-56052001D03*
X79781400Y-55402000D03*
X79781400Y-54752001D03*
X79781400Y-54102000D03*
X79781400Y-53452001D03*
X79781400Y-52802000D03*
X79781400Y-52152001D03*
%TD*%
D14*
%TO.C,R1*%
X126149600Y-68884800D03*
X127799600Y-68884800D03*
%TD*%
D22*
%TO.C,C32*%
X133062500Y-64000000D03*
X131337500Y-64000000D03*
%TD*%
D15*
%TO.C,C10*%
X154400000Y-78937500D03*
X154400000Y-80662500D03*
%TD*%
D11*
%TO.C,H2*%
X63500000Y-116840000D03*
%TD*%
D15*
%TO.C,C1LDO3*%
X68580000Y-107034500D03*
X68580000Y-105309500D03*
%TD*%
D13*
%TO.C,S1*%
X80558000Y-116840000D03*
X83058000Y-116840000D03*
X85558000Y-116840000D03*
%TD*%
D22*
%TO.C,C2LDO3*%
X69696500Y-102108000D03*
X67971500Y-102108000D03*
%TD*%
D17*
%TO.C,R25*%
X109983000Y-97386000D03*
X109983000Y-95736000D03*
%TD*%
D42*
%TO.C,Vibe1*%
X93980000Y-66040000D03*
D43*
X93975000Y-65158250D03*
D44*
X93985000Y-64249375D03*
D45*
X91765000Y-66040500D03*
D46*
X91765000Y-65160500D03*
D44*
X91765000Y-64250500D03*
%TD*%
D26*
%TO.C,C26*%
X126161800Y-72772100D03*
X126161800Y-74497100D03*
%TD*%
D14*
%TO.C,R7*%
X118529600Y-77927200D03*
X120179600Y-77927200D03*
%TD*%
D22*
%TO.C,C40*%
X116940500Y-70104000D03*
X115215500Y-70104000D03*
%TD*%
D10*
%TO.C,C35*%
X145187500Y-57658000D03*
X146912500Y-57658000D03*
%TD*%
D22*
%TO.C,C11*%
X147062500Y-66200000D03*
X145337500Y-66200000D03*
%TD*%
D26*
%TO.C,C12*%
X123621800Y-72772100D03*
X123621800Y-74497100D03*
%TD*%
D14*
%TO.C,R17*%
X82741000Y-49784000D03*
X84391000Y-49784000D03*
%TD*%
D34*
%TO.C,R31*%
X95504000Y-112459000D03*
X95504000Y-114109000D03*
%TD*%
D15*
%TO.C,C27*%
X157000000Y-85862500D03*
X157000000Y-84137500D03*
%TD*%
D22*
%TO.C,C3*%
X86155700Y-57404000D03*
X84430700Y-57404000D03*
%TD*%
D20*
%TO.C,R26*%
X89427000Y-81933500D03*
X87777000Y-81933500D03*
%TD*%
D10*
%TO.C,C44*%
X83567100Y-54102000D03*
X85292100Y-54102000D03*
%TD*%
%TO.C,C43*%
X103531500Y-58420000D03*
X105256500Y-58420000D03*
%TD*%
D20*
%TO.C,R4*%
X123253000Y-64008000D03*
X121603000Y-64008000D03*
%TD*%
%TO.C,R28*%
X98725500Y-99836000D03*
X97075500Y-99836000D03*
%TD*%
D11*
%TO.C,H5*%
X63246000Y-65786000D03*
%TD*%
D22*
%TO.C,C9*%
X142662500Y-66200000D03*
X140937500Y-66200000D03*
%TD*%
D18*
%TO.C,RV2*%
X84391500Y-97028000D03*
X84391500Y-94488000D03*
X84391500Y-91948000D03*
%TD*%
D41*
%TO.C,U6*%
X94462600Y-56469999D03*
X94462600Y-57120000D03*
X94462600Y-57770001D03*
X94462600Y-58420000D03*
X94462600Y-59069999D03*
X94462600Y-59720000D03*
X94462600Y-60369999D03*
X100101400Y-60370001D03*
X100101400Y-59720000D03*
X100101400Y-59070001D03*
X100101400Y-58420000D03*
X100101400Y-57770001D03*
X100101400Y-57120000D03*
X100101400Y-56470001D03*
%TD*%
D15*
%TO.C,C1LDO1*%
X105200000Y-109862500D03*
X105200000Y-108137500D03*
%TD*%
D22*
%TO.C,C24*%
X142662500Y-64000000D03*
X140937500Y-64000000D03*
%TD*%
D15*
%TO.C,C6*%
X113083000Y-97473500D03*
X113083000Y-95748500D03*
%TD*%
D47*
%TO.C,U1*%
X148958000Y-69799200D03*
X148458001Y-69799200D03*
X147958000Y-69799200D03*
X147458001Y-69799200D03*
X146957999Y-69799200D03*
X146458000Y-69799200D03*
X145958001Y-69799200D03*
X145458000Y-69799200D03*
X144958001Y-69799200D03*
X144457999Y-69799200D03*
X143958000Y-69799200D03*
X143458001Y-69799200D03*
X142958000Y-69799200D03*
X142458001Y-69799200D03*
X141957999Y-69799200D03*
X141458000Y-69799200D03*
X140958001Y-69799200D03*
X140458000Y-69799200D03*
X139958000Y-69799200D03*
X139458002Y-69799200D03*
X138958000Y-69799200D03*
X138458001Y-69799200D03*
X137957999Y-69799200D03*
X137458000Y-69799200D03*
X136958001Y-69799200D03*
X136458000Y-69799200D03*
X135958001Y-69799200D03*
X135457999Y-69799200D03*
X134958000Y-69799200D03*
X134458001Y-69799200D03*
X133958000Y-69799200D03*
X133458001Y-69799200D03*
X132957999Y-69799200D03*
X132458000Y-69799200D03*
X131958001Y-69799200D03*
X131458000Y-69799200D03*
D48*
X129489200Y-71768000D03*
X129489200Y-72267999D03*
X129489200Y-72768000D03*
X129489200Y-73267999D03*
X129489200Y-73768001D03*
X129489200Y-74268000D03*
X129489200Y-74767999D03*
X129489200Y-75268000D03*
X129489200Y-75767999D03*
X129489200Y-76268001D03*
X129489200Y-76768000D03*
X129489200Y-77267999D03*
X129489200Y-77768000D03*
X129489200Y-78267999D03*
X129489200Y-78768001D03*
X129489200Y-79268000D03*
X129489200Y-79767999D03*
X129489200Y-80268000D03*
X129489200Y-80768000D03*
X129489200Y-81268001D03*
X129489200Y-81768000D03*
X129489200Y-82267999D03*
X129489200Y-82768001D03*
X129489200Y-83268000D03*
X129489200Y-83768001D03*
X129489200Y-84268000D03*
X129489200Y-84767999D03*
X129489200Y-85268001D03*
X129489200Y-85768000D03*
X129489200Y-86268001D03*
X129489200Y-86768000D03*
X129489200Y-87267999D03*
X129489200Y-87768001D03*
X129489200Y-88268000D03*
X129489200Y-88768001D03*
X129489200Y-89268000D03*
D47*
X131458000Y-91236800D03*
X131957999Y-91236800D03*
X132458000Y-91236800D03*
X132957999Y-91236800D03*
X133458001Y-91236800D03*
X133958000Y-91236800D03*
X134457999Y-91236800D03*
X134958000Y-91236800D03*
X135457999Y-91236800D03*
X135958001Y-91236800D03*
X136458000Y-91236800D03*
X136957999Y-91236800D03*
X137458000Y-91236800D03*
X137957999Y-91236800D03*
X138458001Y-91236800D03*
X138958000Y-91236800D03*
X139457999Y-91236800D03*
X139958000Y-91236800D03*
X140458000Y-91236800D03*
X140958001Y-91236800D03*
X141458000Y-91236800D03*
X141957999Y-91236800D03*
X142458001Y-91236800D03*
X142958000Y-91236800D03*
X143458001Y-91236800D03*
X143958000Y-91236800D03*
X144457999Y-91236800D03*
X144958001Y-91236800D03*
X145458000Y-91236800D03*
X145958001Y-91236800D03*
X146458000Y-91236800D03*
X146957999Y-91236800D03*
X147458001Y-91236800D03*
X147958000Y-91236800D03*
X148458001Y-91236800D03*
X148958000Y-91236800D03*
D48*
X150926800Y-89268000D03*
X150926800Y-88768001D03*
X150926800Y-88268000D03*
X150926800Y-87768001D03*
X150926800Y-87267999D03*
X150926800Y-86768000D03*
X150926800Y-86268001D03*
X150926800Y-85768000D03*
X150926800Y-85268001D03*
X150926800Y-84767999D03*
X150926800Y-84268000D03*
X150926800Y-83768001D03*
X150926800Y-83268000D03*
X150926800Y-82768001D03*
X150926800Y-82267999D03*
X150926800Y-81768000D03*
X150926800Y-81268001D03*
X150926800Y-80768000D03*
X150926800Y-80268000D03*
X150926800Y-79767999D03*
X150926800Y-79268000D03*
X150926800Y-78768001D03*
X150926800Y-78267999D03*
X150926800Y-77768000D03*
X150926800Y-77267999D03*
X150926800Y-76768000D03*
X150926800Y-76268001D03*
X150926800Y-75767999D03*
X150926800Y-75268000D03*
X150926800Y-74767999D03*
X150926800Y-74268000D03*
X150926800Y-73768001D03*
X150926800Y-73267999D03*
X150926800Y-72768000D03*
X150926800Y-72267999D03*
X150926800Y-71768000D03*
%TD*%
D33*
%TO.C,U4*%
X113928000Y-56429000D03*
X113928000Y-57079000D03*
X113928000Y-57729000D03*
X113928000Y-58379000D03*
X118228000Y-58379000D03*
X118228000Y-57729000D03*
X118228000Y-57079000D03*
X118228000Y-56429000D03*
%TD*%
D12*
%TO.C,SW2*%
X157024000Y-93762000D03*
D13*
X163524000Y-93762000D03*
X157024000Y-98262000D03*
X163524000Y-98262000D03*
%TD*%
D17*
%TO.C,R18*%
X89662000Y-60515000D03*
X89662000Y-58865000D03*
%TD*%
D27*
%TO.C,Programming_pins1*%
X148501100Y-109258100D03*
X145961100Y-109258100D03*
X143421100Y-109258100D03*
X140881100Y-109258100D03*
X138341100Y-109258100D03*
%TD*%
D49*
%TO.C,D2*%
X85852000Y-106426000D03*
D50*
X85852000Y-111506000D03*
%TD*%
D11*
%TO.C,H7*%
X135890000Y-117348000D03*
%TD*%
D20*
%TO.C,R19*%
X89217000Y-71882000D03*
X87567000Y-71882000D03*
%TD*%
D26*
%TO.C,C15*%
X123698000Y-86005500D03*
X123698000Y-87730500D03*
%TD*%
M02*
