%TF.GenerationSoftware,KiCad,Pcbnew,7.0.7*%
%TF.CreationDate,2024-06-02T12:30:50-04:00*%
%TF.ProjectId,Payload,5061796c-6f61-4642-9e6b-696361645f70,rev?*%
%TF.SameCoordinates,Original*%
%TF.FileFunction,Soldermask,Bot*%
%TF.FilePolarity,Negative*%
%FSLAX46Y46*%
G04 Gerber Fmt 4.6, Leading zero omitted, Abs format (unit mm)*
G04 Created by KiCad (PCBNEW 7.0.7) date 2024-06-02 12:30:50*
%MOMM*%
%LPD*%
G01*
G04 APERTURE LIST*
G04 Aperture macros list*
%AMRoundRect*
0 Rectangle with rounded corners*
0 $1 Rounding radius*
0 $2 $3 $4 $5 $6 $7 $8 $9 X,Y pos of 4 corners*
0 Add a 4 corners polygon primitive as box body*
4,1,4,$2,$3,$4,$5,$6,$7,$8,$9,$2,$3,0*
0 Add four circle primitives for the rounded corners*
1,1,$1+$1,$2,$3*
1,1,$1+$1,$4,$5*
1,1,$1+$1,$6,$7*
1,1,$1+$1,$8,$9*
0 Add four rect primitives between the rounded corners*
20,1,$1+$1,$2,$3,$4,$5,0*
20,1,$1+$1,$4,$5,$6,$7,0*
20,1,$1+$1,$6,$7,$8,$9,0*
20,1,$1+$1,$8,$9,$2,$3,0*%
G04 Aperture macros list end*
%ADD10C,5.000000*%
%ADD11RoundRect,0.102000X-0.754000X-0.754000X0.754000X-0.754000X0.754000X0.754000X-0.754000X0.754000X0*%
%ADD12C,1.712000*%
%ADD13C,1.295400*%
%ADD14C,3.600000*%
%ADD15C,1.524000*%
%ADD16C,2.500000*%
%ADD17R,1.800000X1.800000*%
%ADD18C,1.800000*%
G04 APERTURE END LIST*
D10*
%TO.C,H6*%
X99314000Y-65278000D03*
%TD*%
D11*
%TO.C,SW1*%
X157024000Y-109002000D03*
D12*
X163524000Y-109002000D03*
X157024000Y-113502000D03*
X163524000Y-113502000D03*
%TD*%
D13*
%TO.C,RV1*%
X76454000Y-44005500D03*
X78994000Y-44005500D03*
X81534000Y-44005500D03*
%TD*%
D10*
%TO.C,H4*%
X170180000Y-116949000D03*
%TD*%
%TO.C,H8*%
X63271400Y-91701400D03*
%TD*%
D11*
%TO.C,J1*%
X115880000Y-108484000D03*
D12*
X118380000Y-108484000D03*
X120380000Y-108484000D03*
X122880000Y-108484000D03*
D14*
X112810000Y-111194000D03*
X125950000Y-111194000D03*
%TD*%
D13*
%TO.C,RV7*%
X108458000Y-71882000D03*
X105918000Y-71882000D03*
X103378000Y-71882000D03*
%TD*%
D15*
%TO.C,U14*%
X82550000Y-72898000D03*
X82550000Y-75438000D03*
X82550000Y-77978000D03*
X82550000Y-80518000D03*
X82550000Y-83058000D03*
X82550000Y-85598000D03*
X80010000Y-72898000D03*
X80010000Y-75438000D03*
X80010000Y-77978000D03*
X80010000Y-80518000D03*
X80010000Y-83058000D03*
X80010000Y-85598000D03*
%TD*%
D10*
%TO.C,H3*%
X170180000Y-43180000D03*
%TD*%
D13*
%TO.C,RV5*%
X101854000Y-43497500D03*
X99314000Y-43497500D03*
X96774000Y-43497500D03*
%TD*%
D15*
%TO.C,Buzzer1*%
X167019874Y-81748000D03*
X167019874Y-76748000D03*
%TD*%
D13*
%TO.C,RV4*%
X79820000Y-63423500D03*
X82360000Y-63423500D03*
X84900000Y-63423500D03*
%TD*%
D10*
%TO.C,H1*%
X63500000Y-43035000D03*
%TD*%
D13*
%TO.C,RV6*%
X67564000Y-52832000D03*
X65024000Y-52832000D03*
X62484000Y-52832000D03*
%TD*%
%TO.C,RV8*%
X89662000Y-76962000D03*
X92202000Y-76962000D03*
X94742000Y-76962000D03*
%TD*%
%TO.C,RV3*%
X67564000Y-58928000D03*
X65024000Y-58928000D03*
X62484000Y-58928000D03*
%TD*%
D16*
%TO.C,bornier1*%
X63222000Y-101378000D03*
X63222000Y-105378000D03*
%TD*%
D10*
%TO.C,H2*%
X63500000Y-116840000D03*
%TD*%
D12*
%TO.C,S1*%
X80558000Y-116840000D03*
X83058000Y-116840000D03*
X85558000Y-116840000D03*
%TD*%
D10*
%TO.C,H5*%
X63246000Y-65786000D03*
%TD*%
D13*
%TO.C,RV2*%
X84391500Y-97028000D03*
X84391500Y-94488000D03*
X84391500Y-91948000D03*
%TD*%
D11*
%TO.C,SW2*%
X157024000Y-93762000D03*
D12*
X163524000Y-93762000D03*
X157024000Y-98262000D03*
X163524000Y-98262000D03*
%TD*%
D15*
%TO.C,Programming_pins1*%
X148501100Y-109258100D03*
X145961100Y-109258100D03*
X143421100Y-109258100D03*
X140881100Y-109258100D03*
X138341100Y-109258100D03*
%TD*%
D17*
%TO.C,D2*%
X85852000Y-106426000D03*
D18*
X85852000Y-111506000D03*
%TD*%
D10*
%TO.C,H7*%
X135890000Y-117348000D03*
%TD*%
M02*
