%TF.GenerationSoftware,KiCad,Pcbnew,7.0.7*%
%TF.CreationDate,2024-06-01T18:58:20-04:00*%
%TF.ProjectId,Payload,5061796c-6f61-4642-9e6b-696361645f70,rev?*%
%TF.SameCoordinates,Original*%
%TF.FileFunction,Drillmap*%
%TF.FilePolarity,Positive*%
%FSLAX45Y45*%
G04 Gerber Fmt 4.5, Leading zero omitted, Abs format (unit mm)*
G04 Created by KiCad (PCBNEW 7.0.7) date 2024-06-01 18:58:20*
%MOMM*%
%LPD*%
G01*
G04 APERTURE LIST*
%ADD10C,0.100000*%
%ADD11C,0.200000*%
%ADD12C,0.030000*%
G04 APERTURE END LIST*
D10*
X6350000Y-3810000D02*
X17018000Y-3810000D01*
X5842000Y-11684000D02*
X5842000Y-4318000D01*
X17018000Y-12192000D02*
X6350000Y-12192000D01*
X17526000Y-4318000D02*
X17526000Y-11684000D01*
X6350000Y-3810000D02*
G75*
G03*
X5842000Y-4318000I0J-508000D01*
G01*
X5842000Y-11684000D02*
G75*
G03*
X6350000Y-12192000I508000J0D01*
G01*
X17018000Y-12192000D02*
G75*
G03*
X17526000Y-11684000I0J508000D01*
G01*
X17526000Y-4318000D02*
G75*
G03*
X17018000Y-3810000I-508000J0D01*
G01*
D11*
D12*
X7325000Y-10205000D02*
X7355000Y-10235000D01*
X7355000Y-10205000D02*
X7325000Y-10235000D01*
X7554200Y-5395200D02*
X7584200Y-5425200D01*
X7584200Y-5395200D02*
X7554200Y-5425200D01*
X7808200Y-5395200D02*
X7838200Y-5425200D01*
X7838200Y-5395200D02*
X7808200Y-5425200D01*
X8427850Y-5568250D02*
X8457850Y-5598250D01*
X8457850Y-5568250D02*
X8427850Y-5598250D01*
X8587980Y-7175740D02*
X8617980Y-7205740D01*
X8617980Y-7175740D02*
X8587980Y-7205740D01*
X8621000Y-5268200D02*
X8651000Y-5298200D01*
X8651000Y-5268200D02*
X8621000Y-5298200D01*
X8805000Y-10145000D02*
X8835000Y-10175000D01*
X8835000Y-10145000D02*
X8805000Y-10175000D01*
X8991840Y-6525500D02*
X9021840Y-6555500D01*
X9021840Y-6525500D02*
X8991840Y-6555500D01*
X9349980Y-11846800D02*
X9379980Y-11876800D01*
X9379980Y-11846800D02*
X9349980Y-11876800D01*
X9433800Y-4811000D02*
X9463800Y-4841000D01*
X9463800Y-4811000D02*
X9433800Y-4841000D01*
X9532860Y-10472660D02*
X9562860Y-10502660D01*
X9562860Y-10472660D02*
X9532860Y-10502660D01*
X9804640Y-5827000D02*
X9834640Y-5857000D01*
X9834640Y-5827000D02*
X9804640Y-5857000D01*
X9873220Y-8844520D02*
X9903220Y-8874520D01*
X9903220Y-8844520D02*
X9873220Y-8874520D01*
X10254220Y-8453360D02*
X10284220Y-8483360D01*
X10284220Y-8453360D02*
X10254220Y-8483360D01*
X10289780Y-9098520D02*
X10319780Y-9128520D01*
X10319780Y-9098520D02*
X10289780Y-9128520D01*
X10338040Y-9913860D02*
X10368040Y-9943860D01*
X10368040Y-9913860D02*
X10338040Y-9943860D01*
X10345000Y-10785000D02*
X10375000Y-10815000D01*
X10375000Y-10785000D02*
X10345000Y-10815000D01*
X10348200Y-7780260D02*
X10378200Y-7810260D01*
X10378200Y-7780260D02*
X10348200Y-7810260D01*
X10513300Y-6035280D02*
X10543300Y-6065280D01*
X10543300Y-6035280D02*
X10513300Y-6065280D01*
X10696180Y-5832080D02*
X10726180Y-5862080D01*
X10726180Y-5832080D02*
X10696180Y-5862080D01*
X11102580Y-5827000D02*
X11132580Y-5857000D01*
X11132580Y-5827000D02*
X11102580Y-5857000D01*
X11328640Y-5245340D02*
X11358640Y-5275340D01*
X11358640Y-5245340D02*
X11328640Y-5275340D01*
X11371820Y-6858240D02*
X11401820Y-6888240D01*
X11401820Y-6858240D02*
X11371820Y-6888240D01*
X11999200Y-9071215D02*
X12029200Y-9101215D01*
X12029200Y-9071215D02*
X11999200Y-9101215D01*
X12349720Y-9738600D02*
X12379720Y-9768600D01*
X12379720Y-9738600D02*
X12349720Y-9768600D01*
X12357340Y-8925800D02*
X12387340Y-8955800D01*
X12387340Y-8925800D02*
X12357340Y-8955800D01*
X12380200Y-4176000D02*
X12410200Y-4206000D01*
X12410200Y-4176000D02*
X12380200Y-4206000D01*
X12395440Y-9286480D02*
X12425440Y-9316480D01*
X12425440Y-9286480D02*
X12395440Y-9316480D01*
X12489420Y-8758160D02*
X12519420Y-8788160D01*
X12519420Y-8758160D02*
X12489420Y-8788160D01*
X12738340Y-7264640D02*
X12768340Y-7294640D01*
X12768340Y-7264640D02*
X12738340Y-7294640D01*
X12765000Y-8005000D02*
X12795000Y-8035000D01*
X12795000Y-8005000D02*
X12765000Y-8035000D01*
X12883120Y-9713200D02*
X12913120Y-9743200D01*
X12913120Y-9713200D02*
X12883120Y-9743200D01*
X13076160Y-7500860D02*
X13106160Y-7530860D01*
X13106160Y-7500860D02*
X13076160Y-7530860D01*
X13305000Y-6785000D02*
X13335000Y-6815000D01*
X13335000Y-6785000D02*
X13305000Y-6815000D01*
X13447000Y-4160760D02*
X13477000Y-4190760D01*
X13477000Y-4160760D02*
X13447000Y-4190760D01*
X13525000Y-9305000D02*
X13555000Y-9335000D01*
X13555000Y-9305000D02*
X13525000Y-9335000D01*
X13925000Y-9305000D02*
X13955000Y-9335000D01*
X13955000Y-9305000D02*
X13925000Y-9335000D01*
X13985480Y-7145260D02*
X14015480Y-7175260D01*
X14015480Y-7145260D02*
X13985480Y-7175260D01*
X14295360Y-6789660D02*
X14325360Y-6819660D01*
X14325360Y-6789660D02*
X14295360Y-6819660D01*
X14643340Y-4165840D02*
X14673340Y-4195840D01*
X14673340Y-4165840D02*
X14643340Y-4195840D01*
X14685000Y-6765000D02*
X14715000Y-6795000D01*
X14715000Y-6765000D02*
X14685000Y-6795000D01*
X14745000Y-9305000D02*
X14775000Y-9335000D01*
X14775000Y-9305000D02*
X14745000Y-9335000D01*
X14884640Y-5753340D02*
X14914640Y-5783340D01*
X14914640Y-5753340D02*
X14884640Y-5783340D01*
X15265000Y-8045000D02*
X15295000Y-8075000D01*
X15295000Y-8045000D02*
X15265000Y-8075000D01*
X15265000Y-8585000D02*
X15295000Y-8615000D01*
X15295000Y-8585000D02*
X15265000Y-8615000D01*
X15285000Y-7325000D02*
X15315000Y-7355000D01*
X15315000Y-7325000D02*
X15285000Y-7355000D01*
X15971760Y-6682980D02*
X16001760Y-6712980D01*
X16001760Y-6682980D02*
X15971760Y-6712980D01*
D11*
X6097777Y-12508484D02*
X6097777Y-12308484D01*
X6097777Y-12308484D02*
X6145396Y-12308484D01*
X6145396Y-12308484D02*
X6173967Y-12318008D01*
X6173967Y-12318008D02*
X6193015Y-12337055D01*
X6193015Y-12337055D02*
X6202539Y-12356103D01*
X6202539Y-12356103D02*
X6212062Y-12394198D01*
X6212062Y-12394198D02*
X6212062Y-12422769D01*
X6212062Y-12422769D02*
X6202539Y-12460865D01*
X6202539Y-12460865D02*
X6193015Y-12479912D01*
X6193015Y-12479912D02*
X6173967Y-12498960D01*
X6173967Y-12498960D02*
X6145396Y-12508484D01*
X6145396Y-12508484D02*
X6097777Y-12508484D01*
X6297777Y-12508484D02*
X6297777Y-12375150D01*
X6297777Y-12413246D02*
X6307301Y-12394198D01*
X6307301Y-12394198D02*
X6316824Y-12384674D01*
X6316824Y-12384674D02*
X6335872Y-12375150D01*
X6335872Y-12375150D02*
X6354920Y-12375150D01*
X6421586Y-12508484D02*
X6421586Y-12375150D01*
X6421586Y-12308484D02*
X6412062Y-12318008D01*
X6412062Y-12318008D02*
X6421586Y-12327531D01*
X6421586Y-12327531D02*
X6431110Y-12318008D01*
X6431110Y-12318008D02*
X6421586Y-12308484D01*
X6421586Y-12308484D02*
X6421586Y-12327531D01*
X6545396Y-12508484D02*
X6526348Y-12498960D01*
X6526348Y-12498960D02*
X6516824Y-12479912D01*
X6516824Y-12479912D02*
X6516824Y-12308484D01*
X6650158Y-12508484D02*
X6631110Y-12498960D01*
X6631110Y-12498960D02*
X6621586Y-12479912D01*
X6621586Y-12479912D02*
X6621586Y-12308484D01*
X6878729Y-12508484D02*
X6878729Y-12308484D01*
X6878729Y-12308484D02*
X6945396Y-12451341D01*
X6945396Y-12451341D02*
X7012062Y-12308484D01*
X7012062Y-12308484D02*
X7012062Y-12508484D01*
X7193015Y-12508484D02*
X7193015Y-12403722D01*
X7193015Y-12403722D02*
X7183491Y-12384674D01*
X7183491Y-12384674D02*
X7164443Y-12375150D01*
X7164443Y-12375150D02*
X7126348Y-12375150D01*
X7126348Y-12375150D02*
X7107301Y-12384674D01*
X7193015Y-12498960D02*
X7173967Y-12508484D01*
X7173967Y-12508484D02*
X7126348Y-12508484D01*
X7126348Y-12508484D02*
X7107301Y-12498960D01*
X7107301Y-12498960D02*
X7097777Y-12479912D01*
X7097777Y-12479912D02*
X7097777Y-12460865D01*
X7097777Y-12460865D02*
X7107301Y-12441817D01*
X7107301Y-12441817D02*
X7126348Y-12432293D01*
X7126348Y-12432293D02*
X7173967Y-12432293D01*
X7173967Y-12432293D02*
X7193015Y-12422769D01*
X7288253Y-12375150D02*
X7288253Y-12575150D01*
X7288253Y-12384674D02*
X7307301Y-12375150D01*
X7307301Y-12375150D02*
X7345396Y-12375150D01*
X7345396Y-12375150D02*
X7364443Y-12384674D01*
X7364443Y-12384674D02*
X7373967Y-12394198D01*
X7373967Y-12394198D02*
X7383491Y-12413246D01*
X7383491Y-12413246D02*
X7383491Y-12470388D01*
X7383491Y-12470388D02*
X7373967Y-12489436D01*
X7373967Y-12489436D02*
X7364443Y-12498960D01*
X7364443Y-12498960D02*
X7345396Y-12508484D01*
X7345396Y-12508484D02*
X7307301Y-12508484D01*
X7307301Y-12508484D02*
X7288253Y-12498960D01*
X7469205Y-12489436D02*
X7478729Y-12498960D01*
X7478729Y-12498960D02*
X7469205Y-12508484D01*
X7469205Y-12508484D02*
X7459682Y-12498960D01*
X7459682Y-12498960D02*
X7469205Y-12489436D01*
X7469205Y-12489436D02*
X7469205Y-12508484D01*
X7469205Y-12384674D02*
X7478729Y-12394198D01*
X7478729Y-12394198D02*
X7469205Y-12403722D01*
X7469205Y-12403722D02*
X7459682Y-12394198D01*
X7459682Y-12394198D02*
X7469205Y-12384674D01*
X7469205Y-12384674D02*
X7469205Y-12403722D01*
D12*
X5807000Y-12822000D02*
X5837000Y-12852000D01*
X5837000Y-12822000D02*
X5807000Y-12852000D01*
D11*
X6135872Y-12728484D02*
X6154920Y-12728484D01*
X6154920Y-12728484D02*
X6173967Y-12738008D01*
X6173967Y-12738008D02*
X6183491Y-12747531D01*
X6183491Y-12747531D02*
X6193015Y-12766579D01*
X6193015Y-12766579D02*
X6202539Y-12804674D01*
X6202539Y-12804674D02*
X6202539Y-12852293D01*
X6202539Y-12852293D02*
X6193015Y-12890388D01*
X6193015Y-12890388D02*
X6183491Y-12909436D01*
X6183491Y-12909436D02*
X6173967Y-12918960D01*
X6173967Y-12918960D02*
X6154920Y-12928484D01*
X6154920Y-12928484D02*
X6135872Y-12928484D01*
X6135872Y-12928484D02*
X6116824Y-12918960D01*
X6116824Y-12918960D02*
X6107301Y-12909436D01*
X6107301Y-12909436D02*
X6097777Y-12890388D01*
X6097777Y-12890388D02*
X6088253Y-12852293D01*
X6088253Y-12852293D02*
X6088253Y-12804674D01*
X6088253Y-12804674D02*
X6097777Y-12766579D01*
X6097777Y-12766579D02*
X6107301Y-12747531D01*
X6107301Y-12747531D02*
X6116824Y-12738008D01*
X6116824Y-12738008D02*
X6135872Y-12728484D01*
X6288253Y-12909436D02*
X6297777Y-12918960D01*
X6297777Y-12918960D02*
X6288253Y-12928484D01*
X6288253Y-12928484D02*
X6278729Y-12918960D01*
X6278729Y-12918960D02*
X6288253Y-12909436D01*
X6288253Y-12909436D02*
X6288253Y-12928484D01*
X6364443Y-12728484D02*
X6488253Y-12728484D01*
X6488253Y-12728484D02*
X6421586Y-12804674D01*
X6421586Y-12804674D02*
X6450158Y-12804674D01*
X6450158Y-12804674D02*
X6469205Y-12814198D01*
X6469205Y-12814198D02*
X6478729Y-12823722D01*
X6478729Y-12823722D02*
X6488253Y-12842769D01*
X6488253Y-12842769D02*
X6488253Y-12890388D01*
X6488253Y-12890388D02*
X6478729Y-12909436D01*
X6478729Y-12909436D02*
X6469205Y-12918960D01*
X6469205Y-12918960D02*
X6450158Y-12928484D01*
X6450158Y-12928484D02*
X6393015Y-12928484D01*
X6393015Y-12928484D02*
X6373967Y-12918960D01*
X6373967Y-12918960D02*
X6364443Y-12909436D01*
X6612062Y-12728484D02*
X6631110Y-12728484D01*
X6631110Y-12728484D02*
X6650158Y-12738008D01*
X6650158Y-12738008D02*
X6659682Y-12747531D01*
X6659682Y-12747531D02*
X6669205Y-12766579D01*
X6669205Y-12766579D02*
X6678729Y-12804674D01*
X6678729Y-12804674D02*
X6678729Y-12852293D01*
X6678729Y-12852293D02*
X6669205Y-12890388D01*
X6669205Y-12890388D02*
X6659682Y-12909436D01*
X6659682Y-12909436D02*
X6650158Y-12918960D01*
X6650158Y-12918960D02*
X6631110Y-12928484D01*
X6631110Y-12928484D02*
X6612062Y-12928484D01*
X6612062Y-12928484D02*
X6593015Y-12918960D01*
X6593015Y-12918960D02*
X6583491Y-12909436D01*
X6583491Y-12909436D02*
X6573967Y-12890388D01*
X6573967Y-12890388D02*
X6564443Y-12852293D01*
X6564443Y-12852293D02*
X6564443Y-12804674D01*
X6564443Y-12804674D02*
X6573967Y-12766579D01*
X6573967Y-12766579D02*
X6583491Y-12747531D01*
X6583491Y-12747531D02*
X6593015Y-12738008D01*
X6593015Y-12738008D02*
X6612062Y-12728484D01*
X6802539Y-12728484D02*
X6821586Y-12728484D01*
X6821586Y-12728484D02*
X6840634Y-12738008D01*
X6840634Y-12738008D02*
X6850158Y-12747531D01*
X6850158Y-12747531D02*
X6859682Y-12766579D01*
X6859682Y-12766579D02*
X6869205Y-12804674D01*
X6869205Y-12804674D02*
X6869205Y-12852293D01*
X6869205Y-12852293D02*
X6859682Y-12890388D01*
X6859682Y-12890388D02*
X6850158Y-12909436D01*
X6850158Y-12909436D02*
X6840634Y-12918960D01*
X6840634Y-12918960D02*
X6821586Y-12928484D01*
X6821586Y-12928484D02*
X6802539Y-12928484D01*
X6802539Y-12928484D02*
X6783491Y-12918960D01*
X6783491Y-12918960D02*
X6773967Y-12909436D01*
X6773967Y-12909436D02*
X6764443Y-12890388D01*
X6764443Y-12890388D02*
X6754920Y-12852293D01*
X6754920Y-12852293D02*
X6754920Y-12804674D01*
X6754920Y-12804674D02*
X6764443Y-12766579D01*
X6764443Y-12766579D02*
X6773967Y-12747531D01*
X6773967Y-12747531D02*
X6783491Y-12738008D01*
X6783491Y-12738008D02*
X6802539Y-12728484D01*
X6954920Y-12928484D02*
X6954920Y-12795150D01*
X6954920Y-12814198D02*
X6964443Y-12804674D01*
X6964443Y-12804674D02*
X6983491Y-12795150D01*
X6983491Y-12795150D02*
X7012063Y-12795150D01*
X7012063Y-12795150D02*
X7031110Y-12804674D01*
X7031110Y-12804674D02*
X7040634Y-12823722D01*
X7040634Y-12823722D02*
X7040634Y-12928484D01*
X7040634Y-12823722D02*
X7050158Y-12804674D01*
X7050158Y-12804674D02*
X7069205Y-12795150D01*
X7069205Y-12795150D02*
X7097777Y-12795150D01*
X7097777Y-12795150D02*
X7116824Y-12804674D01*
X7116824Y-12804674D02*
X7126348Y-12823722D01*
X7126348Y-12823722D02*
X7126348Y-12928484D01*
X7221586Y-12928484D02*
X7221586Y-12795150D01*
X7221586Y-12814198D02*
X7231110Y-12804674D01*
X7231110Y-12804674D02*
X7250158Y-12795150D01*
X7250158Y-12795150D02*
X7278729Y-12795150D01*
X7278729Y-12795150D02*
X7297777Y-12804674D01*
X7297777Y-12804674D02*
X7307301Y-12823722D01*
X7307301Y-12823722D02*
X7307301Y-12928484D01*
X7307301Y-12823722D02*
X7316824Y-12804674D01*
X7316824Y-12804674D02*
X7335872Y-12795150D01*
X7335872Y-12795150D02*
X7364443Y-12795150D01*
X7364443Y-12795150D02*
X7383491Y-12804674D01*
X7383491Y-12804674D02*
X7393015Y-12823722D01*
X7393015Y-12823722D02*
X7393015Y-12928484D01*
X7783491Y-12718960D02*
X7612063Y-12976103D01*
X8040634Y-12728484D02*
X8059682Y-12728484D01*
X8059682Y-12728484D02*
X8078729Y-12738008D01*
X8078729Y-12738008D02*
X8088253Y-12747531D01*
X8088253Y-12747531D02*
X8097777Y-12766579D01*
X8097777Y-12766579D02*
X8107301Y-12804674D01*
X8107301Y-12804674D02*
X8107301Y-12852293D01*
X8107301Y-12852293D02*
X8097777Y-12890388D01*
X8097777Y-12890388D02*
X8088253Y-12909436D01*
X8088253Y-12909436D02*
X8078729Y-12918960D01*
X8078729Y-12918960D02*
X8059682Y-12928484D01*
X8059682Y-12928484D02*
X8040634Y-12928484D01*
X8040634Y-12928484D02*
X8021586Y-12918960D01*
X8021586Y-12918960D02*
X8012063Y-12909436D01*
X8012063Y-12909436D02*
X8002539Y-12890388D01*
X8002539Y-12890388D02*
X7993015Y-12852293D01*
X7993015Y-12852293D02*
X7993015Y-12804674D01*
X7993015Y-12804674D02*
X8002539Y-12766579D01*
X8002539Y-12766579D02*
X8012063Y-12747531D01*
X8012063Y-12747531D02*
X8021586Y-12738008D01*
X8021586Y-12738008D02*
X8040634Y-12728484D01*
X8193015Y-12909436D02*
X8202539Y-12918960D01*
X8202539Y-12918960D02*
X8193015Y-12928484D01*
X8193015Y-12928484D02*
X8183491Y-12918960D01*
X8183491Y-12918960D02*
X8193015Y-12909436D01*
X8193015Y-12909436D02*
X8193015Y-12928484D01*
X8326348Y-12728484D02*
X8345396Y-12728484D01*
X8345396Y-12728484D02*
X8364444Y-12738008D01*
X8364444Y-12738008D02*
X8373967Y-12747531D01*
X8373967Y-12747531D02*
X8383491Y-12766579D01*
X8383491Y-12766579D02*
X8393015Y-12804674D01*
X8393015Y-12804674D02*
X8393015Y-12852293D01*
X8393015Y-12852293D02*
X8383491Y-12890388D01*
X8383491Y-12890388D02*
X8373967Y-12909436D01*
X8373967Y-12909436D02*
X8364444Y-12918960D01*
X8364444Y-12918960D02*
X8345396Y-12928484D01*
X8345396Y-12928484D02*
X8326348Y-12928484D01*
X8326348Y-12928484D02*
X8307301Y-12918960D01*
X8307301Y-12918960D02*
X8297777Y-12909436D01*
X8297777Y-12909436D02*
X8288253Y-12890388D01*
X8288253Y-12890388D02*
X8278729Y-12852293D01*
X8278729Y-12852293D02*
X8278729Y-12804674D01*
X8278729Y-12804674D02*
X8288253Y-12766579D01*
X8288253Y-12766579D02*
X8297777Y-12747531D01*
X8297777Y-12747531D02*
X8307301Y-12738008D01*
X8307301Y-12738008D02*
X8326348Y-12728484D01*
X8583491Y-12928484D02*
X8469206Y-12928484D01*
X8526348Y-12928484D02*
X8526348Y-12728484D01*
X8526348Y-12728484D02*
X8507301Y-12757055D01*
X8507301Y-12757055D02*
X8488253Y-12776103D01*
X8488253Y-12776103D02*
X8469206Y-12785627D01*
X8773968Y-12928484D02*
X8659682Y-12928484D01*
X8716825Y-12928484D02*
X8716825Y-12728484D01*
X8716825Y-12728484D02*
X8697777Y-12757055D01*
X8697777Y-12757055D02*
X8678729Y-12776103D01*
X8678729Y-12776103D02*
X8659682Y-12785627D01*
X8888253Y-12814198D02*
X8869206Y-12804674D01*
X8869206Y-12804674D02*
X8859682Y-12795150D01*
X8859682Y-12795150D02*
X8850158Y-12776103D01*
X8850158Y-12776103D02*
X8850158Y-12766579D01*
X8850158Y-12766579D02*
X8859682Y-12747531D01*
X8859682Y-12747531D02*
X8869206Y-12738008D01*
X8869206Y-12738008D02*
X8888253Y-12728484D01*
X8888253Y-12728484D02*
X8926349Y-12728484D01*
X8926349Y-12728484D02*
X8945396Y-12738008D01*
X8945396Y-12738008D02*
X8954920Y-12747531D01*
X8954920Y-12747531D02*
X8964444Y-12766579D01*
X8964444Y-12766579D02*
X8964444Y-12776103D01*
X8964444Y-12776103D02*
X8954920Y-12795150D01*
X8954920Y-12795150D02*
X8945396Y-12804674D01*
X8945396Y-12804674D02*
X8926349Y-12814198D01*
X8926349Y-12814198D02*
X8888253Y-12814198D01*
X8888253Y-12814198D02*
X8869206Y-12823722D01*
X8869206Y-12823722D02*
X8859682Y-12833246D01*
X8859682Y-12833246D02*
X8850158Y-12852293D01*
X8850158Y-12852293D02*
X8850158Y-12890388D01*
X8850158Y-12890388D02*
X8859682Y-12909436D01*
X8859682Y-12909436D02*
X8869206Y-12918960D01*
X8869206Y-12918960D02*
X8888253Y-12928484D01*
X8888253Y-12928484D02*
X8926349Y-12928484D01*
X8926349Y-12928484D02*
X8945396Y-12918960D01*
X8945396Y-12918960D02*
X8954920Y-12909436D01*
X8954920Y-12909436D02*
X8964444Y-12890388D01*
X8964444Y-12890388D02*
X8964444Y-12852293D01*
X8964444Y-12852293D02*
X8954920Y-12833246D01*
X8954920Y-12833246D02*
X8945396Y-12823722D01*
X8945396Y-12823722D02*
X8926349Y-12814198D01*
X9040634Y-12728484D02*
X9040634Y-12766579D01*
X9116825Y-12728484D02*
X9116825Y-12766579D01*
X9412063Y-13004674D02*
X9402539Y-12995150D01*
X9402539Y-12995150D02*
X9383491Y-12966579D01*
X9383491Y-12966579D02*
X9373968Y-12947531D01*
X9373968Y-12947531D02*
X9364444Y-12918960D01*
X9364444Y-12918960D02*
X9354920Y-12871341D01*
X9354920Y-12871341D02*
X9354920Y-12833246D01*
X9354920Y-12833246D02*
X9364444Y-12785627D01*
X9364444Y-12785627D02*
X9373968Y-12757055D01*
X9373968Y-12757055D02*
X9383491Y-12738008D01*
X9383491Y-12738008D02*
X9402539Y-12709436D01*
X9402539Y-12709436D02*
X9412063Y-12699912D01*
X9573968Y-12795150D02*
X9573968Y-12928484D01*
X9526349Y-12718960D02*
X9478730Y-12861817D01*
X9478730Y-12861817D02*
X9602539Y-12861817D01*
X9659682Y-12728484D02*
X9793015Y-12728484D01*
X9793015Y-12728484D02*
X9707301Y-12928484D01*
X10021587Y-12928484D02*
X10021587Y-12728484D01*
X10107301Y-12928484D02*
X10107301Y-12823722D01*
X10107301Y-12823722D02*
X10097777Y-12804674D01*
X10097777Y-12804674D02*
X10078730Y-12795150D01*
X10078730Y-12795150D02*
X10050158Y-12795150D01*
X10050158Y-12795150D02*
X10031111Y-12804674D01*
X10031111Y-12804674D02*
X10021587Y-12814198D01*
X10231111Y-12928484D02*
X10212063Y-12918960D01*
X10212063Y-12918960D02*
X10202539Y-12909436D01*
X10202539Y-12909436D02*
X10193015Y-12890388D01*
X10193015Y-12890388D02*
X10193015Y-12833246D01*
X10193015Y-12833246D02*
X10202539Y-12814198D01*
X10202539Y-12814198D02*
X10212063Y-12804674D01*
X10212063Y-12804674D02*
X10231111Y-12795150D01*
X10231111Y-12795150D02*
X10259682Y-12795150D01*
X10259682Y-12795150D02*
X10278730Y-12804674D01*
X10278730Y-12804674D02*
X10288253Y-12814198D01*
X10288253Y-12814198D02*
X10297777Y-12833246D01*
X10297777Y-12833246D02*
X10297777Y-12890388D01*
X10297777Y-12890388D02*
X10288253Y-12909436D01*
X10288253Y-12909436D02*
X10278730Y-12918960D01*
X10278730Y-12918960D02*
X10259682Y-12928484D01*
X10259682Y-12928484D02*
X10231111Y-12928484D01*
X10412063Y-12928484D02*
X10393015Y-12918960D01*
X10393015Y-12918960D02*
X10383492Y-12899912D01*
X10383492Y-12899912D02*
X10383492Y-12728484D01*
X10564444Y-12918960D02*
X10545396Y-12928484D01*
X10545396Y-12928484D02*
X10507301Y-12928484D01*
X10507301Y-12928484D02*
X10488253Y-12918960D01*
X10488253Y-12918960D02*
X10478730Y-12899912D01*
X10478730Y-12899912D02*
X10478730Y-12823722D01*
X10478730Y-12823722D02*
X10488253Y-12804674D01*
X10488253Y-12804674D02*
X10507301Y-12795150D01*
X10507301Y-12795150D02*
X10545396Y-12795150D01*
X10545396Y-12795150D02*
X10564444Y-12804674D01*
X10564444Y-12804674D02*
X10573968Y-12823722D01*
X10573968Y-12823722D02*
X10573968Y-12842769D01*
X10573968Y-12842769D02*
X10478730Y-12861817D01*
X10650158Y-12918960D02*
X10669206Y-12928484D01*
X10669206Y-12928484D02*
X10707301Y-12928484D01*
X10707301Y-12928484D02*
X10726349Y-12918960D01*
X10726349Y-12918960D02*
X10735873Y-12899912D01*
X10735873Y-12899912D02*
X10735873Y-12890388D01*
X10735873Y-12890388D02*
X10726349Y-12871341D01*
X10726349Y-12871341D02*
X10707301Y-12861817D01*
X10707301Y-12861817D02*
X10678730Y-12861817D01*
X10678730Y-12861817D02*
X10659682Y-12852293D01*
X10659682Y-12852293D02*
X10650158Y-12833246D01*
X10650158Y-12833246D02*
X10650158Y-12823722D01*
X10650158Y-12823722D02*
X10659682Y-12804674D01*
X10659682Y-12804674D02*
X10678730Y-12795150D01*
X10678730Y-12795150D02*
X10707301Y-12795150D01*
X10707301Y-12795150D02*
X10726349Y-12804674D01*
X10802539Y-13004674D02*
X10812063Y-12995150D01*
X10812063Y-12995150D02*
X10831111Y-12966579D01*
X10831111Y-12966579D02*
X10840634Y-12947531D01*
X10840634Y-12947531D02*
X10850158Y-12918960D01*
X10850158Y-12918960D02*
X10859682Y-12871341D01*
X10859682Y-12871341D02*
X10859682Y-12833246D01*
X10859682Y-12833246D02*
X10850158Y-12785627D01*
X10850158Y-12785627D02*
X10840634Y-12757055D01*
X10840634Y-12757055D02*
X10831111Y-12738008D01*
X10831111Y-12738008D02*
X10812063Y-12709436D01*
X10812063Y-12709436D02*
X10802539Y-12699912D01*
M02*
