%TF.GenerationSoftware,KiCad,Pcbnew,7.0.7*%
%TF.CreationDate,2024-06-01T18:58:22-04:00*%
%TF.ProjectId,Payload,5061796c-6f61-4642-9e6b-696361645f70,rev?*%
%TF.SameCoordinates,Original*%
%TF.FileFunction,Plated,1,3,Blind,Drill*%
%TF.FilePolarity,Positive*%
%FSLAX46Y46*%
G04 Gerber Fmt 4.6, Leading zero omitted, Abs format (unit mm)*
G04 Created by KiCad (PCBNEW 7.0.7) date 2024-06-01 18:58:22*
%MOMM*%
%LPD*%
G01*
G04 APERTURE LIST*
%TA.AperFunction,ViaDrill*%
%ADD10C,0.300000*%
%TD*%
G04 APERTURE END LIST*
D10*
X73400000Y-102200000D03*
X75692000Y-54102000D03*
X78232000Y-54102000D03*
X84428500Y-55832500D03*
X86029800Y-71907400D03*
X86360000Y-52832000D03*
X88200000Y-101600000D03*
X90068400Y-65405000D03*
X93649800Y-118618000D03*
X94488000Y-48260000D03*
X95478600Y-104876600D03*
X98196400Y-58420000D03*
X98882200Y-88595200D03*
X102692200Y-84683600D03*
X103047800Y-91135200D03*
X103530400Y-99288600D03*
X103600000Y-108000000D03*
X103632000Y-77952600D03*
X105283000Y-60502800D03*
X107111800Y-58470800D03*
X111175800Y-58420000D03*
X113436400Y-52603400D03*
X113868200Y-68732400D03*
X120142000Y-90862150D03*
X123647200Y-97536000D03*
X123723400Y-89408000D03*
X123952000Y-41910000D03*
X124104400Y-93014800D03*
X125044200Y-87731600D03*
X127533400Y-72796400D03*
X127800000Y-80200000D03*
X128981200Y-97282000D03*
X130911600Y-75158600D03*
X133200000Y-68000000D03*
X134620000Y-41757600D03*
X135400000Y-93200000D03*
X139400000Y-93200000D03*
X140004800Y-71602600D03*
X143103600Y-68046600D03*
X146583400Y-41808400D03*
X147000000Y-67800000D03*
X147600000Y-93200000D03*
X148996400Y-57683400D03*
X152800000Y-80600000D03*
X152800000Y-86000000D03*
X153000000Y-73400000D03*
X159867600Y-66979800D03*
M02*
